<svg fill="none" version="1.1" viewBox="0 0 431 641" xmlns="http://www.w3.org/2000/svg">
  <path opacity="0.5" transform="translate(100 0)" clip-rule="evenodd" fill="#d3e0fd" fill-rule="evenodd" d="m126.33 0.94477c-5.285 1.372-6.805 1.9197-11.837 4.272-2.485 1.1638-6.553 2.8261-9.04 3.6969-6.2267 2.1825-15.05 6.1862-20.058 9.0999-12.026 7.0022-19.192 10.384-26.287 12.413-4.5775 1.309-18.168 6.063-20.085 7.0269-5.3336 2.6783-11.546 9.215-13.974 14.7-1.5916 3.5983-1.8956 5.351-1.9066 10.973-0.0055 2.8617 0.1014 6.775 0.2356 8.6946l0.2465 3.4916h-5.9389c-6.4896 0-8.6948 0.293-11.927 1.5828-2.3805 0.9503-4.3994 2.9247-5.0788 4.9703-1.1505 3.4587 0.4383 10.926 3.8324 18.03 4.5693 9.5577 12.078 17.672 23.808 25.731 1.6683 1.145 3.09 2.128 3.1585 2.185 0.6794 0.551-5.6212 7.12-9.7412 10.157-3.4461 2.539-7.5689 6.214-11.631 10.363-4.3173 4.408-5.6787 6.139-6.8348 8.686-2.5723 5.674-4.1282 16.776-2.7695 19.766 1.6354 3.598 6.6896 4.666 14.278 3.018 5.8102-1.262 10.188-1.23 19.313 0.142 4.0324 0.606 10.196 2.15 15.71 3.935 2.0573 0.666 5.4021 1.66 7.4374 2.208 2.0354 0.55 5.361 1.53 7.3964 2.18 2.0353 0.649 5.7335 1.637 8.2181 2.196 4.5419 1.021 18.882 5.54 25.583 8.059 2.0987 0.789 4.4457 1.465 5.6457 1.629 5.832 0.792 16.11 0.592 19.373-0.375 0.827-0.246 3.096-1.533 5.471-3.105 2.229-1.476 4.741-3.122 5.58-3.653 0.838-0.534 2.378-1.939 3.424-3.125s2.72-3.02 3.72-4.077c1.857-1.961 4.068-4.924 4.076-5.458 0.014-0.909 0.474-1.013 1.469-0.337 0.945 0.641 3.079 1.273 4.303 1.273 0.301 0 1.786 0.433 3.301 0.959 1.515 0.528 3.276 0.958 3.912 0.958 1.298 0 3.646 0.633 5.092 1.375 0.526 0.268 2.091 1.334 3.477 2.366 3.361 2.503 9.938 5.871 11.508 5.893l1.153 0.017 2.578 4.143c3.221 5.176 2.704 4.086 5.621 11.847 4.668 12.405 6.544 20.198 8.103 33.65 2.529 21.839 3.657 33.716 3.997 42.035 0.668 16.354 2.019 36.485 3.032 45.185 1.096 9.401 4.005 25.514 6.008 33.272 1.761 6.824 7.254 25.169 10.429 34.842 1.646 5.005 2.991 9.182 2.991 9.28 0 0.099-0.978-1.287-2.175-3.078-2.238-3.352-7.468-9.527-11.886-14.034-1.384-1.411-4.361-4.053-6.621-5.874-2.485-2.002-6.334-5.554-9.725-8.977-3.09-3.114-7.465-7.309-9.725-9.322s-5.624-5.129-7.476-6.928l-3.366-3.267 0.687-0.567c0.378-0.31 1.299-1.884 2.047-3.497 0.747-1.613 1.934-3.88 2.638-5.042 0.704-1.158 1.695-3.08 2.208-4.272 0.509-1.191 1.662-3.666 2.561-5.501 2.271-4.634 2.405-5.102 3.178-10.99 0.947-7.226 1.279-14.007 1.164-23.893-0.113-9.946-0.121-9.981-2.783-12.197-2.022-1.681-3.027-2.128-4.781-2.128-1.635 0-2.835 0.384-4.374 1.405-0.795 0.526-1.206 0.668-1.274 0.441-0.055-0.189-0.304-1.695-0.556-3.352-0.252-1.659-0.817-4.088-1.252-5.4-1.123-3.374-3.583-8.675-5.041-10.869-2.364-3.554-7.399-7.659-11.004-8.966-0.948-0.342-3.643-0.942-5.991-1.333-8.752-1.452-11.053-2.328-17.776-6.792-4.163-2.766-5.547-3.872-8.935-7.155-4.416-4.278-6.068-5.354-8.213-5.354-3.786 0-5.068 2.84-5.068 11.228 0 4.023 0.082 4.844 0.753 7.503 0.414 1.64 0.715 3.021 0.669 3.067-0.047 0.047-0.819-0.107-1.718-0.342-2.345-0.616-4.851-0.389-6.728 0.613-2.1584 1.153-5.5771 4.741-7.3687 7.726-3.3229 5.537-4.9281 7.821-7.8949 11.222-9.6316 11.047-13.25 18.358-13.67 27.62-0.1287 2.867-0.0712 3.582 0.4219 5.203 1.2053 3.954 4.9035 8.53 9.7083 12.011l0.7561 0.548-0.5122 2.327c-0.2822 1.279-1.23 4.423-2.1066 6.983-1.3999 4.089-1.5943 4.91-1.5943 6.77-0.0028 1.974 0.0849 2.292 1.2875 4.713 1.482 2.982 3.353 5.096 5.265 5.939 1.5807 0.699 8.2182 2.12 16.524 3.533 5.802 0.991 6.763 1.235 10.248 2.607 2.114 0.832 5.495 1.936 7.508 2.451 2.934 0.753 4.328 1.29 7.01 2.706 3.501 1.848 7.38 3.447 10.021 4.132 0.857 0.222 3.895 0.789 6.755 1.262 6.791 1.12 7.813 1.055 12.845-0.821 2.096-0.783 4.211-1.63 4.701-1.884 2.134-1.109 7.24-6.874 7.24-8.175 0-0.202 0.077-0.367 0.173-0.367s1.482 1.263 3.084 2.807c1.6 1.542 5.643 5.242 8.985 8.216 3.342 2.976 7.224 6.649 8.627 8.163 2.819 3.037 6.048 5.907 10.242 9.097 3.948 3.002 5.819 4.787 10.714 10.234 6.585 7.325 7.802 9.048 13.072 18.534 2.271 4.086 3.109 6.616 5.219 15.743 2.98 12.907 3.766 17.587 6.04 36.06 0.836 6.778 1.822 14.498 2.194 17.154 2.438 17.43 2.663 42.397 0.644 70.819-0.186 2.596-0.422 4.724-0.526 4.724s-0.271-0.526-0.37-1.164c-0.353-2.256-2.649-11.288-3.49-13.744-0.468-1.364-1.95-4.82-3.292-7.673-2.315-4.929-2.422-5.236-2.088-6.025 0.249-0.589 0.351-2.478 0.345-6.446-5e-3 -4.798-0.117-6.301-0.767-10.34-1.063-6.592-4.303-18.562-6.396-23.614-1.466-3.544-5.887-12.129-7.826-15.201-1.863-2.953-7.961-11.395-12.015-16.637-4.767-6.158-12.914-14.111-24.219-23.638-11.404-9.609-14.659-12.06-26.567-19.985-7.508-4.998-9.719-6.74-14.79-11.636-2.112-2.04-5.5-5.239-7.536-7.109-8.445-7.766-12.163-11.428-17.943-17.663-7.722-8.336-10.469-10.97-13.017-12.482-1.7888-1.063-2.2353-1.21-3.6434-1.21-1.4135 0-1.682 0.087-2.2572 0.755-1.0163 1.183-1.304 2.717-1.1369 6.091 0.1863 3.776 0.7287 6.399 2.2874 11.09 2.3778 7.148 4.6789 11.168 11.996 20.95 2.591 3.464 6.138 8.207 7.883 10.543 1.745 2.333 4.016 5.217 5.049 6.405 1.033 1.189 8.966 8.848 17.628 17.022 8.662 8.175 17.669 16.691 20.011 18.926 8.958 8.541 17.864 16.877 24.077 22.535 20.485 18.646 24.087 22.433 33.894 35.613 7.174 9.642 8.744 12.211 13.815 22.593 4.04 8.27 4.777 10.346 7.936 22.318 0.736 2.785 1.484 5.576 1.668 6.203 0.274 0.944 0.181 2.886-0.551 11.638-0.482 5.776-1 12.348-1.15 14.607-0.151 2.259-0.477 5.403-0.723 6.983-0.803 5.135-0.466 30.586 0.482 36.709 0.345 2.221 0.909 4.176 1.238 4.286 0.145 0.049 0.208-2.257 0.156-5.529-0.189-11.389 1.126-35.581 2.153-39.601 1.682-6.583 5.145-13.722 9.892-20.404l1.649-2.317 3.334-1.61c6.974-3.368 10.481-4.124 19.225-4.152 11.535-0.038 16.606-0.586 25.336-2.746 8.224-2.035 13.722-3.977 26.846-9.484 18.488-7.755 24.403-10.912 31.229-16.674 1.584-1.336 4.419-3.681 6.301-5.214 1.884-1.534 5.027-4.289 6.985-6.126 1.959-1.835 4.794-4.425 6.301-5.756 3.942-3.481 18.291-18.29 20.542-21.196 1.05-1.356 3.644-4.623 5.761-7.257 6.808-8.473 13.41-18.627 19.998-30.772 4.895-9.02 8.018-16.806 8.892-22.182 0.504-3.083-0.688-5.008-2.94-4.753-2.854 0.32-7.431 4.814-17.647 17.315-7.878 9.639-14.296 16.674-24.739 27.113-9.607 9.601-12.026 11.798-19.915 18.071-6.52 5.184-10.432 8.93-14.886 14.249-2.991 3.571-11.316 14.593-14.163 18.75-1.687 2.464-6.267 10.206-7.615 12.871-0.745 1.473-2.186 5.652-2.186 6.342 0 0.608-0.214 0.717-7.254 3.653-8.429 3.516-11.552 4.683-16.494 6.175-12.258 3.697-18.337 4.636-30.078 4.642-7.635 3e-3 -11.278 0.613-16.225 2.725-1.02 0.435-1.902 0.745-1.956 0.687-0.058-0.057 2.794-3.097 6.339-6.756 3.544-3.658 7.163-7.478 8.045-8.486 1.09-1.246 2.567-2.465 4.619-3.809 3.103-2.035 3.807-2.394 9.859-5.036 1.958-0.855 4.177-1.934 4.931-2.399 0.753-0.466 2.964-1.69 4.909-2.722 7.62-4.045 11.938-7.745 22.147-18.978 6.183-6.802 7.008-7.898 11.155-14.788 9.092-15.11 14.743-30.438 17.672-47.923 0.378-2.259 1.183-8.051 1.789-12.87 2.388-19.044 4.574-28.292 11.094-46.976 3.309-9.481 3.923-11.488 4.942-16.201 1.003-4.628 1.041-7.804 0.112-9.653-0.901-1.802-1.83-2.448-3.512-2.448-2.849 0-6.388 2.07-10.478 6.126-4.166 4.135-7.626 9.103-12.823 18.424-5.914 10.601-12.513 27.607-23.035 59.354-5.835 17.605-7.632 22.441-14.749 39.713-12.409 30.115-16.483 37.903-27.331 52.222-4.131 5.453-5.602 7.142-11.749 13.498-9.916 10.253-13.757 15.174-17.946 22.998l-1.684 3.149 0.153-1.917c2.353-29.789 2.844-38.284 3.085-53.397 0.257-16.141-0.419-33.642-1.688-43.679-0.219-1.733-0.959-8.141-1.643-14.24-2.512-22.4-3.597-29.09-7.005-43.237-0.729-3.029-0.994-4.595-0.814-4.814 0.181-0.214 0.167-0.428-0.038-0.633-0.471-0.471-0.638-10.529-0.241-14.456 0.403-3.974 1.389-9.944 2.361-14.284 2.266-10.119 4.244-13.629 16.738-29.721 1.843-2.371 4.487-5.885 5.876-7.804 1.389-1.92 2.66-3.568 2.821-3.662 0.165-0.095 1.039-0.627 1.943-1.183 9.629-5.906 10.697-6.276 19.449-6.744 7.654-0.409 10.544-0.025 17.886 2.379 9.601 3.144 18.841 5.044 24.435 5.028 2.282-5e-3 7.782-1.008 10.182-1.854 4.063-1.429 6.32-4.373 7.805-10.168 1.515-5.912 1.101-12.167-1.124-16.997-0.66-1.433-1.287-2.911-1.399-3.287-0.441-1.506-2.011-4.592-2.967-5.835l-1.011-1.317 1.688-1.832c5.037-5.469 7.722-11.299 8.097-17.579 0.266-4.411-0.975-8.018-3.83-11.14-2.095-2.295-4.467-3.291-13.195-5.556-12.497-3.242-17.001-3.993-22.649-3.774-7.465 0.291-12.815 2.889-15.757 7.652l-0.975 1.582-1.677-1.552c-2.279-2.109-4.618-3.577-9.56-5.989-3.696-1.808-4.797-2.199-9.517-3.393-9.601-2.429-12.081-2.659-15.354-1.411-1.726 0.658-3.624 2.156-4.243 3.35-0.918 1.771-1.526 5.767-1.767 11.605-0.132 3.163-0.324 7.476-0.422 9.585-0.145 3.067-0.063 4.872 0.416 9.037 1.038 9.037 1.507 11.159 4.241 19.243 1.964 5.808 2.821 7.785 5.289 12.194 2.228 3.977 2.644 5.592 2.458 9.549-0.08 1.706-0.282 3.533-0.447 4.061-0.339 1.082-3.509 5.565-8.538 12.077-12.481 16.165-14.492 19.303-16.787 26.213-1.715 5.164-3.356 14.387-3.649 20.53-0.096 2.002-0.26 3.543-0.365 3.423-0.104-0.121-0.528-1.449-0.942-2.955s-1.654-5.512-2.756-8.9c-3.933-12.09-8.779-28.211-10.823-36.011-2.496-9.527-5.413-26.716-6.416-37.79-1.062-11.737-1.098-13.123-0.465-17.406 0.323-2.174 0.961-7.035 1.421-10.801 0.461-3.765 1.009-7.593 1.217-8.508 1.739-7.596 6.591-17.135 12.661-24.901 1.058-1.355 5.054-5.981 8.878-10.277 13.265-14.903 15.396-17.685 18.628-24.321 2.567-5.268 3.682-8.327 4.953-13.58 0.666-2.746 1.301-4.811 1.479-4.811 0.173 0 1.901-0.783 3.841-1.739 1.939-0.956 4.145-1.881 4.898-2.057 3.153-0.736 7.084-1.131 11.231-1.128 5.079 3e-3 8.394 0.307 12.286 1.128 4.427 0.932 7.345 0.814 12.506-0.512 7.867-2.021 11.911-4.31 17.14-9.699 3.011-3.106 3.852-4.467 6.561-10.642 3.156-7.194 3.386-7.785 4.175-10.642 1.068-3.885 1.035-7.347-0.102-10.184-0.457-1.139-1.701-3.357-2.766-4.929-2.315-3.423-2.91-4.546-2.644-4.99 0.112-0.183 1.635-2.245 3.386-4.578 4.199-5.6 5.32-7.285 6.525-9.807 0.986-2.065 1.005-2.169 1.005-5.405 0-3.265-0.011-3.322-1.021-5.34-0.691-1.378-1.866-2.972-3.627-4.916-5.216-5.754-6.271-7.041-8.375-10.212-1.177-1.774-3.503-5.918-5.166-9.204-4.095-8.0974-5.347-9.6583-9.385-11.69-4.386-2.2072-8.594-3.1931-13.79-3.2259-4.567-0.0302-6.298 0.3012-9.451 1.8019-4.052 1.9333-8.106 6.5668-10.84 12.394-1.66 3.535-3.06 7.44-4.06 11.307l-0.868 3.36-1.087-1.133c-2.406-2.506-5.83-5.297-7.424-6.047-2.315-1.093-4.682-1.509-6.12-1.079-1.797 0.537-2.846 1.884-5.325 6.827-4.071 8.117-6.84 11.677-13.87 17.847-9.861 8.653-14.384 17.745-12.195 24.514 0.668 2.06 3.931 8.484 6.045 11.893 2.214 3.574 5.252 7.268 9.627 11.713 4.388 4.458 5.073 5.28 6.769 8.108 0.706 1.178 1.865 2.843 2.577 3.7 1.94 2.331 3.789 5.458 4.323 7.306 0.323 1.123 0.764 1.917 1.394 2.514 0.507 0.479 0.924 1.12 0.924 1.424 0 1.2-2.838 12.085-3.756 14.41-0.534 1.356-1.745 4.067-2.69 6.025-3.203 6.64-5.142 9.179-19.094 24.988-6.317 7.156-9.122 10.664-11.883 14.856-5.728 8.692-8.909 16.762-9.851 25.008-0.446 3.894-0.666 4.937-0.666 3.155 0-6.973-0.931-20.955-2.054-30.901-2.827-24.994-3.717-31.022-5.893-39.845-1.736-7.051-6.149-19.906-8.253-24.035-0.797-1.569-3.646-6.036-4.964-7.791-0.989-1.312-1.052-1.498-0.789-2.328 0.156-0.496 0.416-1.876 0.575-3.072 0.496-3.689-0.117-6.365-3.794-16.516-1.356-3.738-1.597-5.173-1.945-11.469-0.148-2.692-0.334-5.573-0.416-6.402l-0.148-1.507 2.129-0.761c2.648-0.947 4.317-2.067 5.541-3.716 0.521-0.701 1.951-2.569 3.178-4.151 5.125-6.603 6.895-9.862 10.382-19.137 1.438-3.82 3.43-8.872 4.427-11.225 0.997-2.352 2.296-5.723 2.887-7.489 2-5.9785 2.219-7.5011 3.115-21.708 0.512-8.1497 0.773-10.686 1.778-17.252 1.63-10.647 1.742-17.296 0.397-23.291-0.931-4.157-2.331-8.1743-3.843-11.033-2.816-5.3236-9.514-13-12.856-14.733-3.052-1.5829-4.331-1.8786-8.081-1.8704-3.082 0.0055-3.8 0.1068-7.175 1.0215-4.654 1.2596-8.418 2.7384-12.749 5.0086-3.117 1.6321-3.369 1.7198-3.624 1.2405-0.151-0.282-0.91-2.0976-1.682-4.0337-0.773-1.9361-1.57-3.8394-1.772-4.2337-0.822-1.5965-3.846-5.5454-5.137-6.7065-6.802-6.1095-8.914-6.953-17.855-7.1255l-5.753-0.10954zm15.559 2.6235c2.504 0.5559 4.657 1.7636 7.676 4.3076 4.049 3.4149 6.125 6.2574 7.961 10.894 0.775 1.958 1.641 3.9434 1.926 4.4144 0.284 0.471 0.52 0.9147 0.52 0.9886s-0.71 0.5997-1.575 1.1693c-0.869 0.5696-3.364 2.2976-5.55 3.8393-4.331 3.0589-5.671 3.8257-7.18 4.1077-0.866 0.1616-1.203 0.0439-2.644-0.9365-4.141-2.8097-11.645-6.1533-15.663-6.9776-6.35-1.3008-13.916-0.545-20.05 2.0073-2.605 1.0844-7.766 4.4472-11.168 7.2788-5.5335 4.6034-12.705 12.545-22.841 25.29-7.8182 9.8338-13.478 14.355-20.318 16.236-1.8655 0.5121-2.8845 0.5998-7.1086 0.5998-3.3613 0-5.802-0.1452-7.6703-0.4601-1.5067-0.2547-4.972-0.6079-7.7004-0.7859l-4.961-0.3232-0.1863-5.4961c-0.3698-10.847 0.5397-15.053 4.4515-20.593 2.9722-4.2118 6.8813-7.6513 10.821-9.5298 2.5037-1.194 11.659-4.4035 18.532-6.5012 2.9367-0.8954 6.9444-2.3112 8.903-3.1437 4.2351-1.8019 12.823-6.1889 18.858-9.6339 5.2733-3.0096 13.135-6.5093 19.767-8.8014 2.712-0.9366 6.904-2.5961 9.314-3.686 4.8-2.1716 6.375-2.7385 11.095-3.9899 3.079-0.81606 3.265-0.83249 8.218-0.72295 2.786 0.06298 5.744 0.26289 6.574 0.44911zm47.745 15.064c3.553 1.0981 6.007 3.2642 10.626 9.3792 5.89 7.7964 8.276 16.639 7.405 27.45-0.17 2.1086-0.496 5.0661-0.729 6.5723-1.72 11.206-2.192 15.842-2.863 28.118-0.433 7.9333-1.441 12.096-4.92 20.306-1.063 2.503-3.158 7.834-4.659 11.849-3.022 8.078-4.597 11.165-7.857 15.412-6.769 8.812-6.314 8.319-8.366 9.064-0.951 0.345-1.863 0.679-2.024 0.74-0.162 0.06-0.458-0.381-0.658-0.983-0.309-0.942-0.296-1.323 0.104-2.744 0.682-2.438 1.014-8.492 0.696-12.729-0.151-1.971-0.326-3.768-0.392-3.995-0.216-0.723-1.208-11.209-1.517-16.02-0.165-2.561-0.422-5.458-0.57-6.436-0.784-5.1424-3.071-15.726-6.155-28.48-1.165-4.8088-4.816-15.864-6.427-19.443-3.068-6.8215-7.829-14.262-12.234-19.114l-1.942-2.1387 1.323-0.471c0.728-0.2575 4.024-2.2538 7.325-4.4364 3.301-2.1798 6.161-3.9652 6.355-3.9652 0.192 0 0.488-0.1753 0.658-0.3862 0.805-1.0242 8.711-4.8224 12.768-6.1341 1.756-0.5669 5.514-1.5418 6.848-1.7745 1.97-0.3396 5.507-0.1644 7.205 0.3587zm-63.178 10.286c2.901 0.5997 5.41 1.5308 9.541 3.5463 4.624 2.2565 6.585 3.5764 9.552 6.4244 6.298 6.052 11.612 15.316 15.478 26.979 2.295 6.9283 2.827 8.8945 4.848 17.937 3.66 16.371 4.433 20.862 4.792 27.796 0.284 5.548 0.999 12.533 1.791 17.526 0.323 2.043 0.4 3.957 0.301 7.53-0.161 5.995-0.419 6.951-2.134 7.958-0.684 0.403-3.021 2.227-5.196 4.053-2.227 1.871-4.791 3.76-5.871 4.324-6.078 3.172-9.557 6.619-12.39 12.282-1.597 3.193-2.715 7.613-2.4 9.481l0.187 1.104-1.154-0.729c-1.824-1.15-3.383-1.728-5.958-2.204-2.903-0.537-3.854-0.94-7.656-3.234-1.625-0.981-3.633-2.09-4.463-2.462-5.958-2.687-16.195-7.112-18.354-7.936-1.43-0.548-4.881-1.871-7.6698-2.942-17.335-6.662-20.806-7.895-24.139-8.576-3.0846-0.63-3.8625-0.926-8.5962-3.262-11.275-5.567-34.133-19.659-42.063-25.936-5.6404-4.464-11.152-10.343-14.497-15.464-3.7393-5.7261-6.8074-14.61-6.5307-18.928 0.09862-1.5308 0.22189-1.8594 1.0245-2.6864 1.8463-1.9033 5.1254-2.8316 10.823-3.0589 5.4733-0.2191 16.784 0.2793 22.068 0.9749 9.5631 1.2542 15.792 0.5011 22.052-2.6645 5.0158-2.5386 10.355-7.3254 16.401-14.714 15.721-19.208 23.616-26.823 31.812-30.693 2.181-1.0296 6.701-2.3605 9.04-2.6645 2.233-0.2903 7.443-0.1588 9.361 0.2383zm171.16 65.173c4.885 1.2624 8.577 3.2067 10.465 5.5098 0.548 0.6684 2.186 3.5824 3.643 6.4714 4.405 8.752 6.944 12.49 12.346 18.158 5.479 5.754 6.304 7.131 6.38 10.647 0.066 3.026-1.161 5.258-7.07 12.871-1.989 2.561-4.668 6.047-5.955 7.747-8.731 11.54-19.406 20.191-33.643 27.262-3.388 1.684-7.516 3.535-9.174 4.11-5.717 1.991-9.366 4.176-14.182 8.498l-2.712 2.431 0.184-1.336c0.099-0.737 0.907-4.973 1.792-9.415 1.473-7.405 2.887-16.954 4.366-29.488 2.403-20.357 4.989-35.318 7.585-43.903 3.4-11.227 8.065-17.874 13.834-19.7 3.025-0.9557 8.131-0.8982 12.141 0.1369zm-40.608 20.185c2.725 1.251 8.971 6.644 8.971 7.742 0 0.336-0.238 1.766-0.529 3.176-1.312 6.395-3.432 20.969-4.67 32.139-1.745 15.721-3.794 28.529-6.901 43.111l-0.608 2.857-0.309-1.35c-0.48-2.098-2.329-5.409-4.649-8.331-0.778-0.98-1.948-2.705-2.6-3.834-1.687-2.922-2.402-3.803-6.317-7.807-6.33-6.476-9.13-10.154-12.505-16.431-3.479-6.473-3.997-8.284-3.295-11.51 0.564-2.609 1.429-4.521 3.331-7.366 2.095-3.141 4.122-5.345 8.508-9.261 6.706-5.989 9.604-9.804 13.467-17.735 1.282-2.637 2.663-5.143 3.063-5.573 0.665-0.714 0.846-0.769 2.166-0.635 0.792 0.082 2.085 0.447 2.877 0.808zm-221.6 16.047c6.6101 4.459 19.778 12.088 25.945 15.032 2.334 1.114 5.4788 2.626 6.9855 3.36 3.3721 1.64 3.7611 1.788 6.8539 2.59 2.6983 0.702 8.9933 2.972 18.211 6.573 3.2406 1.265 7.5556 2.908 9.5876 3.653 4.079 1.492 5.008 1.87 12.19 4.973 2.712 1.172 6.145 2.643 7.63 3.27 1.484 0.627 4.18 1.993 5.993 3.034 3.808 2.188 4.945 2.612 8.399 3.127 1.554 0.233 3.296 0.718 4.545 1.265l2.024 0.89-1.282 1.512c-0.704 0.833-2.093 2.385-3.082 3.45-0.988 1.066-2.512 2.802-3.383 3.856-0.871 1.055-1.849 2.12-2.172 2.369-2.238 1.714-10.815 7.117-11.656 7.345-1.997 0.536-9.873 0.835-14.431 0.545-3.882-0.247-4.654-0.384-7.101-1.241-10.119-3.557-23.125-7.709-26.985-8.612-2.4846-0.584-6.2567-1.613-8.3797-2.287-2.123-0.676-5.5144-1.676-7.5333-2.221s-5.6431-1.61-8.0538-2.366c-8.5003-2.662-14.615-3.897-23.011-4.644-4.2762-0.381-7.3005-0.189-12.053 0.761-5.5801 1.117-9.1934 0.912-10.716-0.611-0.57801-0.578-0.65471-0.901-0.65471-2.807 0-4.214 1.5642-11.263 3.2653-14.719 1.7696-3.596 8.7852-10.948 16.253-17.039 1.923-1.569 4.1639-3.612 4.9802-4.54 3.5995-4.097 4.2652-4.973 4.8459-6.37 0.337-0.816 0.6602-1.481 0.7123-1.481 0.0548 3e-3 0.9889 0.599 2.0737 1.333zm137.37 17.494c0.729 0.635 1.096 2.314 1.441 6.55 0.156 1.933 0.406 4.99 0.556 6.794 0.37 4.469 1.129 7.988 2.619 12.126 2.8 7.788 3.515 10.77 3.235 13.473-0.101 0.986-0.353 2.205-0.561 2.711-0.334 0.814-0.463 0.899-1.132 0.737-0.413-0.099-1.432-0.586-2.26-1.084-0.83-0.499-2.254-1.298-3.164-1.775-0.912-0.479-2.753-1.736-4.089-2.796-1.34-1.06-2.967-2.237-3.619-2.621-1.781-1.043-4.717-1.996-6.166-2.004-0.746-3e-3 -2.414-0.4-3.973-0.945-1.476-0.515-3.364-1.024-4.194-1.125-1.901-0.239-2.276-0.441-3.01-1.63-0.329-0.528-0.879-1.032-1.225-1.12-0.712-0.178-0.706-0.276 0.192-3.127 0.745-2.369 2.449-5.751 3.997-7.942 2.635-3.732 5.232-5.967 9.5-8.179 1.534-0.797 3.463-2.241 6.438-4.823 2.334-2.026 4.385-3.689 4.555-3.694 0.173 0 0.559 0.211 0.86 0.474zm148.95 12.586c3.136 4.521 4.161 7.205 3.862 10.116-0.268 2.62-1.386 6.128-3.166 9.94-0.885 1.89-2.123 4.609-2.751 6.041-1.553 3.536-3.131 5.814-5.752 8.32-4.238 4.047-8.594 6.375-15.048 8.043-4.481 1.158-7.062 1.251-11.007 0.397-4.054-0.877-8.911-1.233-14.809-1.082-7.752 0.197-10.839 0.923-15.54 3.648l-1.753 1.015 0.178-1.114c0.153-0.953 0.594-1.528 3.062-3.993 6.682-6.671 10.377-9.149 17.036-11.43 3.118-1.068 12.81-5.781 16.544-8.046 4.158-2.522 12.286-8.459 15.348-11.211 2.929-2.632 7.512-7.564 10.259-11.044 0.863-1.093 1.644-1.983 1.732-1.977 0.09 2e-3 0.901 1.073 1.805 2.377zm-205.47 83.662c0.46 0.313 2.318 2.016 4.125 3.785 3.356 3.281 5.126 4.677 10.372 8.185 5.536 3.703 9.174 5.099 16.748 6.43 2.26 0.394 4.844 0.931 5.742 1.189 2.233 0.638 5.342 2.727 7.879 5.293 1.895 1.917 2.32 2.552 4.029 6.058 2.63 5.392 3.419 7.927 4.282 13.777 1.041 7.057 0.978 11.137-0.447 29.575-0.786 10.146-1.065 16.932-1.071 25.974l-5e-3 7.904-2.26-2.013c-6.024-5.365-8.942-8.714-12.892-14.788-4.643-7.139-7.758-13.246-11.434-22.417-2.397-5.978-3.953-9.261-6.69-14.103-0.936-1.659-2.846-5.17-4.246-7.805-3.372-6.356-5.051-9.206-8.24-13.979-5.029-7.531-6.854-11.379-8.672-18.312-0.883-3.361-0.981-4.092-1.009-7.553-0.06-7.676 0.77-9.251 3.789-7.2zm-6.558 20.306c1.791 0.841 2.222 1.364 3.309 4.023 1.2 2.927 2.027 4.37 5.912 10.321 3.391 5.192 4.794 7.657 11.653 20.473 4.219 7.884 5.216 10.006 7.889 16.841 3.044 7.769 6.441 14.235 11.539 21.963 4.166 6.312 6.793 9.27 13.94 15.672l0.822 0.737-1.506-0.143c-0.831-0.079-3.11-0.287-5.068-0.46-6.09-0.539-11.139-1.511-15.481-2.976-2.186-0.74-5.081-1.674-6.437-2.079-4.882-1.451-17.324-7.364-22.375-10.628-4.063-2.629-5.126-3.157-12.437-6.2-10.676-4.439-15.867-7.487-20.269-11.893-2.2244-2.226-2.9695-3.185-3.8351-4.94l-1.0766-2.177 0.011-3.437c0.0274-8.339 3.4132-15.319 12.7-26.163 2.9777-3.478 4.7939-6.11 7.6977-11.146 1.9997-3.469 5.0601-6.939 6.9331-7.867 1.636-0.808 4.263-0.773 6.079 0.079zm151.08 8.829c1.732 0.37 4.75 1.087 6.712 1.594 7.188 1.859 15.905 6.654 17.45 9.601 0.463 0.882 0.457 0.914-0.504 2.911-1.885 3.927-4.194 9.491-6.668 16.08-2.148 5.712-7.391 18.616-11.273 27.743-1.509 3.544-5.018 10.245-5.33 10.171-0.137-0.03-0.337-0.644-0.441-1.364-0.305-2.065-1.247-4.359-3.17-7.72-2.126-3.716-3.408-6.769-5.265-12.555-1.772-5.529-2.564-9.341-3.309-15.955-0.575-5.09-0.589-5.759-0.299-14.24 0.241-7.021 0.425-9.505 0.88-11.764 0.315-1.575 0.693-3.084 0.835-3.355 0.29-0.542 2.12-1.558 3.397-1.889 1.107-0.285 3.208-0.063 6.985 0.742zm51.498 3.7c3.317 0.539 14.982 3.376 19.723 4.795 2.899 0.868 4.635 1.952 5.918 3.697 1.512 2.059 2.106 3.847 2.125 6.402 0.047 6.003-2.898 12.12-8.653 17.981-2.677 2.725-4.641 4.318-10.035 8.144-8.571 6.079-14.661 9.278-23.186 12.181-4.991 1.698-11.371 4.365-18.83 7.87-1.921 0.904-4.841 2.122-6.487 2.708-1.647 0.589-4.449 1.838-6.224 2.78l-3.23 1.711 0.649-1.084c2.206-3.672 4.671-8.558 6.427-12.72 5.186-12.315 8.829-21.251 11.273-27.659 5.544-14.533 9.601-22.496 12.494-24.534 1.961-1.377 5.484-2.571 8.722-2.954 1.663-0.197 5.764 0.104 9.314 0.682zm-132.78 12.816c0.896 0.339 3.254 2.396 3.758 3.278 0.63 1.098 0.721 13.358 0.154 20.434-0.409 5.082-1.721 14.443-2.381 16.978-0.159 0.6-1.024 2.635-1.928 4.519-0.902 1.881-2.011 4.346-2.466 5.477-0.452 1.128-1.471 3.163-2.265 4.518-0.795 1.353-1.786 3.237-2.208 4.182-0.419 0.945-0.808 1.673-0.863 1.618-0.274-0.274 0.55-22.299 1.128-30.172 1.019-13.862 1.335-20.708 1.156-25.106l-0.164-4.02 1.016-0.608c1.926-1.156 3.827-1.567 5.063-1.098zm153.49 26.354c0.463 0.685 1.164 2.032 1.562 2.996 3.654 8.903 3.339 7.676 3.331 12.983-9e-3 5.099-0.288 6.649-1.789 9.96-1.6 3.525-2.8 4.423-7.372 5.516-7.235 1.727-16.562 0.495-30.012-3.969-5.205-1.725-8.424-2.371-12.859-2.571l-3.835-0.172 2.191-0.926c1.206-0.509 3.978-1.714 6.156-2.681 2.18-0.967 6.311-2.561 9.177-3.541 5.635-1.931 11.656-4.721 16.307-7.561 3.452-2.106 10.525-7.117 13.56-9.612 1.205-0.988 2.315-1.769 2.465-1.73 0.154 0.038 0.655 0.627 1.118 1.308zm-243.14 13.986c1.7341 0.983 6.4129 3.185 10.399 4.893 5.49 2.353 8.016 3.602 10.41 5.141 5.531 3.56 7.125 4.441 13.845 7.64 6.13 2.916 12.686 5.406 20.391 7.736 2.345 0.709 9.539 1.912 11.481 1.92 0.852 2e-3 2.414 0.131 3.468 0.287 2.526 0.373 5.019 0.375 5.975 6e-3l0.77-0.299-0.77 1.416c-0.797 1.465-4.142 5.096-5.219 5.666-0.337 0.181-2.369 0.95-4.52 1.714-3.81 1.353-3.966 1.383-6.234 1.241-1.282-0.082-4.488-0.515-7.123-0.964-5.399-0.918-8.854-2.095-14.108-4.806-2.095-1.079-3.764-1.723-5.478-2.106-2.485-0.556-5.644-1.547-10.684-3.355-2-0.717-4.216-1.21-8.218-1.835-6.7992-1.057-12.87-2.272-15.182-3.036-2.3312-0.775-3.7749-2.139-5.2569-4.971-1.6107-3.081-1.5971-4.494 0.1068-10.348 0.6821-2.347 1.3314-5.217 1.4382-6.376 0.1945-2.073 0.2082-2.103 0.7807-1.73 0.3178 0.208 1.997 1.183 3.7283 2.166zm10.605 43.024c0.994 0.928 4.917 5.017 8.719 9.083 3.802 4.067 7.476 7.887 8.163 8.49 2.143 1.878 11.895 11.027 16.491 15.469 5.715 5.526 8.186 7.484 16.324 12.937 11.476 7.686 13.881 9.524 25.72 19.621 7.887 6.728 17.713 16.247 21.389 20.711 2.973 3.612 11.876 15.833 13.988 19.194 2.024 3.225 5.689 10.228 7.223 13.801 1.715 3.988 5.235 16.738 6.279 22.73 0.937 5.378 1.356 8.489 1.137 8.489-0.063 0-0.323-0.649-0.578-1.438-0.888-2.768-12.944-26.297-15.187-29.646-2.304-3.434-4.504-5.937-9.635-10.952-3.728-3.647-6.182-5.731-11.332-9.622-8.205-6.2-8.454-6.419-17.949-15.947-7.933-7.963-13.946-13.615-21.676-20.379-2.652-2.32-6.118-5.762-9.084-9.026-2.638-2.9-6.117-6.444-7.731-7.873-3.739-3.311-9.492-9.259-11.752-12.156-0.964-1.233-2.816-3.897-4.114-5.918-1.299-2.021-3.408-5.121-4.687-6.887-1.277-1.767-3.542-5.119-5.033-7.449-1.49-2.33-3.558-5.449-4.594-6.931-2.051-2.93-4.0702-5.984-5.4564-8.24l-0.882-1.438 1.2272 0.844c0.6712 0.465 2.0354 1.604 3.0302 2.533zm-5.8107-0.096c0.0959 0.298 2.2902 3.722 4.8816 7.607 2.5891 3.886 5.4491 8.232 6.3501 9.659 0.904 1.424 2.616 3.943 3.805 5.597 1.189 1.652 3.238 4.691 4.555 6.753 1.315 2.06 3.077 4.65 3.915 5.757 2.246 2.971 7.174 8.169 11.861 12.509 2.274 2.106 6.035 5.953 8.356 8.549 2.884 3.229 6.081 6.381 10.108 9.971 8.473 7.556 11.456 10.395 20.822 19.84 8.577 8.651 10.275 10.141 18.765 16.448 4.111 3.056 5.911 4.644 10.842 9.57 6.454 6.447 8.478 9.084 11.256 14.646 1.597 3.198 6.876 13.251 8.64 16.458 1.529 2.771 1.244 2.462-3.268-3.56-9.089-12.131-13.242-16.499-32.538-34.234-5.148-4.726-13.711-12.805-24.638-23.235-2.345-2.238-9.936-9.443-16.867-16.009-21.175-20.06-21.419-20.317-28.078-29.475-1.855-2.552-4.695-6.375-6.312-8.494-3.766-4.935-6.511-9.155-8.2014-12.605-2.249-4.596-4.1474-10.68-4.7665-15.267-0.1425-1.079 0.2164-1.419 0.5122-0.485zm264.59 0.074c0.115 0.419 3e-3 0.753-0.356 1.051-1.257 1.047-7.645 10.593-9.056 13.531-4.501 9.374-6.158 13.082-7.284 16.294-0.712 2.032-2.197 5.874-3.296 8.536-1.101 2.662-2.818 7.095-3.818 9.858-1 2.761-2.66 7.298-3.693 10.086-1.03 2.785-2.572 7.035-3.421 9.448-0.852 2.41-3.129 8.385-5.06 13.281-1.931 4.894-4.312 10.932-5.29 13.419-0.978 2.484-2.852 6.983-4.166 9.995-1.313 3.012-3.121 7.263-4.019 9.448-2.35 5.723-3.967 8.9-7.114 13.985-1.532 2.476-4.257 6.901-6.054 9.839-2.781 4.535-7.487 11.502-7.772 11.502-0.049 0 0.477-1.202 1.164-2.67 3.178-6.775 7.016-15.683 11.478-26.632 7.482-18.358 9.284-23.315 14.807-40.756 7.119-22.488 13.582-40.225 18.578-50.982 3.159-6.805 8.205-15.357 11.996-20.336 4.706-6.178 11.741-11.238 12.376-8.897zm-1.577 11.082c-0.381 1.471-2.123 6.869-3.874 11.989-4.89 14.309-7.662 24.395-9.297 33.82-0.378 2.183-1.187 8.038-1.795 13.008-2.342 19.153-4.144 27.749-8.111 38.692-2.616 7.224-9.454 20.552-14.217 27.716-1.923 2.892-7.777 9.486-13.99 15.76-4.592 4.633-8.744 7.719-13.81 10.253-1.58 0.791-3.799 1.971-4.93 2.62-1.129 0.649-3.718 1.879-5.753 2.736-5.504 2.314-5.158 2.248-3.882 0.742 0.606-0.717 2.17-2.352 3.476-3.631 2.389-2.347 8.479-9.5 11.536-13.556 2.383-3.162 3.884-5.455 8.604-13.144 7.638-12.444 8.577-14.196 11.914-22.182 0.942-2.259 2.912-6.881 4.377-10.269 1.466-3.39 3.581-8.566 4.704-11.501 1.12-2.939 3.279-8.473 4.794-12.299 1.515-3.828 3.714-9.683 4.892-13.01 4.246-12.025 7.435-20.667 9.605-26.038 1.216-3.012 2.988-7.654 3.939-10.31 2.194-6.126 7.577-17.395 10.294-21.543 1.115-1.704 2.071-2.972 2.123-2.816 0.052 0.157-0.219 1.49-0.599 2.963zm68.829 56.01c-0.326 0.638-1.767 3.073-3.199 5.409-8.377 13.645-10.802 17.164-15.645 22.729-1.378 1.58-3.827 4.406-5.443 6.282-1.614 1.873-4.153 4.768-5.641 6.435-1.484 1.665-4.298 5.168-6.251 7.783-1.95 2.615-4.988 6.312-6.747 8.215-1.759 1.904-4.142 4.631-5.295 6.063-3.515 4.363-8.103 9.276-19.546 20.928-10.461 10.655-18.345 18.082-23.287 21.938-2.178 1.703-5.202 3.365-5.525 3.042-0.348-0.345 1.495-4.162 4.185-8.665 3.03-5.077 6.397-9.894 13.023-18.648 7.799-10.305 11.777-14.509 19.713-20.829 7.306-5.822 8.503-6.874 15.56-13.641 10.705-10.266 22.326-22.816 32.719-35.334 5.281-6.361 11.245-12.871 11.787-12.871 0.102 0-0.082 0.523-0.408 1.164zm-2.041 10.193c-1.789 4.433-6.152 12.695-10.344 19.588-2.692 4.423-9.108 13.95-11.179 16.601-8.525 10.91-12.029 14.932-19.535 22.43-4.224 4.22-9.946 9.705-12.713 12.186-2.767 2.479-5.868 5.264-6.89 6.187-1.021 0.92-3.136 2.705-4.695 3.965-1.558 1.26-4.109 3.363-5.665 4.672-2.665 2.245-6.457 4.94-7.991 5.679l-0.684 0.332 0.684-0.592c3.989-3.434 8.375-7.657 12.141-11.685 2.507-2.678 6.046-6.271 7.865-7.985 3.868-3.637 10.917-11.288 14.976-16.253 1.567-1.917 4.085-4.811 5.597-6.435 1.509-1.624 3.876-4.478 5.259-6.343 4-5.394 7.23-9.286 17.209-20.735 5.742-6.589 9.391-11.751 15.023-21.262 0.959-1.618 1.781-2.902 1.83-2.856 0.049 0.049-0.351 1.175-0.888 2.506z" />
</svg>