<svg fill="none" version="1.1" viewBox="0 0 467 720" xmlns="http://www.w3.org/2000/svg">
  <path clip-rule="evenodd" opacity="0.4" fill="#d3e0fd" fill-rule="evenodd" d="m195.09 1.2392c-2.9841 2.1647-8.551 9-10.524 12.921-1.868 3.7114-2.8155 8.8919-5.395 29.509-0.2866 2.2897-1.3218 7.9126-2.303 12.495-4.2856 20.03-7.6709 46.749-7.9508 62.77l-0.1079 6.309-1.2476-0.885c-3.4392-2.442-8.9522-9.875-11.892-16.038l-1.5915-3.337 0.998-4.045c2.303-9.3213 2.33-17.963 0.0776-25.366-0.5395-1.7663-3.1156-7.3756-5.7321-12.465-2.6132-5.0894-5.9412-11.965-7.3911-15.271-1.4499-3.3096-3.355-7.5682-4.2317-9.4627-2.6536-5.7411-6.5144-8.4766-8.6386-6.1193-1.5949 1.7662-0.6373 11.144 1.7769 17.406 0.5935 1.5433 2.2153 5.4101 3.5978 8.5914 3.1931 7.3351 7.6743 20.381 10.001 29.111 2.2355 8.3955 3.537 12.016 7.1617 19.968 3.7934 8.318 5.8434 11.273 12.031 17.339l5.1892 5.089 0.3102 7.868c0.7722 19.615 2.5863 34.808 6.356 53.224 2.9132 14.248 7.7721 39.026 7.7721 39.647 0 0.365-1.0824-0.378-11.215-7.68-5.6748-4.089-9.9739-8.213-13.022-12.491l-2.1041-2.955 0.7621-4.56c1.0891-6.5 1.0958-17.81 0.0101-22.518-1.9422-8.433-6.2345-16.035-18.117-32.096-2.856-3.857-6.2851-8.858-7.6204-11.107-2.8357-4.782-6.339-8.491-8.025-8.491-1.7938 0-2.168 1.264-1.5982 5.407 0.6373 4.671 2.1108 9.027 5.577 16.535 3.3348 7.21 3.8136 8.409 6.6257 16.497 2.7683 7.963 5.8569 15.301 10.658 25.321 6.1671 12.87 9.168 17.788 15.116 24.765 2.0535 2.408 2.1513 2.62 1.0082 2.185-0.698-0.264-3.3718-0.693-5.9412-0.946-2.5727-0.257-9.6637-1.094-15.76-1.861-13.288-1.671-25.002-2.218-29.46-1.374-4.2823 0.81-7.6406 2.897-9.0905 5.653-1.4263 2.702-1.0183 4.37 1.3757 5.623 1.3926 0.733 2.3569 0.81 7.1517 0.588 7.2359-0.338 12.338 0.236 22.062 2.489 4.3834 1.016 10.604 2.154 13.828 2.532 3.2234 0.379 7.5192 1.111 9.5423 1.631 5.8265 1.49 8.9556 1.101 11.879-1.472 1.6589-1.455 3.4257-4.38 3.4257-5.66 0-0.78 11.512 6.714 13.224 8.605 0.7317 0.81 1.6488 4.025 3.6045 12.657 1.4432 6.366 4.0631 17.092 5.8198 23.836 4.7514 18.236 9.1854 38.141 8.6214 38.702-0.087 0.091-1.898-2.175-4.019-5.036-5.125-6.923-18.231-20.036-23.562-23.585-6.6324-4.411-12.665-6.444-19.391-6.532-4.7138-0.06-6.7066 0.558-8.8106 2.732-1.396 1.446-1.5814 1.925-1.5814 4.077 0 3.323 1.0958 4.809 7.799 10.556 7.5024 6.434 9.8728 7.93 19.22 12.124 14.003 6.282 19.031 8.882 21.937 11.341 1.5241 1.286 4.137 3.059 5.803 3.934s3.298 1.918 3.625 2.317c0.893 1.077 2.36 18.533 2.377 28.29 7e-3 4.586-0.199 10.624-0.455 13.42-0.257 2.797-0.891 10.834-1.41 17.869-0.519 7.031-1.554 17.473-2.303 23.2-1.237 9.477-1.878 12.459-7.1143 33.032-4.751 18.672-17.888 67.299-20.302 75.147-0.7586 2.466-0.671 2.719-2.1512-6.393-3.4528-21.272-10.716-37.644-22.956-51.754-10.965-12.634-18.852-21.833-19.877-23.173-1.0386-1.361-1.0891-1.638-0.5833-3.242 0.3034-0.963 1.3689-2.942 2.3704-4.397 3.9754-5.786 5.3174-10.851 4.879-18.385-0.4046-6.998-1.9186-10.209-4.8049-10.209-6.4233 0-10.921 8.368-10.888 20.245 7e-3 2.864-0.0371 5.208-0.1012 5.208-0.0607 0-2.8627-3.026-6.2244-6.727l-6.1165-6.728 2.748-6.578c1.5106-3.617 3.7225-9.183 4.9128-12.364 1.1903-3.184 3.1999-7.659 4.4643-9.952 5.459-9.871 6.2683-12.529 5.486-18.047-1.1195-7.933-6.5178-13.222-10.092-9.885-1.5679 1.465-2.249 3.455-3.7394 10.969-0.7384 3.731-2.2929 10.114-3.4561 14.187-2.7042 9.493-3.4764 13.832-3.7967 21.407-0.14162 3.371-0.30009 6.13-0.35404 6.13-0.2394 0-10.611-10.787-13.514-14.049l-3.2302-3.634 2.0096-3.539c2.303-4.046 2.3401-4.191 4.7813-19.736 2.4985-15.879 2.9807-21.333 2.6233-29.62-0.46869-10.881-1.8006-15.863-5.658-21.128-4.2114-5.748-9.1916-6.122-10.857-0.814-1.1768 3.739-0.7958 55.118 0.4788 64.51 0.1888 1.408 0.2225 2.543 0.0775 2.526-0.354-0.04-10.996-12.499-14.708-17.213-1.5882-2.02-4.1373-5.528-5.658-7.791-2.6907-4.002-2.7447-4.144-1.9186-4.971 1.3353-1.341 1.9793-5.964 1.9894-14.333 0.0101-8.706-1.2982-18.108-3.7461-26.935-2.3198-8.372-2.6941-10.166-4.1575-19.902-2.6503-17.635-3.4662-20.34-6.5919-21.89-1.4229-0.709-1.9793-0.757-3.6113-0.318-4.0226 1.088-8.4835 7.45-10.382 14.806-0.5698 2.218-0.7148 4.16-0.5428 7.402 0.2056 3.928 0.5631 5.339 3.3212 13.191 1.6994 4.836 3.5607 10.148 4.1373 11.803s1.5072 5.154 2.0669 7.781c1.0487 4.907 3.7596 13.296 5.776 17.862 0.6271 1.425 1.0452 2.587 0.9272 2.587s-0.9913-0.51-1.9388-1.139c-5.3612-3.546-21.074-5.94-27.818-4.241-10.26 2.58-17.088 9.388-17.088 17.024 0 3.265 1.2375 5.106 4.5015 6.707 3.6753 1.803 11.07 2.05 20.207 0.675 3.5573-0.533 8.7533-1.189 11.548-1.455 2.7953-0.267 6.7437-0.784 8.7736-1.149 2.0332-0.361 5.4017-0.631 7.4855-0.594l3.7899 0.061 1.4836 2.121c2.4176 3.444 8.0082 10.381 15.133 18.776 3.672 4.33 6.9393 8.183 7.2563 8.565 0.5158 0.614-1.4769 0.692-17.513 0.692h-18.097l-3.0009 1.57c-6.3998 3.34-11.397 8.355-12.722 12.773-1.7432 5.798 3.6855 7.46 15.248 4.67 4.38-1.057 14.445-2.722 27.218-4.498 5.4725-0.76 13.798-0.304 16.809 0.922 2.7379 1.114 5.1589 1.283 6.0491 0.415 0.48217-0.466 1.3926 0.27 4.7341 3.82 9.1006 9.665 18.117 19.827 28.61 32.244 6.0625 7.173 11.235 13.171 11.495 13.333 0.2596 0.159 0.6811 0.679 0.934 1.155 0.4484 0.845 0.4012 0.844-1.9861 4e-3 -8.1025-2.854-23.576-4.127-31.24-2.57-9.0163 1.83-14.769 7.331-14.792 14.146-0.01012 3.192 1.2004 5.336 3.5708 6.329 2.9099 1.216 10.655 0.898 19.975-0.821 6.2278-1.148 17.119-2.185 20.076-1.908 1.2644 0.119 3.6551-0.013 5.314-0.29 1.6556-0.277 4.7273-0.608 6.8212-0.736l3.8102-0.23 1.8545 2.877c2.8054 4.35 7.5968 14.34 9.3737 19.54 3.4933 10.223 6.4268 25.352 6.5043 33.555l0.054 5.323-3.8473 11.316c-2.1141 6.224-7.236 21.114-11.38 33.089-9.785 28.263-18.147 54.851-20.386 64.817-0.8801 3.911-3.709 21.907-4.6464 29.553l-0.7856 6.413-1.3791-2.711c-0.7553-1.49-2.8931-6.245-4.7442-10.564l-3.3651-7.852 1.5274-1.405c0.8396-0.77 1.6522-1.817 1.804-2.327 0.8328-2.776 3.1661-16.419 3.591-21.015 0.8598-9.247-0.7418-30.026-2.8357-36.821-1.1094-3.6-6.973-18.821-10.969-28.479-5.6951-13.765-17.699-39.536-22.167-47.587-13.16-23.721-20.851-37.442-23.394-41.731-5.8232-9.834-11.798-22.944-19.887-43.673-3.9012-9.983-6.1536-13.147-8.4768-11.901-1.1498 0.615-1.2273 0.905-2.1343 8.112-0.8127 6.437-0.8936 15.028-0.226 23.822 0.4788 6.268 4.1541 29.064 6.275 38.908 0.6306 2.928 1.9726 10.114 2.9807 15.967 2.8391 16.453 3.8878 19.803 12.206 38.877 5.078 11.641 5.9884 13.445 12.56 24.896 6.7538 11.766 10.402 17.74 16.785 27.487 6.2885 9.601 11.704 20.222 18.845 36.955 8.3116 19.483 15.878 35.842 19.304 41.755l3.0617 5.285-0.3035 2.999c-0.8362 8.173-1.1599 20.425-0.7418 28.098 0.4552 8.375 0.8632 10.182 2.2288 9.922 0.6609-0.129 0.8194-1.037 1.0722-6.16 0.1585-3.307 0.317-8.453 0.344-11.435l0.0539-5.424 2.7784-5.454c1.5308-2.999 4.1912-7.43 5.9142-9.848l3.1358-4.397 1.9186 0.146c2.2052 0.165 18.666-3.023 24.773-4.799 10.244-2.979 31.54-6.65 44.154-7.609 8.369-0.635 9.771-0.858 23.353-3.674 26.317-5.461 35.02-8.139 49.853-15.346 6.164-2.995 28.054-15.403 32.447-18.391 5.193-3.536 15.076-13.381 19.591-19.517 5.806-7.895 8.139-12.242 20.015-37.256 9.805-20.655 12.206-25.335 17.773-34.686 6.71-11.27 10.564-19.047 11.582-23.367 0.253-1.07 0.172-2.083-0.253-3.096-2.289-5.492-12.493 0.607-34.184 20.428-3.557 3.252-10.52 9.466-15.473 13.809-4.953 4.346-11.505 10.303-14.556 13.238-5.803 5.589-28.779 24.893-37.04 31.123-10.625 8.018-25.74 17.534-41.716 26.274-9.664 5.286-31.149 14.947-44.785 20.141-11.616 4.424-16.866 6.863-25.454 11.814-13.747 7.926-20.794 13.066-27.7 20.195-4.5115 4.66-9.4748 11.131-12.918 16.848l-2.3535 3.907 0.2933-3.009c1.6556-17.074 5.5366-39.525 9.2389-53.415 2.3097-8.68 4.0462-12.398 10.274-21.989 7.3708-11.36 19.405-25.845 21.253-25.581 0.5395 0.077 1.7735-0.264 2.7413-0.757 0.9677-0.493 3.4056-1.357 5.4152-1.918 4.6598-1.307 8.2205-1.128 17.59 0.885 6.737 1.445 7.182 1.482 16.165 1.313 8.285-0.155 9.515-0.28 11.903-1.225 4.42-1.75 6.804-4.364 6.804-7.46 0-2.706-3.443-4.972-9.812-6.464-10.601-2.482-23.812-2.415-32.717 0.172-1.9928 0.577-3.5202 0.888-3.3988 0.689 0.1214-0.196 7.3371-5.751 16.033-12.34 8.693-6.589 19.237-14.636 23.428-17.878l7.624-5.9 4.848 0.212c3.989 0.176 5.463 0.46 8.312 1.601 9.741 3.897 12.914 4.37 20.774 3.094 5.078-0.828 9.249-2.168 20.103-6.468 17.8-7.048 23.323-11.151 23.323-17.324 0-4.286-2.199-6.2-7.051-6.13-3.672 0.051-6.335 0.892-17.887 5.633-12.645 5.194-13.565 5.458-22.17 6.322-3.939 0.396-9.398 1.284-12.132 1.969-2.735 0.689-4.707 1.007-4.387 0.706 0.32-0.297 2.765-2.408 5.432-4.684 6.275-5.356 12.483-11.56 16.934-16.919 3.25-3.914 3.766-4.34 6.126-5.052 1.416-0.426 5.459-1.118 8.986-1.537 8.318-0.99 11.802-2.07 14.394-4.468 4.886-4.515 5.122-9.898 0.526-11.989-1.065-0.483-2.572-0.884-3.351-0.891-3.042-0.021-8.592 2.276-13.13 5.434l-1.157 0.803 0.735-1.155c0.405-0.638 1.892-3.137 3.308-5.555 2.381-4.066 2.772-4.492 5.196-5.684 4.016-1.972 7.452-2.603 18.245-3.346 21.219-1.459 31.78-3.337 39.65-7.042 6.059-2.85 6.926-9.793 1.611-12.924-2.147-1.266-2.464-1.317-8.008-1.28-8.439 0.051-18.993 1.895-26.03 4.549-4.239 1.601-16.246 7.112-18.886 8.673-1.268 0.749-2.364 1.3-2.431 1.225-0.401-0.445 15.129-26.966 20.676-35.311 7.347-11.049 8.905-12.981 11.775-14.592 1.463-0.821 4.319-2.594 6.352-3.941 2.033-1.348 5.773-3.583 8.312-4.971 2.542-1.385 5.762-3.161 7.162-3.941 4.727-2.648 9.302-4.313 16.788-6.103 19.54-4.681 31.648-7.95 34.342-9.277 3.079-1.516 5.543-4.015 7.061-7.152 1.75-3.624 1.052-6.231-2.506-9.369-4.545-4.008-11.187-6.203-18.791-6.203-6.973 0-12.327 1.648-17.496 5.379-1.143 0.824-5.26 3.624-9.148 6.221-3.888 2.6-9.185 6.427-11.775 8.51-4.757 3.827-13.885 12.607-17.267 16.609l-1.841 2.175 0.206-7.035c0.206-7.017-0.189-11.259-2.013-21.617-1.73-9.824-5.661-17.459-10.709-20.813-3.837-2.543-8.099-1.486-9.789 2.428-1.197 2.77-2.505 12.739-2.195 16.734 0.135 1.8 1.086 6.916 2.108 11.371 2.809 12.242 3.004 13.596 2.977 20.597-0.017 5.079-0.286 7.828-1.251 12.725-0.678 3.438-1.547 8.122-1.935 10.415-0.412 2.441-1.356 5.616-2.283 7.676-0.867 1.928-1.736 4.221-1.932 5.093-0.196 0.874-2.644 5.646-5.435 10.607l-5.082 9.02-0.334-4.167c-0.913-11.418-2.323-17.223-6.018-24.754-3.119-6.359-7.563-11.054-12.864-13.593-4.407-2.114-6.993-2.496-9.188-1.361-1.926 0.993-3.696 4.174-3.696 6.643 0 2.401 1.572 8.223 3.406 12.623 13.113 31.448 14.242 34.727 14.323 41.502 0.048 4.076-0.064 4.636-1.5 7.713-0.853 1.824-1.43 3.512-1.285 3.752 0.348 0.557-4.349 7.467-8.719 12.833-4.269 5.238-13.761 14.643-20.039 19.854-2.64 2.195-4.849 3.938-4.906 3.87-0.054-0.067 0.263-2.516 0.705-5.444 1.46-9.665 2.825-13.772 9.161-27.537 3.84-8.348 4.828-12.313 4.882-19.59l0.047-6.17-1.298-1.122c-2.084-1.8-3.385-1.482-6.319 1.544-5.455 5.629-11.241 15.791-13.635 23.95-1.157 3.938-1.251 5.039-1.74 20.131-0.283 8.784-0.53 17.146-0.543 18.581l-0.02 2.617-3.696 2.78c-4.231 3.184-17.543 13.464-21.812 16.848l-2.876 2.28 0.735-1.766c0.404-0.973 1.412-3.121 2.242-4.776 2.09-4.181 5.536-13.039 6.892-17.733 3.116-10.773 2.434-18.959-1.703-20.415-2.974-1.05-6.052 2.307-8.241 8.99-0.542 1.655-2.013 5.684-3.264 8.956-1.25 3.273-2.99 8.926-3.867 12.567-0.8733 3.637-2.6065 9.709-3.854 13.488-1.2409 3.779-2.5357 7.993-2.8729 9.365-0.5833 2.37-0.8362 2.671-5.2432 6.213-9.5524 7.68-23.576 22.948-32.42 35.301-2.1175 2.959-3.8507 5.299-3.8507 5.204 0-0.432 7.8598-23.524 13.285-39.029 11.461-32.761 14.499-42.241 20.599-64.33 8.3082-30.06 10.925-39.911 17.156-64.561 13.858-54.851 19.462-71.892 31.688-96.382 6.44-12.891 7.398-14.353 10.46-15.964 1.456-0.767 4.002-1.824 5.651-2.347 6.774-2.155 26.91-4.201 50.345-5.12 7.806-0.307 8.767-0.439 11.127-1.526 3.587-1.652 4.808-3.472 4.808-7.173 0-3.404-0.887-4.883-3.969-6.623-1.76-0.993-2.741-1.172-7.249-1.324-13.147-0.435-35.559 5.073-52.628 12.935-2.168 0.999-3.742 1.557-3.496 1.232 0.246-0.32 2.384-3.188 4.751-6.372 6.777-9.101 17.365-22.019 18.646-22.745 1.079-0.611 10.024-2.246 12.297-2.246 3.915 0 11.029 0.912 16.407 2.101 2.792 0.618 6.845 1.452 9.007 1.85 2.158 0.399 8.53 1.757 14.165 3.016 5.631 1.26 11.042 2.29 12.027 2.29 2.408 0 6.848-1.199 9.077-2.449 3.281-1.843 4.468-5.947 2.606-9.01-1.106-1.817-5.206-4.528-8.736-5.771-6.932-2.449-20.73-3.887-33.068-3.455-10.506 0.368-17.22 1.685-24.075 4.725-3.176 1.408-3.695 2.107 7.22-9.74 4.697-5.099 11.036-12.171 14.084-15.714 7.684-8.932 13.666-15.619 17.432-19.496l3.197-3.289 2.411 0.983c1.328 0.54 3.752 1.999 5.391 3.238 3.365 2.55 5.958 3.813 11.292 5.488 4.35 1.368 18.849 3.414 20.768 2.932 0.724-0.183 2.009-1.027 2.859-1.878 1.254-1.256 1.544-1.908 1.544-3.462 0-5.39-4.403-8.402-19.142-13.099-5.732-1.828-6.322-1.922-11.919-1.946-3.241-0.013-5.887-0.145-5.887-0.29 0-0.149 0.482-0.723 1.072-1.277 0.863-0.814 1.966-1.097 5.658-1.459 9.677-0.942 15.611-0.341 27.679 2.81 7.192 1.878 17.038 2.378 22.568 1.145 4.319-0.962 8.743-3.131 10.001-4.9 2.505-3.526 2.31-6.251-0.691-9.598-5.19-5.782-17.345-8.578-28.877-6.639-8.173 1.374-20.841 5.308-26.449 8.213-1.358 0.702-1.365 0.702-0.687-0.267 0.377-0.54 3.675-4.221 7.33-8.186 3.652-3.965 7.411-8.136 8.352-9.27 0.941-1.135 6.363-6.893 12.051-12.796 5.685-5.903 12.219-12.799 14.522-15.329 3.888-4.265 4.482-4.724 8.275-6.413 13.706-6.096 21-8.301 35.482-10.736 13.197-2.219 23.154-5.079 31.355-9 8.578-4.1 12.61-10.648 9.417-15.288-1.537-2.232-5.58-4.498-10.045-5.626-3.341-0.845-4.754-0.956-9.468-0.733-8.004 0.375-13.17 1.82-21.708 6.085-15.524 7.751-20.554 11.361-30.768 22.08-14.512 15.237-25.336 26.058-24.928 24.926 0.23-0.638 1.767-4.488 3.419-8.561 5.935-14.633 8.723-24.45 8.811-31.008 0.054-4.093-0.546-5.812-2.556-7.301-1.045-0.774-1.446-0.831-2.792-0.385-2.202 0.729-5.863 4.64-8.895 9.499-3.092 4.958-3.783 7.119-4.43 13.867-1.1 11.452-6.208 27.668-12.776 40.549-4.08 8.003-4.684 8.922-9.31 14.116-2.721 3.053-7.536 8.568-10.705 12.252-3.167 3.685-9.293 10.54-13.609 15.228-4.32 4.69-11.454 12.714-15.855 17.827-10.766 12.513-11.444 13.11-6.612 5.833 4.906-7.396 10.605-17.754 12.577-22.863 0.776-2.013 2.216-6.697 3.2-10.415 0.985-3.715 2.947-10.193 4.367-14.394 5.256-15.565 8.095-27.388 8.095-33.7 0-3.613-0.937-7.848-2.104-9.52-1.038-1.486-3.122-2.594-4.875-2.597-3.173-7e-3 -4.765 2.57-7.752 12.543-2.492 8.311-3.547 11.323-7.122 20.313-3.746 9.429-10.267 30.205-11.167 35.581-0.368 2.195-0.87 9.926-1.119 17.18-0.25 7.254-0.665 13.815-0.924 14.579-0.26 0.763-0.425 1.742-0.371 2.178 0.06 0.466-4.175 5.481-10.386 12.296-21.347 23.424-33.586 39.191-42.822 55.175-1.544 2.671-2.809 4.711-2.809 4.532 0-0.182 0.439-1.428 0.978-2.776 3.406-8.547 11.033-34.811 11.033-38.006 0-4.35-5.624-1.263-10.271 5.637-3.702 5.498-5.644 9.942-7.924 18.121-3.176 11.405-3.978 16.916-4.245 29.158l-0.229 10.412-2.482 6.018c-3.321 8.044-6.18 16.068-9.127 25.629-1.346 4.349-2.502 7.723-2.58 7.5-0.148-0.432 1.501-21.566 2.222-28.503 0.863-8.273 1.039-17.723 0.503-27.074-1.022-17.817-1.524-22.941-3.338-33.943l-0.901-5.478 3.17-7.936 3.173-7.94 1.773 0.156c2.239 0.192 7.766-0.585 14.321-2.013 2.795-0.611 6.794-1.415 8.891-1.79 6.171-1.104 8.639-3.37 7.256-6.663-1.399-3.333-5.85-3.968-15.625-2.219-3.776 0.676-6.969 1.125-7.094 1s0.87-1.391 2.215-2.817c2.327-2.465 8.271-6.484 21.839-14.764 6.38-3.891 11.856-8.517 14.139-11.945 4.386-6.582 4.133-17.355-0.459-19.685-2.61-1.321-9.92-0.048-15.483 2.695-3.585 1.769-7.86 5.565-10.558 9.374-2.026 2.864-15.176 27.973-20.275 38.712-1.51 3.181-3.783 8.494-5.047 11.803-1.265 3.306-2.509 6.535-2.758 7.173-0.381 0.963-1.174-1.729-4.765-16.2-5.887-23.71-5.6611-22.393-4.6732-27.236 1.2274-6.011 3.1562-11.368 6.5142-18.085 2.3-4.596 3.237-6.051 3.912-6.051 0.485 0 2.303-0.953 4.036-2.121 1.736-1.169 5.809-3.445 9.056-5.059 6.609-3.293 9.179-5.049 12.635-8.639 5.873-6.099 7.677-9.56 10.982-21.086 3.146-10.969 3.507-12.742 3.507-17.301 0-3.519-0.075-3.79-1.4-5.117-1.23-1.232-1.608-1.364-3.119-1.087-5.368 0.983-15.294 10.317-19.459 18.294-0.994 1.908-3.196 6.7-4.889 10.644-2.633 6.133-8.932 18.281-9.293 17.919-0.064-0.064 0.324-2.506 0.86-5.43 0.826-4.505 0.981-7.176 1.008-17.578 0.027-10.51-0.091-12.745-0.826-15.619-1.352-5.295-4.188-8.5-6.912-7.815-1.591 0.399-2.134 2.243-2.66 9.031-0.358 4.616-0.29 7.088 0.347 12.728 0.573 5.055 0.799 11.003 0.819 21.421 0.014 7.933 0.162 14.559 0.327 14.724 0.166 0.166-0.819 2.658-2.185 5.539-2.4948 5.261-5.2664 12.839-5.2799 14.44-3e-3 0.47-0.1821 1.135-0.3979 1.476-0.2461 0.388-1.3757-4.478-3.0144-12.958-1.4431-7.47-4.2789-21.938-6.302-32.15-2.0197-10.216-3.7967-19.797-3.945-21.289-0.2327-2.351-0.0405-3.374 1.4263-7.575 0.9306-2.672 3.3786-8.153 5.4354-12.175l3.7427-7.315 4.9398-2.532c4.282-2.196 5.456-3.07 8.804-6.569 5.112-5.339 10.341-12.384 15.328-20.644 4.66-7.727 6.757-12.931 7.101-17.642 0.209-2.8708 0.112-3.4246-0.859-4.8599-4.057-5.9977-11.414-2.7996-18.616 8.0979-3.274 4.955-4.155 6.792-8.302 17.355-2.0803 5.296-6.5615 15.049-10.844 23.603-4.0125 8.017-7.6642 15.724-8.1093 17.125-0.8564 2.685-1.6219 3.955-1.6219 2.689 0-0.406-0.3-3.624-0.6676-7.15-1.9759-18.956-2.2861-41.403-0.7991-57.553 0.5496-5.9804 1.1093-11.532 1.2442-12.336s1.1262-2.5599 2.1984-3.9039c6.4301-8.0612 11.198-15.896 12.992-21.364 0.3979-1.2091 1.6455-7.352 2.7751-13.654 1.1295-6.3017 3.0922-16.558 4.3602-22.796 1.271-6.2375 2.448-13.11 2.616-15.271 0.411-5.1974-0.293-9.1351-1.878-10.53-1.554-1.3677-2.468-1.3137-4.643 0.26342zm3.196 9.108c-0.04 4.1877-0.468 7.1426-2.4205 16.663-1.3049 6.3625-3.2066 16.551-4.2249 22.64-1.9624 11.712-2.9571 14.964-6.2447 20.438-1.8107 3.009-7.6203 10.955-7.8462 10.729-0.081-0.081 0.4484-4.9306 1.1767-10.776 0.7283-5.8492 1.4668-12.715 1.6387-15.261 0.1754-2.5463 0.6002-5.8762 0.9408-7.406 0.3439-1.5265 1.5713-8.4495 2.7278-15.386 1.4297-8.5576 2.4547-13.39 3.1898-15.042 1.2475-2.7962 4.1271-6.8015 7.6776-10.682 2.2119-2.4146 2.5189-2.6071 2.9499-1.8507 0.267 0.46267 0.462 3.134 0.435 5.9335zm-60.413 35.048c1.7399 3.8871 5.4354 11.543 8.2205 17.017 2.7818 5.4743 5.5568 11.408 6.1671 13.191 1.6354 4.782 2.2558 11.735 1.5241 17.024-0.3237 2.3471-0.7148 5.3054-0.8665 6.5786l-0.2765 2.3129-0.9813-2.3129c-1.2408-2.9246-2.8862-8.0544-5.051-15.734-2.131-7.5647-6.9527-21.374-9.7378-27.888-3.6989-8.6487-5.2702-14.295-5.223-18.783l0.0168-1.925 1.5241 1.7291c0.8396 0.9523 2.9436 4.8968 4.6835 8.7906zm83.359 52.19c1.413 1.4184 1.234 5.1329-0.472 9.8209-2.731 7.5-12.419 22.279-19.621 29.921-2.944 3.127-9.4647 8.547-9.8322 8.179-0.0843-0.084 1.1869-2.833 2.8256-6.112 1.6387-3.276 4.3636-9.497 6.0526-13.819 4.508-11.527 6.059-14.941 8.611-18.933 3.541-5.538 8.309-9.8843 10.932-9.9654 0.32-0.0067 0.995 0.4019 1.504 0.9085zm233.94 20.992c3.409 0.909 6.319 2.327 7.567 3.688 2.427 2.648-0.304 7.011-6.39 10.219-3.669 1.932-14.84 5.802-20.578 7.126-2.287 0.53-7.793 1.513-12.24 2.185-10.173 1.54-18.501 3.671-25.748 6.592-3.112 1.253-5.658 2.205-5.658 2.114s1.96-2.631 4.354-5.643c5.991-7.538 11.201-11.364 26.172-19.213 7.826-4.103 11.69-5.643 17.044-6.791 4.694-1.003 12.244-1.138 15.477-0.277zm-77.647 6.123c1.406 3.667-1.615 16.024-7.573 30.971-6.029 15.13-8.675 20.341-12.358 24.326-1.648 1.786-3.078 3.171-3.176 3.073-0.094-0.098 0.631-1.925 1.615-4.066 1.831-3.985 6.899-19.557 8.123-24.95 0.374-1.655 1.018-5.613 1.43-8.794 1.136-8.781 3.011-13.137 7.998-18.584 2.549-2.79 3.456-3.246 3.941-1.976zm-248.35 14.42c1.224 1.972 4.643 6.849 7.5967 10.837 6.4807 8.757 11.933 17.284 14.351 22.455 2.8256 6.045 3.7157 10.05 3.7798 17.044 0.0607 6.741-0.4822 12.414-1.1498 12.002-0.2428-0.148-1.5814-2.549-2.9739-5.332-5.0747-10.138-10.25-22.515-14.222-33.991-1.4094-4.083-3.6213-9.689-4.9161-12.461-3.2808-7.045-5.7355-14.134-4.8892-14.134 0.1079-3e-3 1.2004 1.611 2.4244 3.58zm188.03 21.617c1.295 1.648 2.127 6.211 1.814 9.939-0.452 5.417-3.483 17.281-7.266 28.449-1.993 5.879-4.478 13.92-5.524 17.868-1.045 3.944-2.677 8.943-3.631 11.107-1.821 4.134-9.708 18.385-11.269 20.364l-0.913 1.155 0.303-4.859c0.752-12.023 1.295-18.034 1.882-20.827 1.132-5.407 7.994-26.622 11.255-34.805 1.756-4.4 4.063-10.813 5.125-14.251 1.065-3.434 2.451-7.909 3.078-9.942 1.653-5.35 3.231-6.636 5.146-4.198zm-76.106 7.842c0 4.218-4.633 23.967-6.487 27.651-1.754 3.486-4.913 7.592-8.015 10.412-2.863 2.604-5.442 4.11-13.366 7.811-1.99 0.929-4.475 2.452-5.523 3.388l-1.905 1.702 1.079-1.854c0.593-1.017 2.852-4.87 5.017-8.561 4.184-7.136 5.783-10.334 10.227-20.486 1.534-3.502 3.543-7.565 4.467-9.024 2.968-4.684 11.974-12.991 14.159-13.055 0.189-0.014 0.347 0.898 0.347 2.016zm-36.898 3.512c0.907 3.597 0.964 4.728 0.735 14.565-0.233 9.993-0.617 13.793-2.306 22.701-0.597 3.165-0.611 3.036-0.587-5.555 0.017-4.836-0.159-14.103-0.388-20.594-0.448-12.728-0.212-16.794 0.911-15.666 0.357 0.355 1.095 2.404 1.635 4.549zm178 31.944c11.468 2.938 15.45 8.463 8.73 12.11-4.225 2.293-7.246 2.922-13.811 2.874-5.479-0.037-6.774-0.226-14.779-2.168-4.828-1.168-10.129-2.367-11.778-2.661-3.095-0.547-13.076-0.689-13.871-0.196-0.246 0.152-0.449 0.155-0.449 7e-3 0-0.149 1.598-1 3.551-1.891 16.023-7.319 32.855-10.523 42.407-8.075zm-243.63 16.389c5.2129 0.642 11.866 1.307 14.782 1.476 2.9638 0.172 6.5211 0.689 8.0722 1.165 1.524 0.473 3.5337 0.861 4.4643 0.865 2.8863 0.01 3.1526 0.32 1.6994 1.989-0.7148 0.817-1.8781 2.185-2.5896 3.036-1.7432 2.087-4.2182 2.374-8.9522 1.043-1.9152-0.54-6.0592-1.3-9.2119-1.688-3.1527-0.389-9.3703-1.564-13.814-2.611-7.8598-1.854-8.3521-1.911-17.783-2.09-5.3343-0.102-9.9537-0.27-10.267-0.375-1.5881-0.53 1.7567-3.026 5.2399-3.907 2.984-0.76 18.022-0.176 28.36 1.097zm206.31 4.411c6.326 1.948 13.7 4.981 15.858 6.521 2.566 1.83 2.984 5.315 0.769 6.379-1.11 0.53-2.364 0.473-8.777-0.402-12.017-1.638-17.105-3.417-22.187-7.76-1.483-1.267-3.631-2.661-4.774-3.097l-2.077-0.797 2.818-2.918 6.134 0.098c5.722 0.091 6.548 0.223 12.236 1.976zm-88.258 0.114c0.604 0.98 0.756 7.491 0.219 9.473-0.286 1.061-1.21 2.935-2.056 4.168-1.794 2.607-7.793 7.612-12.49 10.425-6.113 3.657-18.511 11.607-20.325 13.032-0.991 0.78-2.553 2.6-3.463 4.042-2.984 4.718-2.903 4.448 0.89-2.971 6.353-12.428 12.463-23.522 14.907-27.071 3.834-5.566 8.956-9.372 14.695-10.919 3.081-0.83 7.161-0.925 7.623-0.179zm-212.39 43.994c1.0992 1.358 2.1681 6.005 4.2754 18.628 1.4365 8.595 2.8324 15.329 3.8777 18.723 0.9002 2.914 2.1782 8.615 2.8458 12.667 1.0959 6.643 1.1936 8.217 0.9913 15.991-0.1214 4.742-0.4147 9.23-0.6507 9.979-0.4249 1.351-0.4418 1.334-2.6301-2.461-5.078-8.825-8.9623-18.639-10.692-27.014-0.8025-3.874-3.2167-12.485-5.749-20.479-0.9677-3.056-1.8916-6.514-2.0602-7.689-0.88-6.255 4.8049-18.922 8.4937-18.922 0.4552 0 1.0419 0.26 1.2982 0.577zm195.84 2.83c0.988 0.615 0.601 1.557-0.94 2.29-0.827 0.392-3.794 1.033-6.592 1.425-2.799 0.392-6.012 1.037-7.142 1.435-1.126 0.399-3.996 0.926-6.376 1.175-2.381 0.247-4.882 0.564-5.564 0.71-1.207 0.253-1.2 0.229 0.385-1.193 3.105-2.789 5.162-3.65 12.047-5.045 3.662-0.746 7.388-1.422 8.275-1.506 1.878-0.179 5.095 0.209 5.907 0.709zm81.386 4.042c10.848 1.057 19.614 3.989 21.068 7.042 1.456 3.059-0.503 4.924-6.245 5.937-2.357 0.415-3.51 0.246-12.749-1.854-5.584-1.27-12.132-2.661-14.543-3.09-2.414-0.429-6.467-1.263-9.009-1.854-6.063-1.405-11.077-2.064-16.354-2.148-3.837-0.058-4.174-0.132-3.149-0.669 3.648-1.918 13.063-3.694 21.121-3.992 4.97-0.185 14.705 0.122 19.86 0.628zm-161.31 3.891c3.5876 0.848 9.1073 3.6 13.032 6.497 4.343 3.209 17.648 16.764 22.086 22.506 4.4847 5.798 6.7337 9.516 5.4587 9.027-0.448-0.173-0.981-0.315-1.18-0.315-0.202 0-1.902-1.374-3.7729-3.056-3.672-3.299-7.8126-5.508-21.651-11.543-9.6435-4.204-13.592-6.619-18.869-11.529-6.447-6.001-8.0419-8.24-7.2832-10.219 0.7519-1.966 6.7841-2.645 12.179-1.368zm76.773 19.942c-0.776 3.286-2.313 8.993-3.419 12.684s-2.327 8.065-2.708 9.72c-0.387 1.654-2.384 7.483-4.437 12.957l-3.739 9.949 0.259-4.859c0.391-7.383 1.44-14.117 3.18-20.435 2.542-9.213 4.576-14.866 6.663-18.503 2.222-3.884 5.111-7.987 5.408-7.687 0.111 0.112-0.431 2.888-1.207 6.174zm70.117 4.596c2.678 0.797 3.794 2.04 3.794 4.218 0 2.209-0.405 2.898-2.249 3.823-2.607 1.307-4.057 1.53-9.654 1.479-5.931-0.054-37.306 2.29-39.825 2.972-0.381 0.105-2.771 0.5-5.31 0.881-2.543 0.379-6.127 1.206-7.968 1.841-1.841 0.631-3.348 1.06-3.348 0.952 0-0.361 6.447-3.461 11.464-5.515 13.599-5.562 26.506-8.925 42.344-11.033 3.412-0.456 8.551-0.273 10.752 0.382zm-221.18 7.987c2.2153 2.337 4.4744 6.687 5.3646 10.327 0.40798 1.679 0.83958 6.177 0.99131 10.368 0.28324 7.737-0.21242 13.407-2.2119 25.426-0.50577 3.039-1.3049 8.585-1.7803 12.323-0.65414 5.181-1.143 7.356-2.0433 9.135-0.6508 1.287-1.369 2.455-1.5949 2.594-1.2577 0.783-2.5457-24.876-2.5828-51.559-0.0202-12.914 0.1214-17.304 0.5901-18.628 0.3372-0.955 0.8362-1.735 1.1093-1.735s1.2442 0.786 2.158 1.749zm-54.455 26.669c7.6373 1.33 10.379 2.357 14.546 5.444 1.7803 1.317 3.8574 2.85 4.6194 3.411 0.762 0.557 1.868 1.877 2.4547 2.928l1.0689 1.914h-3.9249c-2.1579 0-5.341 0.294-7.0741 0.652-1.7297 0.358-5.432 0.885-8.2273 1.169-2.7952 0.287-7.5765 0.955-10.625 1.486-9.9942 1.749-17.851 1.06-20.059-1.753-1.197-1.526-1.2004-2.715-0.0135-5.89 1.5679-4.201 5.405-7.142 12.223-9.375 4.1271-1.35 7.1888-1.35 15.011 0.014zm283.14 12.546c1.477 0.766 4.427 4.471 5.887 7.399 1.554 3.117 2.859 7.997 4.147 15.504 1.032 6.018 1.231 8.551 1.228 15.734-7e-3 11.709-0.408 12.894-7.927 23.448-3.055 4.285-6.232 8.885-7.061 10.222-0.826 1.338-1.548 2.432-1.602 2.432-0.209 0 0.388-2.746 1.656-7.639 2.016-7.761 2.734-12.759 2.734-18.973 0-6.163-0.563-10.047-3.034-20.945-2.162-9.523-2.354-12.786-1.194-20.242 0.769-4.937 1.116-6.153 1.942-6.825 1.224-0.993 1.508-1.003 3.224-0.115zm-194.77 4.924c1.6083 3.147 2.1175 7.642 1.2341 10.813-0.3271 1.162-1.7298 4.029-3.1223 6.373-3.0819 5.194-4.6195 8.537-7.2563 15.808-2.2456 6.18-3.9248 10.145-4.1878 9.882-0.2394-0.24 0.97448-8.663 1.8545-12.864 0.4013-1.908 1.5646-6.433 2.5896-10.057 1.0217-3.624 2.3704-9.246 2.9942-12.495 1.5747-8.227 2.3367-10.398 3.5809-10.219 0.6642 0.098 1.4162 0.992 2.3131 2.759zm273.51 7.109c3.908 0.824 8.416 2.968 10.618 5.048 2.178 2.06 2.208 4.049 0.104 6.825-2.549 3.367-4.434 4.046-26.482 9.541-17.342 4.319-21.047 5.393-24.837 7.193-2.448 1.162-5.021 2.513-5.716 3.002-0.691 0.487-3.961 2.395-7.263 4.235-3.304 1.841-6.406 3.691-6.892 4.113-1.497 1.287-0.411-0.273 3.005-4.326 6.012-7.132 26.256-26.334 29.52-28.003 0.941-0.479 3.558-1.999 5.82-3.373 7.539-4.59 14.347-5.9 22.123-4.255zm-310.05 27.013c1.1767 0.378 2.7851 1.726 5.196 4.346 1.9152 2.087 3.4865 3.941 3.4865 4.117s-1.2982-0.216-2.8863-0.868c-2.3772-0.979-3.8675-1.229-8.4296-1.411-3.0482-0.122-7.3102 3e-3 -9.4682 0.276-6.4874 0.824-23.943 3.671-28.637 4.674-2.4143 0.517-5.5838 0.943-7.0438 0.946-2.2389 7e-3 -2.657-0.122-2.657-0.814 0-2.506 6.3559-8.406 11.458-10.638 2.448-1.07 8.1498-1.378 23.647-1.27 8.9894 0.061 14.206 0.281 15.335 0.642zm47.917 9.935c2.5559 7.764 0.961 16.569-4.1136 22.681-1.0285 1.24-1.868 2.644-1.868 3.127 0 1.22-0.6879 1.091-1.8141-0.344-0.8531-1.091-0.9576-1.854-0.9576-7.102 0-8.973 2.3771-16.987 5.6276-18.973 2.0905-1.276 2.5323-1.188 3.1257 0.611zm138.22 15.11c7.084 2.674 12.111 9.125 15.51 19.901 2.3 7.291 2.579 9.331 2.61 19.003l0.027 9.047-3.166 5.529c-1.74 3.042-3.301 5.677-3.467 5.859-0.165 0.179-0.317-1.28-0.337-3.242-0.04-4.427-1.956-11.432-5.725-20.921-9.135-23.015-11.377-29.786-10.942-33.042 0.243-1.807 1.248-3.06 2.462-3.06 0.323 0 1.686 0.416 3.028 0.926zm-220.76 29.62c5.6849 13.012 9.9132 21.391 15.888 31.472 2.7885 4.711 9.3737 16.487 14.63 26.172 7.4181 13.657 11.279 21.445 17.217 34.71 9.3231 20.83 20.11 47.905 22.119 55.517 2.0299 7.693 3.1797 31.201 1.9287 39.36-1.4465 9.402-2.276 13.295-2.684 12.566-0.7418-1.327-2.6671-9.351-3.8506-16.058-1.3757-7.764-5.9547-24.724-8.5375-31.603-4.2721-11.384-14.647-35.639-16.967-39.671-0.65751-1.145-2.8324-4.319-4.8352-7.052-10.557-14.416-17.321-27.486-24.223-46.823-2.9403-8.24-6.6358-20.847-8.0149-27.348-0.5429-2.546-1.5848-7.024-2.3198-9.952-1.2914-5.15-2.2726-10.996-4.1744-24.927-0.9373-6.869-1.0115-7.72-0.5765-6.545 0.1416 0.382 2.1208 4.965 4.4002 10.182zm-6.5616 8.291c0.7654 5.451 1.8882 11.904 2.4985 14.346 0.607 2.442 1.5612 6.731 2.1176 9.53 1.2104 6.103 4.7408 18.713 7.3877 26.379 6.865 19.915 14.772 35.699 24.476 48.867 2.0164 2.735 4.2789 6.018 5.0275 7.291 2.6266 4.468 14.92 33.291 17.891 41.957 2.5862 7.534 7.29 25.062 6.5212 24.302-0.1281-0.128-1.2206-2.523-2.4277-5.326-5.0746-11.759-9.1343-19.209-17.648-32.396-6.093-9.433-17.51-29.023-21.037-36.098-2.7986-5.613-9.2961-20.422-11.71-26.68-2.5019-6.49-3.8-11.573-5.7388-22.468-1.0048-5.653-2.4446-13.177-3.1999-16.716-1.7331-8.159-4.9903-26.203-5.8198-32.252-0.3507-2.546-0.7384-7.959-0.8632-12.032l-0.2327-7.406 0.6845 4.397c0.3743 2.418 1.3083 8.854 2.0737 14.305zm306.55-3.13c1.821 0.567 2.583 1.84 2.185 3.654-1.042 4.755-17.129 8.611-40.411 9.695-8.676 0.402-12.887 0.943-16.394 2.097-2.488 0.821 4.454-3.073 10.159-5.697 13.781-6.335 19.641-8.24 29.436-9.56 8.801-1.186 11.701-1.219 15.025-0.189zm-220.43 4.383c8.8207 1.327 17.709 4.35 19.509 6.636 2.0805 2.644 2.0535 2.665-3.6618 2.989-2.8762 0.159-7.2022 0.273-9.6131 0.246-5.2567-0.054-12.854 0.693-19.169 1.878-6.565 1.233-13.433 1.635-16.273 0.952-2.8357-0.678-3.5506-1.827-2.8155-4.505 2.2086-8.027 13.649-10.955 32.022-8.196zm124.26 13.775c-0.648 7.565-1.801 11.442-6.491 21.806-1.841 4.073-3.702 8.446-4.131 9.72-1.412 4.184-3 11.495-3.456 15.919-0.317 3.08-0.806 5.079-1.672 6.856-0.671 1.378-1.275 2.442-1.342 2.36-0.064-0.077 0.152-1.914 0.479-4.076 0.327-2.164 0.822-8.932 1.099-15.041 0.6-13.218 1.072-16.856 2.832-21.692 2.667-7.341 11.121-20.776 12.523-19.908 0.314 0.196 0.368 1.611 0.159 4.056zm46.43 12.337c2.411 1.29-0.29 6.464-4.188 8.027-1.993 0.801-8.298 1.885-13.625 2.344l-3.231 0.277 2.539-2.34c6.845-6.309 15.221-10.071 18.505-8.308zm-239.53 6.963c-0.172 0.274 0.2799 1.159 1.0014 1.966 5.54 6.2 9.4142 9.648 9.4142 8.385 0-0.472-5.1758-7.358-6.8482-9.118-1.6455-1.726-2.9807-2.188-3.5674-1.233zm152.55 22.06c0.577 2.063 0.273 8.024-0.583 11.482-2.542 10.256-12.031 30.955-15.892 34.659-0.7721 0.74-1.4971 1.25-1.6151 1.135-0.1146-0.118 0.9441-3.212 2.3536-6.876 1.4091-3.664 3.3921-9.898 4.4031-13.853 1.012-3.951 2.836-9.695 4.047-12.758 1.214-3.067 2.572-6.718 3.017-8.119 0.934-2.931 2.978-6.943 3.534-6.943 0.209 0 0.54 0.574 0.735 1.273zm94.995 1.489c2.269 0.865 2.151 3.988-0.256 6.734-2.532 2.891-7.068 5.197-21.408 10.888-11.683 4.637-15.517 5.714-22.251 6.264-3.587 0.294-3.665 0.277-11.09-2.505-4.43-1.662-8.645-2.932-10.348-3.124-2.61-0.297-2.795-0.389-1.993-0.976 1.1-0.807 8.511-3.121 13.12-4.093 1.905-0.406 6.778-1.03 10.831-1.392 9.404-0.841 12.367-1.634 24.371-6.534 12.924-5.279 16.435-6.248 19.024-5.262zm-231.8 4.154c-0.3372 0.547 1.514 2.759 7.0775 8.449 2.4142 2.469 4.5554 4.384 4.761 4.256 0.52606-0.325-3.6685-5.782-7.5259-9.784-3.2235-3.35-3.8068-3.742-4.3126-2.921zm296.15 5.697c-6.06 5.785-14.708 16.281-20.029 24.315-5.597 8.443-6.852 9.976-17.304 21.155-20.825 22.268-35.482 35.203-51.222 45.199-14.573 9.256-17.749 10.83-36.719 18.192-14.718 5.711-20.471 7.683-29.686 10.192-11.282 3.07-40.425 13.455-53.103 18.922-2.0973 0.905-3.8102 1.54-3.8102 1.419 0-0.392 8.7803-5.988 15.241-9.716 8.5173-4.911 14.974-7.923 24.247-11.307 4.32-1.573 10.035-3.758 12.702-4.853 8.689-3.569 27.818-12.282 33.257-15.149 15.001-7.916 32.767-18.959 44.107-27.423 8.122-6.058 31.307-25.753 38.105-32.369 3.429-3.34 10.496-9.858 15.702-14.485 5.207-4.626 12.372-11.056 15.922-14.285 5.834-5.305 16.317-14.059 16.856-14.079 0.118-7e-3 -1.8 1.918-4.265 4.272zm8.379-0.463c-0.55 1.081-2.967 5.275-5.375 9.318-7.421 12.468-11.613 20.796-25.41 50.501-6.258 13.468-9.185 18.753-13.902 25.096-3.969 5.339-14.169 15.497-18.532 18.462-4.157 2.823-27.457 15.66-33.948 18.699-9.555 4.478-16.414 6.971-24.398 8.862-23.87 5.663-34.538 7.706-44.417 8.503-4.576 0.368-10.602 0.997-13.397 1.392-7.31 1.037-27.362 5.133-31.543 6.443-4.7408 1.486-10.041 2.786-15.106 3.708-2.2861 0.419-4.6767 0.865-5.3106 0.993-1.6084 0.331 2.8863-2.607 7.8564-5.133 4.2822-2.175 16.576-7.453 23.552-10.111 8.1362-3.1 30.677-10.81 35.33-12.087 11.484-3.147 17.729-5.228 30.798-10.256 15.42-5.93 20.862-8.358 28.125-12.553 7.3-4.211 20.48-12.975 24.908-16.558 11.042-8.936 33.63-30.809 45.921-44.47 2.306-2.563 6.214-7.666 8.689-11.337 5.594-8.311 15.612-20.441 22.038-26.689 2.678-2.604 4.927-4.741 4.997-4.745 0.068-3e-3 -0.327 0.878-0.876 1.962zm-292.77 18.642c0 0.648 8.8477 10.29 10.736 11.698 2.63 1.963-2.1074-4.893-6.3761-9.229-3.0886-3.134-4.3598-3.854-4.3598-2.469zm15.703 30.012c0 0.348 1.4701 2.476 3.2639 4.725 1.7972 2.249 3.4426 4.407 3.6618 4.796 0.2158 0.391 0.5631 0.543 0.7654 0.341 0.5193-0.52-1.9523-5.083-4.3496-8.031-1.9354-2.384-3.3415-3.154-3.3415-1.831zm117.41 1.412c4.751 0.858 9.101 2.395 9.465 3.347 0.509 1.327-0.731 2.84-3.409 4.157-2.643 1.3-2.832 1.324-11.987 1.472-9.208 0.149-9.38 0.132-17.523-1.563-9.4681-1.976-12.628-1.986-17.891-0.061-2.8762 1.05-3.0785 1.074-2.3333 0.25 3.0819-3.414 12.634-7.102 21.414-8.271 4.336-0.574 17.571-0.179 22.264 0.669zm116.41 8.247c-0.351 0.436-12.119 23.535-12.968 25.457-0.398 0.891 1.025 0.179 2.741-1.371 2.718-2.459 5.203-6.336 8.521-13.279 3.149-6.596 4.181-9.527 3.749-10.655-0.337-0.875-1.402-0.952-2.043-0.152zm-25.761 30.786c-0.947 0.679-11.818 15.018-11.572 15.264 0.897 0.902 10.287-8.294 12.246-11.992 1.336-2.526 0.944-4.434-0.674-3.272zm-41.952 28.003c-4.95 3.86-8.895 7.19-8.767 7.399 0.3 0.486 7.148-3.161 11.98-6.383 3.83-2.556 7.115-5.731 7.115-6.879 0-1.8-1.848-0.753-10.328 5.863zm-30.647 7.946c-8.868 7.531-9.627 8.514-4.62 5.981 5.136-2.6 10.494-6.987 10.494-8.595 0-1.628-1.841-0.807-5.874 2.614z" />
</svg>
