<svg xmlns="http://www.w3.org/2000/svg"  version="1.0" viewBox="5.6 22.6 85.1 57.6">
  <path opacity="0.6" fill="#f3f6fb" d="M9.7,41.44c-1.01-3.83-3.87-4.96-3.98-9.01c-0.02-0.76-0.08-2.87,1.19-4.07c1.49-1.41,4.37-1.15,7.13,0.86 c2.41,2.09,7.03,5.39,12.03,4.38c0.96-0.19,1.72-0.46,2.77-0.94c2.58-1.18,4.3-3.01,9.21-6.09c3.95-2.48,9.18-3.94,12.92-1.1 c1.93,1.47,3.1,3.83,4.85,5.55c3.73,3.66,9.34,3.77,14.33,3.1c4.99-0.66,10.17-1.87,14.95-0.17c2.35,0.84,4.67,2.66,5.12,5.29 c0.54,3.16-1.75,6.04-4.1,8.01c-2.35,1.97-5.1,3.8-6.13,6.82c-2.25,6.61,5.18,13.79,2.84,20.37c-1.47,4.14-6.35,5.77-10.36,4.84 c-2.07-0.48-3.84-0.87-10.75-6.23c-8.76-6.79-11.04-9.52-16.58-11.47c-3.41-1.2-5.46-1.19-6.73-1.07c-1.79,0.17-3.68,0.73-9.11,4.07 c-2.9,1.78-5.9,4.78-9.1,5.77c-3.68,1.14-8.26-1.06-10.5-4.27c-2.88-4.12-2.04-9.84-1.19-15.64C9.29,45,10.43,44.22,9.7,41.44z" />
</svg>