<svg version="1.1" viewBox="0 0 250 250" xmlns="http://www.w3.org/2000/svg">
  <path d="m15.375 43.799c1.4725-1.774 1.9548-2.257 3.7574-3.759 0.891-0.741 2.2566-1.997 3.0358-2.792 1.9518-1.989 5.0663-4.644 7.0794-6.035 4.8364-3.341 7.4157-5.474 9.4645-7.822 1.3217-1.515 5.578-5.858 6.2907-6.418 1.9814-1.558 5.5974-2.76 8.1322-2.704 1.6627 0.038 2.3881 0.236 4.542 1.241 1.0964 0.512 2.5752 1.255 3.2864 1.651l1.292 0.721 1.065-2.271c1.163-2.481 1.671-3.271 2.744-4.276 0.79-0.739 1.908-1.157 2.813-1.049 1.53 0.181 4.104 2.128 6.214 4.701 2.839 3.463 4.599 7.79 5.581 13.721 0.139 0.843 0.261 1.564 0.27 1.6 0.089 0.359 3.734-0.871 5.635-1.901 1.589-0.862 3.735-1.779 6.051-2.587 2.462-0.859 3.369-1.069 4.551-1.054 2.633 0.035 7.161 1.433 8.062 2.489 1.085 1.271 0.587 3.395-1.404 6.001-1.525 1.994-2.297 3.674-3.408 7.409-0.491 1.65-1.005 4.284-1.31 6.713-0.115 0.906-0.334 2.363-0.489 3.239-0.154 0.877-0.375 2.325-0.492 3.219-0.116 0.895-0.401 2.486-0.632 3.537-0.424 1.919-1.265 8.213-1.502 11.227-0.074 0.944-0.236 1.963-0.389 2.451-0.742 2.372-2.662 6.266-3.617 7.34-0.242 0.272-1.142 0.908-2.169 1.534-0.965 0.587-2.045 1.252-2.399 1.477-0.355 0.225-1.168 0.562-1.81 0.749-0.641 0.187-1.644 0.498-2.228 0.69-1.083 0.358-2.614 0.672-2.819 0.579-0.351-0.158-0.473-1e-3 -0.393 0.501 0.076 0.476-0.064 1.406-0.284 1.874-0.054 0.115-0.154 0.76-0.225 1.434-0.069 0.674-0.22 1.424-0.334 1.667-0.233 0.497-0.412 1.508-0.387 2.194 8e-3 0.249 0.136 1.039 0.282 1.754 0.356 1.734 0.466 4.854 0.193 5.458l-0.2 0.443 1.123 1.73c1.404 2.16 1.08 1.767 3.527 4.275 3.912 4.012 6.559 6.128 11.428 9.138 7.906 4.887 12.25 7.451 15.374 9.074 6.14 3.191 13.603 7.321 16.752 9.27 3.402 2.106 9.048 6.111 11.659 8.269 2.296 1.898 8.333 7.291 11.467 10.241 1.621 1.528 2.978 2.792 3.016 2.81 0.037 0.018-0.318-0.605-0.789-1.384-0.881-1.458-2.308-4.565-3.241-7.064-0.292-0.782-0.769-2.395-1.061-3.586-0.321-1.309-0.99-3.418-1.693-5.329-0.637-1.74-1.459-4.166-1.824-5.391-0.366-1.226-0.955-3.071-1.312-4.102l-0.647-1.874-0.34 0.162c-0.186 0.089-0.954 0.158-1.706 0.154-0.751-3e-3 -1.832 0.043-2.402 0.104s-1.484 0.095-2.032 0.077c-0.547-0.019-1.701-0.022-2.565-8e-3 -2.18 0.036-2.384 4e-3 -4.776-0.758-2.936-0.935-5.591-2.025-9.354-3.844-3.787-1.828-3.8-1.837-4.17-3.253-0.281-1.075-0.272-1.539 0.042-2.21 0.294-0.625 0.655-1.015 1.322-1.42 0.344-0.209 0.472-0.341 0.398-0.408-0.063-0.055-0.595-0.42-1.184-0.814-0.59-0.394-1.418-1.046-1.842-1.448-1.09-1.035-2.679-2.927-3.257-3.878-0.937-1.542-1.605-4.204-1.459-5.817 0.039-0.423 0.292-1.562 0.563-2.529 1.014-3.607 1.091-4.644 0.588-8.016-0.312-2.088-0.488-2.816-1.137-4.7-0.846-2.457-0.962-3.281-0.577-4.101 0.679-1.448 1.996-1.428 5.206 0.077 1.54 0.723 1.84 0.901 2.737 1.635 0.554 0.453 1.028 0.816 1.055 0.806 0.026-9e-3 0.106-0.332 0.177-0.718 0.184-1.007 0.72-1.924 1.441-2.462 0.828-0.618 2.814-1.281 4.278-1.43 2.715-0.277 3.877-0.481 5.711-1.005 5.955-1.699 9.403-1.77 13.023-0.268 1.121 0.466 1.384 0.616 1.916 1.095 1.298 1.171 2.386 3.406 2.857 5.868l0.074 0.387 0.983 0.222c0.54 0.122 1.913 0.324 3.051 0.448 1.815 0.199 2.165 0.272 2.877 0.606 0.756 0.353 0.862 0.444 1.573 1.338 0.876 1.102 1.349 2.197 1.329 3.079-0.016 0.73-0.662 3.523-1.61 6.952-0.661 2.396-0.74 2.808-0.839 4.386-0.061 0.958-0.244 2.448-0.408 3.311-0.238 1.257-0.283 1.886-0.222 3.165 0.08 1.671-3e-3 3.441-0.214 4.573-0.069 0.368-0.397 1.631-0.728 2.81-0.789 2.797-0.997 3.176-2.618 4.763-0.675 0.661-1.378 1.317-1.564 1.459-0.807 0.617-3.929 1.534-4.427 1.301-0.077-0.036-0.154-0.037-0.171 0s0.218 0.793 0.521 1.683c0.304 0.889 0.995 3.099 1.534 4.91 0.54 1.812 1.25 3.955 1.578 4.763 0.658 1.623 1.177 3.373 1.646 5.549 0.441 2.048 0.789 3.084 1.997 5.933 1.623 3.833 2.064 4.607 4.75 8.325 1.157 1.602 1.975 2.376 5.091 4.821 4.406 3.456 6.056 4.597 12.72 8.782 2.445 1.536 5.223 3.299 6.173 3.918 6.235 4.061 15.751 8.629 26.993 12.958 1.027 0.395 1.884 0.687 1.902 0.647 0.019-0.039-0.152-0.198-0.379-0.35-0.8-0.54-3.846-3.039-4.635-3.801-0.438-0.424-1.496-1.611-2.347-2.637-1.472-1.769-1.57-1.865-1.932-1.879-0.27-0.01-1.012-0.311-2.529-1.025-1.836-0.864-2.391-1.176-3.821-2.15-2.333-1.589-6.333-4.977-7.892-6.684-1.094-1.196-3.587-4.428-4.416-5.721-0.796-1.242-2.934-5.088-4.214-7.579-1.502-2.928-3.086-7.47-4.706-13.503-1.633-6.085-1.988-7.769-2.887-13.744-0.567-3.768-0.837-4.926-1.802-7.743-0.402-1.174-1.019-3.044-1.37-4.158-1.459-4.623-2.194-6.701-3.544-10.03-1.807-4.449-2.322-5.972-2.444-7.218-0.086-0.874-0.063-1.071 0.19-1.61 0.253-0.54 0.335-0.627 0.694-0.727 0.635-0.176 1.273-0.011 2.535 0.658 1.412 0.749 2.319 1.428 3.835 2.866 2.31 2.192 3.436 3.793 5.868 8.346 0.862 1.613 2.041 3.821 2.622 4.907s1.277 2.472 1.547 3.08 1.779 5.016 3.355 9.795 3.222 9.751 3.657 11.048c1.663 4.958 3.258 9.859 4.309 13.25 3.465 11.179 4.269 13.236 7.556 19.351 2.404 4.474 3.106 5.535 6.171 9.337 2.441 3.029 3.104 3.684 7.12 7.04 0.934 0.782 1.868 1.569 2.075 1.752 0.313 0.274 1.073 0.587 4.554 1.878 2.297 0.853 4.906 1.834 5.797 2.182 0.892 0.348 2.154 0.788 2.803 0.977 2.109 0.615 11.791 5.312 13.965 6.774 0.788 0.53 1.436 1.097 1.419 1.243-8e-3 0.064-0.901-0.326-2.145-0.933-4.325-2.117-13.821-5.957-15.544-6.285-2.822-0.539-6.175-0.497-9.584 0.119l-1.182 0.215-1.215 0.985c-2.539 2.062-3.457 3.267-5.035 6.605-2.083 4.404-3.202 6.244-5.594 9.194-2.253 2.779-3.982 4.532-8.443 8.561-6.284 5.677-8.553 7.371-11.982 8.947-0.795 0.365-2.201 1.029-3.125 1.473-0.925 0.445-2.543 1.152-3.598 1.571-1.053 0.42-2.553 1.038-3.333 1.376-2.039 0.882-10.28 3.71-11.796 4.049-0.707 0.158-2.422 0.563-3.811 0.9-4.463 1.082-9.534 1.783-15.364 2.122-4.33 0.252-7.87 0.049-10.085-0.582-1.27-0.361-1.794-1.162-1.292-1.977 0.634-1.034 3.175-1.978 9.791-3.639 5.103-1.282 8.946-2.473 14.814-4.592 5.398-1.949 6.672-2.48 10.488-4.37 3.153-1.562 5.289-2.385 8.123-3.134 1.903-0.502 7.615-1.707 9.716-2.049 1.246-0.202 5.031-0.564 6.292-0.601 0.698-0.02 2.556 0.179 2.82 0.303 0.233 0.109 0.313 0.047 2.699-2.118 2.857-2.591 3.863-3.576 5.321-5.197 3.613-4.024 5.062-6.179 7.169-10.667 1.37-2.918 2.257-4.202 3.952-5.714 0.349-0.312 0.626-0.593 0.614-0.625s-1.687 0.513-3.723 1.211c-2.036 0.699-4.147 1.397-4.691 1.553-0.672 0.193-1.403 0.539-2.286 1.082-1.335 0.821-1.599 1.026-3.695 2.865-0.678 0.596-1.489 1.251-1.802 1.455-0.314 0.204-1.178 0.83-1.922 1.388-2.915 2.188-5.105 3.174-11.235 5.061-3.713 1.143-4.28 1.262-7.661 1.611-7.414 0.763-14.294 0.173-21.512-1.846-0.933-0.261-3.294-0.993-5.247-1.626-7.718-2.505-11.65-3.33-19.971-4.191-4.222-0.436-5.1-0.562-7.087-1.019-1.951-0.447-3.174-1.002-3.715-1.689-0.528-0.668-0.609-1.139-0.308-1.782 0.511-1.09 1.938-2.071 4.224-2.907 2.33-0.851 4.851-1.282 9.351-1.595 5.118-0.359 12.811 0.171 26.849 1.847 7.786 0.929 9.959 1.11 17.846 1.489 13.752 0.662 17.464 0.502 24.89-1.075 2.827-0.601 3.738-0.86 7.273-2.069 5.702-1.951 8.275-2.536 12.02-2.733l1.508-0.079-0.761-0.285c-11.825-4.448-15.164-5.785-20.993-8.406-6.224-2.799-12.802-6.199-16.416-8.485-0.625-0.395-2.945-1.828-5.157-3.185-8.124-4.981-10.49-6.597-15.294-10.439-1.029-0.822-1.581-1.205-1.697-1.175-0.114 0.031-0.194-0.013-0.235-0.128-0.096-0.265-3.916-2.134-5.491-2.687-1.593-0.56-4.055-1.254-5.891-1.662-4.279-0.95-5.977-0.824-14.377 1.065-1.238 0.279-3.057 0.659-4.041 0.845-0.984 0.187-1.842 0.377-1.907 0.422-0.066 0.046-0.426 0.284-0.801 0.53-3.988 2.621-4.321 2.963-6.069 6.226-1.528 2.853-1.9 4.026-2.296 7.265-0.518 4.235-1.447 8.109-2.456 10.244-0.411 0.872-1.781 2.795-2.535 3.561-1.276 1.296-2.807 1.631-5.292 1.158-2.534-0.482-4.854-1.763-6.305-3.48-0.429-0.51-0.883-1.015-1.006-1.125-0.498-0.439-1.398-1.593-1.702-2.182l-0.323-0.623-1.004 0.316c-2.997 0.945-5.71 0.925-8.18-0.059-1.737-0.69-2.895-1.812-3.578-3.464-0.503-1.213-0.459-2.299 0.239-6.042 0.999-5.36 1.52-7.217 2.616-9.337 1.45-2.802 3.404-4.381 5.754-4.651l0.781-0.088-0.294-0.92c-0.399-1.25-0.541-2.408-0.579-4.73-0.029-1.738 0.019-2.229 0.408-4.248 0.791-4.107 1.148-5.096 2.213-6.123 0.561-0.542 1.475-0.999 2.043-1.021 0.842-0.033 2.481 0.452 4.759 1.407 1.234 0.518 2.919 1.219 3.744 1.559 1.2 0.496 1.876 0.851 3.385 1.782 3.273 2.019 4.001 2.579 6.605 5.075 1.871 1.794 2.475 2.476 3.72 4.211 1.122 1.566 1.666 2.015 3.214 2.654 0.668 0.276 1.403 0.526 1.635 0.558 0.475 0.065 2.759-0.343 6.153-1.097 8.426-1.87 9.987-2.075 13.044-1.712 2.284 0.271 6.109 1.299 8.512 2.29 0.784 0.322 1.403 0.536 1.376 0.475-0.027-0.062-0.46-0.462-0.962-0.891-0.502-0.428-1.813-1.622-2.913-2.651-3.922-3.674-9.224-8.421-11.843-10.602-3.2-2.664-9.256-6.865-13.316-9.236-4.302-2.513-4.826-2.776-6.579-3.303-0.89-0.266-2.865-0.895-4.389-1.395s-3.087-0.977-3.475-1.062c-3.219-0.698-7.74-0.556-11.801 0.371-0.709 0.161-3.196 0.859-5.526 1.55-8.083 2.396-9.53 2.711-12.649 2.756-2.477 0.036-3.848-0.087-6.086-0.544-1.171-0.238-2.075-0.366-2.107-0.298-0.031 0.066-0.641 0.586-1.354 1.156-0.714 0.57-1.464 1.247-1.666 1.504-0.847 1.073-1.703 2.505-2.445 4.091-0.91 1.942-1.388 3.264-1.771 4.9-0.437 1.86-1.005 2.954-2.438 4.689-2.184 2.645-3.7855 3.78-6.786 4.812-1.7284 0.594-2.4002 0.671-5.2496 0.598-3.3195-0.084-3.5872-0.103-4.8219-0.314-1.679-0.289-2.9981-0.923-3.8802-1.866-0.3541-0.38-0.9802-1.254-1.3908-1.943-0.8953-1.5-1.2185-1.928-1.4359-1.906-0.0904 0.01-1.1528 0.222-2.3597 0.472-2.8965 0.601-3.7421 0.727-4.9236 0.735-0.9671 6e-3 -1.0104-5e-3 -2.2494-0.586-1.2495-0.586-1.2696-0.601-1.8609-1.349-0.4035-0.512-0.8028-1.247-1.2313-2.269-1.2672-3.027-1.5708-3.661-2.4074-5.035-0.4681-0.769-1.6371-2.402-2.5968-3.627-2.3654-3.02-2.7385-3.779-2.7923-5.687-0.0586-2.073 0.3184-3.859 1.2375-5.851 0.8072-1.752 1.2445-2.354 2.3842-3.29 1.4664-1.202 3.9669-1.92 6.6877-1.92 1.6509 0 3.3966 0.166 5.056 0.478l1.4418 0.271-0.239-0.619c-0.5279-1.37-0.9821-3.18-0.9835-3.924-0.0032-1.081 0.2618-2.061 0.6842-2.533 0.5276-0.591 1.2315-0.75 3.568-0.811 3.8368-0.099 5.696-0.519 9.3179-2.099 5.0805-2.217 9.3714-2.314 11.57-0.262 0.6685 0.625 2.5428 3.025 3.4688 4.446 0.971 1.487 1.84 3.312 2.757 5.782 0.92 2.479 1.112 2.888 1.89 4.044 0.324 0.481 0.754 1.223 0.954 1.65 0.545 1.159 1.41 2.428 2.022 2.964 0.372 0.325 0.597 0.636 0.712 0.984 0.093 0.28 0.264 0.554 0.38 0.609 0.459 0.215 5.135 1.084 6.189 1.15 0.615 0.039 1.87 0.063 2.788 0.053 3.117-0.032 4.436-0.318 12.989-2.814 3.871-1.131 5.717-1.574 7.817-1.877 4.354-0.63 8.013-0.397 11.338 0.723 1.571 0.528 2.01 0.631 1.327 0.311-2.669-1.251-7.854-4.117-11.46-6.332-9.06-5.567-11.207-6.989-14.195-9.405-2.388-1.929-6.517-5.924-7.72-7.47-0.458-0.586-1.657-2.477-2.093-3.296-0.324-0.613-0.384-0.671-0.749-0.719-0.218-0.03-0.793-0.178-1.279-0.332-1.501-0.472-2.415-1.187-5.642-4.415-1.188-1.189-1.694-1.539-4.041-2.802-1.004-0.54-2.074-1.128-2.376-1.309l-0.55-0.327-0.673 0.678c-0.838 0.842-1.566 1.279-2.416 1.451-0.362 0.073-1.3334 0.285-2.1593 0.47-3.4462 0.774-5.0108 0.866-9.1864 0.534-1.7201-0.135-4.0112-0.281-5.0904-0.322s-2.6023-0.15-3.3845-0.24c-2.6468-0.309-3.2689-0.498-8.8677-2.706-3.2114-1.267-4.2287-1.623-6.9226-2.417-4.3677-1.288-6.933-2.439-8.9864-4.029-1.4242-1.102-2.711-2.359-3.5342-3.45-1.5329-2.032-3.2703-5.971-3.3346-7.56-0.0588-1.45 0.0574-1.993 0.7329-3.425 0.5546-1.177 0.7221-1.433 1.6772-2.56 1.3167-1.553 2.5575-2.726 4.203-3.975 1.1836-0.899 1.2624-0.979 1.1246-1.163-0.081-0.108-0.6399-0.724-1.2425-1.367s-1.1882-1.289-1.3028-1.437c-0.4638-0.601-1.4331-2.466-1.6462-3.168-1.1191-3.697-1.0633-4.656 0.4737-8.105l0.9894-2.22zm-1.7854 6.42c-0.2361 1.057-0.1599 2.097 0.2727 3.708 0.5812 2.161 1.297 3.465 2.7426 4.999 0.6105 0.648 1.2152 1.335 1.3445 1.528 0.1292 0.194 0.2568 0.363 0.2851 0.377 0.0283 0.013 0.3567-0.164 0.73-0.393 0.3737-0.229 1.4825-0.873 2.4646-1.432 1.9473-1.107 2.481-1.482 2.8596-2.008 0.217-0.302 0.2324-0.452 0.1154-1.179-0.3328-2.088-0.2675-5.557 0.1375-7.241 0.6405-2.661 2.2863-5.418 4.3629-7.305 0.8822-0.801 3.0947-2.171 4.7885-2.963 2.7542-1.29 7.0798-2.606 13.776-4.194 5.1658-1.223 7.9111-2.576 9.8576-4.853 0.5305-0.622 0.7468-0.995 1.5041-2.61 0.6026-1.285 0.9846-2.245 1.1991-3.015 0.1726-0.622 0.6591-2.011 1.0801-3.086l0.765-1.954-2.0701-1.058c-4.0857-2.089-5.8588-2.496-8.6807-1.995-2.1451 0.381-4.1625 1.258-5.5878 2.427-0.9059 0.743-3.7758 3.667-5.811 5.918-0.8693 0.962-2.1297 2.24-2.7996 2.839-1.449 1.296-4.6679 3.792-7.0686 5.481-2.0974 1.476-4.8466 3.854-6.913 5.978-0.8447 0.868-2.2314 2.173-3.0808 2.899-1.6917 1.445-2.191 1.946-3.5163 3.525-0.8644 1.031-0.9041 1.099-1.7501 3.013-0.4754 1.076-0.9293 2.243-1.0068 2.594zm-2.7937 20.958c-0.2166 1.555 0.1725 2.883 1.6851 5.746 1.9284 3.651 4.8853 6.151 9.1799 7.758 0.8376 0.314 2.0281 0.72 2.6464 0.901 4.5978 1.354 6.4569 2.006 11.276 3.953 3.1143 1.259 4.8884 1.621 8.6547 1.764 1.1486 0.043 3.5653 0.199 5.3711 0.346 3.634 0.294 5.0977 0.246 7.308-0.238 4.5869-1.006 4.3169-0.921 4.9699-1.571 0.302-0.302 0.594-0.591 0.646-0.642s-0.064-0.243-0.259-0.427c-0.305-0.288-0.453-0.351-1.069-0.453-1.055-0.177-3.4321-1.137-4.9967-2.019-0.7278-0.411-1.384-0.801-1.4592-0.867-0.2379-0.212-4.0738-2.474-5.86-3.456-0.9506-0.522-2.0135-1.141-2.3612-1.373-1.8281-1.222-5.4694-3.997-9.798-7.465-1.6319-1.308-5.209-4.689-6.2902-5.947-2.0611-2.398-4.0555-5.553-5.1232-8.109l-0.4705-1.126-0.4175 0.421c-0.2292 0.233-1.5842 1.134-3.0114 2.005-1.4262 0.87-2.6224 1.643-2.6573 1.718-0.0344 0.073-0.1545 0.155-0.2656 0.182-0.5365 0.124-3.4078 2.465-4.6372 3.78-0.5318 0.57-1.5788 1.832-1.9071 2.3-0.4831 0.692-1.0501 2.076-1.1544 2.819zm15.264-22.308c-0.2905 1.216-0.384 2.343-0.3531 4.284 0.0347 2.173 0.1883 3.16 0.7465 4.805 1.1875 3.494 3.7809 7.189 7.5523 10.76 2.2404 2.122 2.8978 2.678 5.9966 5.074 5.6101 4.338 7.1907 5.439 9.7805 6.821 2.0726 1.105 4.6185 2.632 6.3874 3.831 0.7241 0.49 1.443 0.863 2.8286 1.467 2.3236 1.014 2.7356 1.087 3.4286 0.612 0.277-0.189 1.394-0.755 2.483-1.259 1.115-0.516 2.298-1.157 2.708-1.468 2.304-1.755 4.247-2.466 6.923-2.533 1.508-0.037 3.4 0.329 4.059 0.785l0.389 0.269-0.072-0.572c-0.113-0.904-0.055-1.603 0.224-2.673 0.315-1.207 0.332-1.643 0.135-3.508-0.084-0.797-0.149-1.764-0.142-2.148 0.039-2.76 0.181-7.469 0.252-8.442 0.047-0.645 0.16-2.202 0.25-3.46 0.557-7.824 0.708-9.372 1.045-10.769 0.312-1.292 0.338-1.643 0.292-3.872-0.109-5.31-1.405-16.578-2.386-20.737-0.697-2.958-1.96-6.12-3.32-8.318-1.522-2.458-4.372-5.225-6.075-5.895-0.604-0.237-0.751-0.249-1.212-0.09-1.059 0.364-2.003 1.451-3.111 3.589-1.065 2.053-2.902 6.467-3.584 8.612-1.234 3.881-2.6391 6.128-4.9731 7.953-1.871 1.462-4.6605 2.644-8.5726 3.629-10.171 2.563-14.501 4.214-17.452 6.653-0.7851 0.649-2.1049 2.138-2.6407 2.978-0.5113 0.802-1.3952 2.817-1.587 3.622zm-5.7406 77.138c-0.3925 2.094-0.3103 3.855 0.2329 4.99 0.1575 0.33 0.9792 1.479 1.8238 2.555 2.5604 3.255 3.5359 4.897 4.7372 7.979 1.2201 3.128 1.5995 3.69 2.9317 4.351 1.1465 0.568 2.2208 0.5 6.1943-0.393 1.3366-0.301 3.1513-0.699 4.0331-0.886 5.9825-1.267 11.208-3.795 16.467-7.969 1.2522-0.993 2.701-2.239 3.2182-2.77 1.7871-1.828 3.2781-2.831 5.7951-3.897l1.417-0.6-0.544-0.17c-0.3-0.094-2.066-0.546-3.925-1.005-3.0989-0.765-7.0075-1.939-12.07-3.623-8.2233-2.736-14.413-4.433-18.165-4.981-4.9073-0.715-8.2877-0.125-10.021 1.753-0.9081 0.985-1.8015 2.947-2.1243 4.666zm15.007-11.902c-0.0096 1.267 0.9346 4.622 1.3549 4.82 0.1289 0.06 0.7188 0.226 1.3107 0.368 2.6829 0.646 8.6417 2.451 13.139 3.983 6.3307 2.155 11.601 3.67 17.739 5.1l1.203 0.28-0.462-0.36c-0.717-0.56-1.652-1.861-2.355-3.273-0.236-0.473-0.686-1.23-1.001-1.682-0.816-1.17-1.025-1.601-1.856-3.817-1.344-3.583-2.25-5.313-4.0475-7.73-1.8543-2.492-2.4543-3.015-3.8149-3.326-1.1001-0.253-1.987-0.265-3.4169-0.049-1.5781 0.238-2.7853 0.617-5.0706 1.591-3.4947 1.489-5.4745 1.912-9.2027 1.965-1.2393 0.017-2.446 0.095-2.6822 0.171-0.393 0.126-0.4463 0.185-0.6317 0.714-0.1105 0.318-0.2029 0.877-0.2065 1.245zm45.873-81.844c0.522 3.327 1.081 9.731 1.102 12.617 9e-3 1.092 0.023 2.566 0.034 3.274 0.024 1.584 0.01 1.759-0.237 3.085-0.215 1.158-0.475 3.972-0.749 8.143-0.097 1.466-0.242 3.41-0.321 4.321-0.16 1.827-0.182 2.25-0.282 5.553-0.037 1.248-0.09 2.824-0.116 3.504s0.014 1.956 0.087 2.836c0.155 1.849 0.113 2.36-0.309 3.773-0.189 0.635-0.316 1.388-0.33 1.964l-0.023 0.934 0.809-0.219c0.445-0.119 1.288-0.372 1.873-0.559s1.523-0.457 2.082-0.601c0.56-0.144 1.143-0.326 1.297-0.405 1.057-0.548 4.663-2.858 4.901-3.138 0.563-0.668 2.09-3.625 2.796-5.42 0.601-1.528 0.687-1.848 0.798-2.937 0.452-4.508 1.195-10.226 1.541-11.863 0.222-1.055 0.505-2.682 0.627-3.615s0.348-2.409 0.501-3.278c0.153-0.87 0.395-2.447 0.538-3.504 0.505-3.728 1.129-6.287 2.348-9.632 0.621-1.703 1.236-2.825 2.452-4.471 1.428-1.933 1.998-3.351 1.688-4.207-0.118-0.325-0.228-0.412-0.957-0.754-1.613-0.757-4.592-1.424-6.22-1.394-1.693 0.031-5.766 1.394-9.436 3.156-0.945 0.453-2.129 0.943-2.631 1.089-2.213 0.64-2.668 0.738-3.307 0.709-0.372-0.018-0.685-0.013-0.694 6e-3 -9e-3 0.022 0.052 0.486 0.138 1.033zm-17.933 55.661c0.113 0.393 0.689 0.834 2.249 1.727 0.712 0.407 1.837 1.05 2.501 1.432 1.644 0.944 2.855 1.865 4.172 3.178 2.479 2.468 3.493 3.277 4.577 3.655 0.396 0.138 0.907 0.261 1.139 0.272 0.371 0.018 0.427-0.016 0.485-0.3 0.036-0.176 0.032-0.653-0.01-1.059-0.042-0.407-0.093-1.095-0.112-1.528-0.02-0.435-0.171-1.364-0.337-2.066s-0.325-1.535-0.355-1.854c-0.08-0.868 0.082-2.161 0.339-2.717 0.132-0.285 0.279-0.994 0.35-1.688 0.068-0.657 0.211-1.47 0.321-1.806 0.25-0.769 0.239-0.949-0.084-1.443-0.143-0.221-0.237-0.522-0.209-0.669 0.06-0.305 0.021-0.32-1.231-0.488-1.041-0.141-2.641-0.096-3.757 0.102-1.901 0.338-3.222 0.93-4.834 2.164-0.58 0.444-1.478 0.922-3 1.596-1.194 0.528-2.199 1.014-2.231 1.078-0.031 0.066-0.02 0.252 0.027 0.414zm-21.886 59.205c1.1682 2.011 2.0118 2.884 3.1796 3.292 1.0513 0.368 2.5945 0.57 4.3728 0.574 0.8819 1e-3 2.1448 0.016 2.8055 0.033 1.6318 0.041 2.7868-0.154 4.2159-0.706 2.3091-0.894 3.981-2.141 5.7763-4.31 1.247-1.505 1.745-2.475 2.126-4.136 0.391-1.708 1.125-3.629 2.241-5.856 1.465-2.929 2.296-3.979 4.182-5.287l0.703-0.488-0.458-0.132c-0.393-0.113-0.692-0.047-2.078 0.454-3.751 1.357-5.362 2.325-7.429 4.462-0.9682 1-4.5098 3.859-6.0461 4.88-1.7109 1.137-5.4407 3.179-7.0432 3.856-1.5324 0.647-4.2419 1.514-6.0668 1.94-0.573 0.134-1.0536 0.272-1.0672 0.307-0.0152 0.035 0.2493 0.537 0.5862 1.117zm68.862-63.539c0.037 0.232 0.356 1.248 0.709 2.257 0.654 1.872 0.872 2.799 1.274 5.434 0.424 2.781 0.307 4.423-0.542 7.558-0.254 0.935-0.512 2.019-0.574 2.408-0.156 0.968 0.086 2.532 0.614 3.963 0.393 1.068 0.56 1.345 1.596 2.628 1.592 1.973 2.421 2.73 4.506 4.11 2.514 1.664 4.088 2.373 11.401 5.138 4.024 1.52 6.672 2.631 10.134 4.252l3.026 1.417-0.365-1.225c-0.973-3.266-1.732-4.983-3.349-7.583-1.9-3.057-3.68-5.344-6.531-8.396-1.858-1.989-2.836-3.174-4.199-5.089-0.467-0.656-1.469-2.016-2.226-3.024-1.828-2.43-2.619-3.584-3.874-5.66-1.981-3.275-3.127-4.663-5.455-6.603-1.128-0.94-1.39-1.109-2.71-1.741-2.927-1.401-3.679-1.366-3.435 0.156zm8.948 1.138c1e-3 0.836 0.124 1.094 0.947 1.987 0.905 0.984 1.31 1.56 2.891 4.113 1.379 2.228 2.071 3.207 5.747 8.13 2.262 3.028 2.895 3.79 5.032 6.039 2.429 2.558 4.294 5.018 6.338 8.354 1.67 2.726 2.331 4.261 3.5 8.143l0.135 0.446 0.215-0.601c0.119-0.332 0.448-1.241 0.733-2.02 0.885-2.425 1.418-4.53 1.636-6.453 0.109-0.969 0.27-2.243 0.358-2.834 0.32-2.127 0.288-7.946-0.056-10.463-0.278-2.025-0.29-2.526-0.144-5.867 0.215-4.879-0.021-7.411-0.918-9.884-0.454-1.251-0.687-1.707-1.204-2.354l-0.64-0.802-1.317-0.613c-3.197-1.486-6.476-1.444-12.292 0.16-1.865 0.514-3.198 0.736-5.646 0.942-1.687 0.142-3.564 0.689-4.255 1.238-0.603 0.481-1.06 1.491-1.06 2.339zm-23.706 59.346c-0.169 0.728-0.436 2.011-0.594 2.852-0.577 3.082-0.304 7.275 0.547 8.395 0.254 0.335 0.268 0.339 1.205 0.33 1.841-0.016 4.385 0.1 7.35 0.337 2.572 0.204 8.451 0.516 12.641 0.67 1.627 0.059 4.821-0.08 4.849-0.213 0.013-0.057-0.186-0.244-0.443-0.413-0.736-0.487-1.446-1.259-2.387-2.597-1.041-1.48-1.98-2.518-3.862-4.267-1.799-1.67-3.116-2.657-5.514-4.129-1.845-1.134-2.099-1.259-5.397-2.67-2.731-1.169-3.715-1.544-4.661-1.776-0.659-0.162-1.305-0.288-1.434-0.283-0.259 0.014-0.976 0.531-1.332 0.96-0.308 0.372-0.599 1.215-0.968 2.804zm-7.817 20.353c-0.388 1.365-1.394 6.334-1.701 8.401-0.187 1.264-0.083 2.123 0.354 2.926 0.518 0.948 1.096 1.496 2.07 1.962 2.289 1.095 5.159 1.067 8.434-0.081 1.523-0.534 2.485-0.999 4.917-2.375 3.864-2.185 6.18-3.939 8.819-6.678 1.545-1.603 3.71-3.564 6.389-5.786 0.69-0.572 1.68-1.47 2.2-1.994s1.5-1.371 2.179-1.881l1.234-0.927-0.531 0.053c-1.801 0.184-4.113 0.25-6.021 0.174-5.644-0.228-9.717-0.439-12.608-0.655-6.557-0.489-10.333-0.367-11.631 0.373-0.879 0.503-1.968 1.635-2.695 2.804-0.374 0.601-0.994 2.223-1.409 3.684zm28.712-48.466c-0.031 0.403 0.334 1.674 0.581 2.025 0.307 0.438 4.984 2.673 7.794 3.727 2.019 0.756 5.837 1.935 6.926 2.137 0.258 0.047 1.192 0.082 2.075 0.074 0.882-7e-3 2.024 0.011 2.539 0.041 0.513 0.029 1.474 5e-3 2.135-0.055 0.661-0.061 1.56-0.102 1.997-0.094 0.437 9e-3 0.785-9e-3 0.774-0.039-0.056-0.154-8.634-3.793-11.752-4.985-5.488-2.098-8.166-3.207-9.817-4.064l-1.509-0.785-0.415 0.28c-0.788 0.528-1.286 1.182-1.328 1.738zm-17.43 63.413c0.179 0.299 0.569 0.809 0.867 1.134 2.752 2.995 2.339 2.655 4.372 3.604 1.953 0.912 2.597 1.084 4.133 1.104 1.636 0.021 2.195-0.276 3.433-1.828 1.958-2.456 3.159-6.243 3.862-12.187 0.273-2.3 0.602-3.646 1.321-5.378l0.622-1.497-0.748 0.672c-0.411 0.369-1.369 1.213-2.129 1.872-0.761 0.66-2.112 1.953-3.001 2.873-1.749 1.808-3.897 3.609-5.818 4.877-1.425 0.942-4.611 2.747-6.11 3.459-0.595 0.284-1.093 0.568-1.105 0.632-0.013 0.066 0.123 0.363 0.301 0.663zm48.945-90.449c0.065 0.839 0.069 3.023 9e-3 4.854-0.084 2.521-0.059 3.711 0.101 4.903 0.371 2.753 0.423 3.521 0.442 6.664 0.018 2.868-0.205 5.821-0.694 9.185-0.149 1.024-0.979 3.99-1.324 4.734-0.152 0.326-0.382 0.946-0.512 1.378-0.31 1.032-0.756 1.986-1.069 2.285l-0.252 0.241 0.68-0.041c0.704-0.041 2.693-0.668 3.104-0.978 0.13-0.096 0.789-0.735 1.467-1.42 1.201-1.214 1.24-1.268 1.593-2.161 0.198-0.505 0.607-1.808 0.908-2.896 0.616-2.229 0.785-3.761 0.689-6.257-0.037-0.995 0.016-1.748 0.176-2.472 0.233-1.05 0.42-2.436 0.632-4.687 0.084-0.893 0.292-1.829 0.771-3.471 0.814-2.79 1.437-5.329 1.559-6.35 0.122-1.03-0.142-1.827-0.96-2.902-0.89-1.169-1.434-1.417-3.98-1.817-1.021-0.16-2.236-0.427-2.698-0.594-0.829-0.298-0.843-0.298-0.803-0.012 0.023 0.159 0.095 0.976 0.161 1.814zm14.567 11.777c0.178 0.547 1.039 2.78 1.914 4.964s1.679 4.274 1.786 4.645c0.335 1.156 2.089 6.527 2.965 9.082 1.091 3.176 1.397 4.473 2.025 8.563 0.885 5.767 1.157 7.016 2.899 13.355 1.162 4.223 3.044 9.689 4.093 11.895 0.85 1.785 3.932 7.383 4.84 8.793 0.872 1.353 2.895 4.012 3.988 5.24 1.218 1.371 5.468 5.005 7.574 6.48 1.891 1.323 3.007 2.042 3.046 1.958 0.011-0.024-0.191-0.24-0.447-0.479-0.9-0.836-7.745-9.669-8.625-11.128-0.901-1.497-1.465-2.787-2.465-5.649-0.727-2.08-1.085-3.392-1.651-6.06-0.902-4.25-0.942-4.384-2.886-9.724-1.626-4.463-2.712-7.776-3.915-11.946-0.412-1.43-1.108-3.373-1.826-5.093-0.637-1.529-1.37-3.495-1.628-4.369-0.597-2.024-1.842-5.291-2.546-6.675-0.299-0.59-0.987-1.776-1.527-2.635-0.541-0.859-1.35-2.222-1.796-3.029-0.448-0.805-1.324-2.272-1.949-3.261-0.625-0.988-1.448-2.338-1.83-3-0.754-1.31-1.56-2.63-2.176-3.565l-0.392-0.596 0.103 0.621c0.058 0.34 0.249 1.066 0.426 1.613zm1.006-2.239c0.097 0.091 1.013 1.544 2.036 3.232 1.024 1.687 2.174 3.561 2.559 4.162 0.383 0.601 1.04 1.708 1.46 2.459 0.419 0.751 1.215 2.08 1.769 2.954 0.552 0.872 1.228 2.011 1.501 2.53 0.735 1.392 1.841 4.209 2.662 6.78 0.398 1.248 1.197 3.376 1.774 4.729 0.719 1.683 1.352 3.471 2.005 5.655 1.373 4.595 1.925 6.245 3.861 11.522 1.774 4.832 2.039 5.748 2.931 10.126 0.433 2.121 0.718 3.094 1.72 5.863 1.31 3.625 1.957 4.872 3.588 6.933 0.938 1.185 3.84 5.007 4.751 6.257 0.786 1.082 0.719 0.918-0.777-1.888-3.014-5.653-3.941-8.025-7.27-18.585-0.887-2.817-2.444-7.541-4.477-13.591-0.436-1.298-1.833-5.493-3.104-9.322-3.882-11.696-3.937-11.836-6.248-16.026-0.645-1.167-1.599-2.939-2.12-3.937-1.214-2.326-2.337-4.133-3.355-5.399-1.356-1.684-3.344-3.502-4.989-4.562-0.388-0.249-0.582-0.172-0.277 0.108zm-47.41 101.17c0.14 0.119 0.288 0.136 0.467 0.053 0.626-0.293 5.425-1.022 6.803-1.034 4.395-0.038 6.111-6e-3 7.543 0.14 0.905 0.092 2.642 0.214 3.858 0.272 1.216 0.057 3.221 0.196 4.458 0.31 1.236 0.113 3.27 0.293 4.523 0.398 1.25 0.107 3.154 0.28 4.229 0.388 1.076 0.107 3.771 0.309 5.991 0.45 2.22 0.14 4.958 0.314 6.085 0.386 1.126 0.072 3.184 0.163 4.573 0.201 1.389 0.039 3.34 0.111 4.337 0.16 2.612 0.128 4.118 0.081 6.629-0.21 1.222-0.141 3.405-0.389 4.852-0.548 2.234-0.249 5.744-0.798 5.795-0.907 9e-3 -0.019-0.545-0.034-1.23-0.034-3.163-2e-3 -7.261-0.133-12.252-0.392-8.369-0.435-10.589-0.636-18.256-1.655-9.884-1.315-17.832-2.028-22.845-2.049-3.171-0.014-7.35 0.381-9.935 0.936-3.209 0.691-6.407 2.472-5.625 3.135zm4.525 1.386c0.632 0.119 3.01 0.421 5.284 0.671 6.354 0.699 10.711 1.45 14.613 2.516 0.903 0.248 3.289 0.99 5.3 1.649 7.752 2.543 11.365 3.397 16.265 3.844 3.234 0.297 9.562 0.075 13.158-0.46 1.452-0.217 5.025-1.271 8.541-2.52 2.597-0.924 4.522-1.958 6.4-3.439 0.586-0.463 1.436-1.099 1.887-1.415 0.451-0.315 1.386-1.084 2.079-1.709 1.872-1.688 1.785-1.568 0.98-1.35-0.383 0.102-1.29 0.407-2.013 0.677-1.327 0.492-5.157 1.536-7.257 1.977-1.638 0.343-2.785 0.506-6.574 0.93-6.133 0.687-6.972 0.731-10.627 0.573-1.034-0.045-3.156-0.122-4.716-0.169-1.56-0.048-3.92-0.169-5.245-0.266-1.326-0.1-3.832-0.268-5.567-0.375-1.737-0.108-4.373-0.318-5.858-0.465-5.364-0.535-9.244-0.867-11.688-1.002-1.371-0.076-3.466-0.231-4.653-0.344-2.738-0.261-8.017-0.226-10.092 0.068-0.852 0.121-1.509 0.259-1.458 0.307 0.05 0.048 0.609 0.183 1.241 0.302zm9.1 36.369c0.302-0.01 1.493-0.124 2.644-0.252 6.725-0.754 8.506-1.049 11.505-1.902 0.852-0.243 2.372-0.672 3.38-0.953 1.006-0.281 2.57-0.732 3.475-1.001 0.903-0.269 2.748-0.716 4.1-0.993 1.35-0.277 3.31-0.775 4.354-1.105 1.044-0.331 2.515-0.753 3.27-0.937 2.3-0.56 5.003-1.433 11.515-3.716 5.954-2.087 10.21-3.768 12.572-4.965 1.043-0.527 2.221-1.385 2.155-1.567-0.069-0.195-1.861-0.175-4.067 0.045-2.486 0.247-4.934 0.67-9.473 1.632-5.343 1.132-7.665 1.898-11.507 3.798-3.538 1.748-4.155 2.017-8.011 3.5-5.849 2.25-12.736 4.44-19.391 6.167-3.382 0.877-6.943 1.989-7.04 2.196-0.018 0.039 0.215 0.063 0.519 0.053zm4.267 1.049c2.018 0.112 5.963-0.073 9.353-0.438 2.175-0.236 6.972-0.979 8.358-1.295 5.705-1.3 7.873-1.918 12.088-3.442 2.373-0.857 5.499-2.061 6.944-2.673 1.445-0.613 3.067-1.299 3.604-1.524 0.535-0.225 1.598-0.713 2.359-1.083 0.762-0.37 2.024-0.967 2.804-1.327 1.338-0.616 3.049-1.582 3.607-2.036l0.249-0.202-0.349 0.155c-2.029 0.909-4.432 1.828-6.649 2.545-1.475 0.477-3.485 1.186-4.467 1.573-2.085 0.826-6.278 2.148-8.906 2.809-1.015 0.255-2.574 0.698-3.467 0.984-0.892 0.286-2.409 0.679-3.371 0.873-2.782 0.56-4.85 1.097-11.022 2.857-3.551 1.012-6.182 1.481-10.832 1.927-0.791 0.076-1.43 0.16-1.421 0.187 0.01 0.028 0.512 0.077 1.118 0.11z" clip-rule="evenodd" fill="#93b7db" fill-rule="evenodd"/>
</svg>
