<svg fill="none" version="1.1" viewBox="0 0 347.73 659.83" xmlns="http://www.w3.org/2000/svg">
  <path opacity="0.5" fill="#d3e0fd" d="m213.62-0.0019531c-0.24297-0.019611-0.50003 0.066655-0.73828 0.30469-1.862 1.861-3.5074 3.9822-5.0234 6.1895-25.465 9.0453-42.874 38.517-51.578 62.32-13.426 36.614-0.99593 73.575 4.3301 110.62-0.39 0.953-0.73603 1.8595-1.082 2.8125-0.433 0.259-0.86583 0.56227-1.2988 0.82227-0.996 0.562-0.64918 1.9051 0.17382 2.1211-2.642 6.882-5.2409 13.806-7.7969 20.818-9.657-12.119-21.219-22.723-33.994-30.859-1.0826-0.693-2.7723-0.43188-3.1621 0.95312-7.8818 26.443 5.4992 55.569 13.857 80.367 0.5629 1.602 1.0408 3.2456 1.5606 4.8906-5.1968 15.018-14.334 28.738-12.299 45.4 0.0433 0.217 0.12976 0.30164 0.25976 0.43164-5.3701 10.127-10.394 20.429-14.941 30.902 1.0826-12.724-1.6889-25.362-6.0195-37.74 0.6063 0.26 1.4717 0.0867 1.6016-0.7793 0.0866-0.779 0.087228-1.515 0.17383-2.25 12.386-18.437 3.1615-41.59-6.0195-60.027-13.468-26.963-39.8-58.771-38.674-90.322 0.0433-1.817-1.8619-2.7274-3.291-1.7324-1.2126 0.866-2.3389 1.7765-3.4648 2.6855-0.73624-0.347-1.6884-0.17565-2.0781 0.77735-0.12994 0.389-0.25876 0.77897-0.38867 1.168-24.641 21.466-30.445 57.214-19.705 87.986 6.0196 17.354 14.681 31.378 29.795 42.111 17.409 12.421 38.499 22.46 44.172 44.879 0.1732 0.692 1.1699 0.77983 1.4297 0.17383 0.6929 6.751 0.64944 13.416-0.47656 19.908-3.811 9.348-7.2758 18.826-10.221 28.477-0.043299 0.044-0.085606 0.08594-0.12891 0.08594-0.6929 0.39-0.73712 1.1704-0.39062 1.6894-6.9724 23.587-11.129 47.995-11.172 73.529-0.0433 13.806 0.34557 27.785 0.60547 41.721-0.1733 0.173-0.34699 0.38944-0.43359 0.64844-0.1732 0.433-0.3893 0.82386-0.5625 1.2559-0.9527-8.136-10.783-17.095-13.814-24.885-3.2913-8.396-6.1934-16.966-8.1855-25.795-1.8189-8.093-3.2903-16.228-4.6328-24.408 4.5906-6.016 9.0501-12.16 12.904-18.652 1.9055-3.16 4.8083-6.4502 2.3398-9.8262 1.559 0.174 3.0745-0.21461 4.2871-1.5996 1.6889-1.991 1.7753-4.5028 1.0391-6.8828-0.2599-0.822-1.6895-0.56131-1.6895 0.30469 0 1.385-0.60529 3.7642-2.1211 4.2832-1.2992 0.476-2.9018-1.3419-3.4648-2.3379-1.0827-1.991-0.43377-3.7634 1.082-5.1484 0.9094-0.822 1.6901-1.3434 2.8594-1.7324-0.0866 0.043 1.3422-0.21484 1.0391-0.21484 0.6063 0 0.86457 0.04294 0.95117 0.08594 0.2166 0.087 0.26102 5.6e-4 0.60742 0.47656 0.2165 0.217 0.346 0.69194 0.5625 1.2109 0.6496 1.472 0.64907 3.6783 0.82227 5.2363 0.0866 0.82201 1.2564 1.0396 1.6895 0.39063 1.6023-2.51 2.5989-5.2816 1.6895-8.2246-0.563-1.817-2.1218-3.5485-4.0273-3.9805-4.0708-0.952-8.5325 1.2548-10.871 4.6738-2.7283 4.025-2.1653 9.651 2.252 12.334 0.1299 0.087 0.30326 0.1298 0.47656 0.2168-1.0827 0.995-1.2551 2.9442-1.6016 4.2852-0.1732 0.693 0.25989 1.2979 0.99609 1.2109 0.2165-0.04301 0.34623-0.08591 0.51953-0.12891-1.2993 3.722-5.7158 8.9576-6.8418 10.559-0.9094 1.299-1.8621 2.5555-2.7715 3.8535-0.30316-1.212-2.0366-1.4728-2.5996-0.17383-0.38977 0.995-0.7782 1.9464-1.168 2.8984-0.90942-6.145-1.8198-12.291-2.6426-18.479-0.21655-1.559-0.43383-3.0729-0.65039-4.6309 7.3621-12.941 14.032-26.702 19.488-40.465 4.8503 0.476 9.0518-4.4157 10.178-9.2637 0.2166-0.995-0.6056-1.6426-1.3418-1.6426 1.0394-2.337 0.085025-5.5405-2.2969-7.2285-3.3345-2.337-8.4008-3.029-11.605 0-4.1574 3.939-3.1608 13.632 1.4297 16.791 0.13 0.087 0.25877 0.08683 0.38867 0.17383-0.6929 0.952-0.9953 2.0787-1.3418 3.6797-0.0866 0.39 0.17336 0.69227 0.47656 0.82227-4.9803 11.036-11.52 21.682-15.98 32.848-1.0826-7.487-2.2525-14.974-3.6816-22.418 0-0.13 3.41e-4 -0.21674-0.042969-0.30274-3.248-16.836-7.8392-33.325-15.938-48.602 0.0866-0.13 0.1735-0.21673 0.2168-0.30273 0.3031 0 0.60729-0.04277 0.86719-0.25977 4.6338-3.332 4.5032-11.298-0.91016-13.764-4.2007-1.905-9.9167-0.73597-13.338 2.207-4.7637 4.068-4.3746 10.864 0.085937 15.105 2.815 2.64 6.757 2.8116 9.875 0.51758 0.4331-0.303 0.7352-0.69111 1.125-1.0371 6.6259 13.503 10.913 27.784 14.031 42.412-2.4685-2.9-3.8979-6.4039-4.9805-10.17 0.1732-0.30301 0.30436-0.60713 0.34766-0.95313 0.1733-1.558-0.34653-3.1589-0.73633-4.6309-0.6496-2.25-3.8113-2.8556-4.7207-0.43164-1.2126 3.116-2.8156 6.2754-1.4297 9.5644 0.4763 1.169 1.9923 1.1248 2.7285 0.25977v-0.04297c1.8189 5.236 4.6766 10.647 9.8301 11.686 0.99606 5.237 1.9057 10.517 2.7285 15.84-13.382-7.098-20.614-22.506-26.33-36.225v-0.08594c1.6024-1.731 2.1215-3.9393 1.8184-6.3633-0.0433-0.476-0.38917-0.73523-0.82227-0.86523 0.5197-2.943-0.69195-6.406-3.377-7.834-3.5944-1.904-8.4024-1.5138-10.914 1.9922-3.1181 4.284-1.1257 11.597 3.4648 14.064 1.4291 0.736 2.9003 1.2548 4.416 1.2988 0.0866 0.086 0.17317 0.1738 0.25977 0.2168s0.17317 0.08591 0.25977 0.12891 0.21809 0.08789 0.30469 0.08789c0.1732 0.043 0.38887 0.08597 0.60547 0.04297h0.042969c0.2165-0.04301 0.43422-0.1298 0.60742-0.2168 0.0433-0.043 0.085606-0.04294 0.12891-0.08594 0.1299 0.13 0.26096 0.30164 0.34766 0.43164 0.3897 0.562 0.99559 0.64956 1.5586 0.47656 6.5393 13.849 13.382 28.867 27.977 35.229 0.47638 3.029 0.90872 6.0149 1.3418 9.0449-0.086607 0.259-0.21614 0.56227-0.30274 0.82227-0.12995 0.433 0.17306 0.78015 0.51953 0.91015 1.1693 8.396 2.2946 16.792 3.5938 25.102-0.086609 0.259-0.17316 0.4754-0.25976 0.6914-0.34647 0.866 0.087059 1.6022 0.69336 1.9492 0.43304 2.51 0.86576 4.9764 1.2988 7.4434-1.4724-2.164-3.2919-4.979-3.6816-5.498-3.248-4.025-6.4955-8.0051-9.5703-12.203-4.0708-5.583-8.0551-11.297-12.256-16.75-0.7795-1.039-2.5973-2.6384-3.8965-4.0664 0.043299-1.342-6.29e-4 -2.6412-0.17383-4.1562-0.0866-0.779-1.17-1.4281-1.9062-0.99609-0.6929 0.39-1.2977 0.77992-1.9473 1.1699-0.5197 0.346-0.52033 1.1686-0.17383 1.6016 0.3464 0.39 0.64969 0.82094 0.99609 1.2109-0.1732 2.077-0.17257 3.9824 0.17383 6.2324 0.2166 1.428 2.2073 1.2551 2.4238-0.08594 0.13-0.866 0.26096-1.6448 0.34766-2.4238 4.3306 5.54 8.3578 11.252 12.559 16.922 5.0236 6.751 10.826 12.939 14.854 20.297 0.90942 1.687 2.1221 3.6354 3.248 4.0684 4.5906 23.673 11.736 46.439 26.764 66.477 0.4331 0.563 0.99526 0.77933 1.6016 0.73633 0.2165 15.017 0.17469 30.035-0.69141 44.793-4.807-3.332-7.0607-9.6086-8.793-14.975-1.7755-5.497-3.4197-10.992-5.4551-16.402-0.4764-1.342-2.5122-1.1691-2.9453 0.08594-0.7362 2.034-1.2133 4.0257 0.085937 5.9297 0.563 0.779 1.3865 0.95229 2.166 0.77929 3.3779 9.997 5.2405 22.461 14.725 27.568-2.7283 39.687-11.954 77.728-40.146 110.84-1.5157 1.774 1.4296 3.8521 2.9453 2.1211 39.366-45.832 44.649-104.82 43.133-162.73 0.0433-0.26 0.0433-0.51834 0-0.77734v-3.8965c0.0866-0.347 0.001094-0.6482-0.12891-0.9082-0.1299-4.415-0.30303-8.7852-0.51953-13.156-1.6024-34.709-0.52068-69.551 9.1367-103.09 8.9644-4.631 16.197-11.425 23.43-18.393 4.3307-4.155 8.5306-8.482 13.121-12.334 0.3898-0.346 5.1985-5.2372 4.2891-3.1602-0.77949 0.779-1.4295 1.6457-1.9492 2.5547-0.3465 0.346-0.69419 0.69114-1.084 0.99414-0.6929 0.606-0.30327 1.7313 0.51953 1.9043 0.563 1.299 2.5561 1.775 3.1191 0.04297 0.2165-0.432 0.51884-0.82194 0.86524-1.2109 1.4724-0.693 2.7281-1.6442 4.0273-3.1152 0.1733-0.13 0.3037-0.26059 0.4336-0.43359 1.6023-1.861-1.0828-4.6299-2.9883-3.4609v-0.34765c-0.0866-0.865-1.1261-1.0814-1.7324-0.64844-14.768 10.127-25.81 25.143-41.098 34.361 0.3031-0.908 0.4762-1.8156 0.7793-2.7246 10.047-31.161 25.465-59.725 41.662-88.029 6.1062 22.029 11.693 43.972 23.602 64.053-1.645 8.526-3.8552 17.007-6.4102 25.533-31.874 33.065-53.18 76.864-68.684 119.23-0.7362 1.947 2.209 3.029 2.9453 1.125 6.1062-15.494 12.688-30.858 20.137-45.789 8.0551-7.877 17.062-14.066 26.59-19.432 0.3464 0.086 0.73715 0.08603 1.127-0.04297 26.764-8.959 54.22 2.2488 80.074-12.033 24.425-13.503 46.252-31.55 66-51.199 0.866 0.606 1.6878 1.2123 2.5098 1.8613 1.906 1.515 4.071-1.5143 2.209-3.0293-0.693-0.519-1.3851-0.99367-2.0781-1.5137 0.52-0.822-0.38886-1.9919-1.2559-1.2559-0.086 0.043-0.1308 0.13083-0.2168 0.17383-56.039-40.465-111.12 27.828-149.23 63.75-0.2599 0.216-0.38964 0.4324-0.51954 0.6914-7.9251 4.631-15.462 9.7806-22.131 16.1 6.7558-12.984 14.25-25.578 22.781-37.523 19.228-26.876 41.4-44.793 67.861-63.836 0.952-0.649 1.8605-1.3842 2.7695-2.0762 26.98-14.196 61.238-13.634 83.801-36.225 24.468-24.539 34.428-59.811 60.586-82.748 1.385-1.212 0.30228-3.1172-1.3867-3.0312-32.653 1.775-64.744 14.239-89.385 35.965-10.264 9.088-19.574 18.395-25.896 30.686-8.878 17.355-15.333 37.046-29.971 50.549-0.606 0.562-0.64764 1.2553-0.43164 1.8613-4.85 3.462-9.7446 6.838-14.768 10.084-11 7.054-21.005 15.321-30.186 24.453 2.035-6.145 3.7693-12.465 5.1543-18.914 1.43 2.208 4.5481-0.43262 3.1621-2.6406-0.693-1.125-1.3432-2.207-1.9922-3.332 0.433-2.25 0.82197-4.5879 1.168-6.8809 14.811-20.688 19.055-44.187 15.85-67.168 13.599-1.039 31.572-6.3191 41.619-16.662 0.736 0.13 1.5159 0.17187 2.3379 0.17187 0.087 0 0.17377 0.04297 0.25977 0.04297 1.992 0.39 3.0751-1.2964 3.1621-2.9414 15.72 1.515 13.296-20.904-3.1172-17.875-10.351 1.948-13.296 15.536-5.5879 19.648-10.004 9.478-26.115 12.119-38.934 15.668-1.818-11.642-5.5432-23.112-10.826-33.975 11.606-19.346 26.288-36.483 41.402-53.275 7.968 1.731 13.554-2.8996 20.656-6.0156 9.917-4.371 19.966-8.2664 29.666-13.027 0.477 0.952 1.5576 1.6011 2.6836 1.0391 1.386-0.649 1.8634-0.90936 2.8594-1.8184 11.174 3.419 13.945-14.367 4.1582-18.912-10.394-4.804-17.15 10.256-10.74 16.748-7.536 3.765-15.332 6.8388-23.084 10.215-7.925 3.419-15.806 9.4771-24.598 9.9961 5.327-5.886 10.697-11.727 15.98-17.613 0.347 0.952 1.819 1.2979 2.252 0.08594 0.477-1.341 0.86483-2.6824 1.2988-4.0234 8.704-9.781 17.106-19.736 24.771-30.209 10.827 5.237 23.56-2.4675 35.512-5.0645-0.303 1.256-0.1299 2.5528 0.9961 3.5918 1.819 1.731 3.6372 2.1205 5.2832 1.6445 0.909 0.043 1.8623-0.12947 2.9453-0.60547 1.602-0.735 2.1213-2.9863 1.9473-5.2363 0.174-0.52 0.34855-1.0386 0.43555-1.6016 0.173-0.909-0.56372-1.6443-1.3867-1.8613-0.607-1.125-1.4727-1.9902-2.5547-2.0762-1.343-0.13-2.989 0.6055-4.418 1.6875-0.216-0.52-0.34659-1.0815-0.43359-1.6445 0.736-0.086 1.3861-0.90956 0.95312-1.6016-0.563-0.822-0.95392-1.7306-1.1699-2.7266-0.607-1.731-3.6373-1.6891-4.0703 0.1289-0.39 1.688-0.21641 4.2849 0.43359 6.8809-11.13 2.64-22.261 9.2633-32.957 6.3633 7.795-10.863 14.682-22.288 20.225-34.666 0.173 0.0433 0.30356 0.12858 0.47656 0.17188 2.209 0.476 4.2866-0.8655 5.9316-2.4668 0.217 0.1298 0.47733 0.13119 0.73633 0.087891 4.764-1.0819 7.0585-6.0608 6.0195-10.389 0.173-0.3462 0.34849-0.69091 0.52149-1.0371 0.519-1.2118-0.99619-2.2941-1.9922-1.8613-0.26-0.3463-0.47822-0.73616-0.82422-1.0391-3.421-3.2892-9.6577-5.2795-13.512-1.4277-2.295 2.337-2.7709 5.7548-2.2949 8.9141 0.39 2.8564 1.0398 6.622 3.4648 8.3965-3.897 8.0065-8.4439 15.538-13.381 22.766 0.866-5.8 0.38791-12.421 0.12891-18.307 0.519 0.3462 1.2994 0.38943 1.7754-0.25977 2.728-3.5921 4.5474-11.772-1.6016-13.287-5.457-1.3849-6.0194 5.2789-5.0234 8.8711 0.303 1.0387 1.0812 1.7755 1.9902 2.0352 1.646 10.992 1.1715 28.607-7.1875 32.459-0.909 0.432-0.6071 1.4705 0.1289 1.7305-6.106 7.79-12.644 15.278-19.312 22.592 0.303-1.168 0.64821-2.3379 0.9082-3.5059 1.386-6.189 1.8616-16.186 4.8066-22.332 0.26-0.087 0.47639-0.25861 0.65039-0.47461 1.212-1.515 2.4686-2.9431 3.7676-4.3711 1.386-1.602-0.13125-3.8533-1.9062-4.1133-3.421-0.519-3.8528-4.5009-2.4238-6.8379 3.334 2.164 5.7595 2.2073 9.3105-0.38867 1.645-1.212 1.2551-3.5054-0.13086-4.6738-11.477-9.781-21.912 11.339-10.826 16.186-0.13 0.216-0.2157 0.43439-0.3457 0.65039-0.087 0.087-0.1738 0.2157-0.2168 0.3457-0.043 0.044-0.04389 0.08591-0.08789 0.12891-0.173 0.433-0.38847 0.82286-0.60547 1.2559-0.346 0.693-0.21709 1.2985 0.12891 1.7305-1.429 10.084-3.637 20.385-6.582 30.252-1.948 2.121-3.8967 4.1993-5.8457 6.3203-0.087-0.173-0.21656-0.34662-0.47656-0.39062-3.465-0.909-3.6373-8.1362-4.0703-10.949-0.606-3.679-1.126-7.6174-3.291-10.777-0.52-0.692-1.6898-0.77784-2.3398-0.21484-0.606 0.563-1.2124 1.0815-1.7754 1.6445-0.476 0.173-0.90883 0.43114-1.2988 0.99414-1.559 1.688-2.5553 3.2043-2.9883 5.2383-0.043 0.13-0.08786 0.21571-0.13086 0.34571-0.13 0.346-0.12994 0.64814-0.08594 0.99414v0.08789c-0.044 0.519 0.26039 0.9939 0.65039 1.2539 0.78 0.822 2.0782 1.2128 3.0312 0.2168 0.433-0.476 0.82094-0.99467 1.2109-1.5137 1.126-0.779 2.0374-1.862 2.8594-3.334v-0.04296c1.17 3.592 1.2549 7.7909 2.2949 11.297 0.823 2.769 1.9494 5.8861 5.0234 6.5781-20.787 22.245-41.748 44.404-55.52 71.756-3.811-7.53-8.4446-14.672-13.598-21.467 2.901-7.184 5.9758-14.413 9.0508-21.727 0.087 0.692 0.17277 1.3861 0.25976 2.0781 0.17301 1.342 2.2519 1.2121 2.3379-0.08594 0.174-2.164 0.21875-4.3282 0.21875-6.4922 59.85-35.402 37.157-118.97 55.043-175.84 0.13-0.34623 0.12997-0.64822 0.04297-0.95117 0.433-0.2164 0.77889-0.43431 1.2129-0.60742 1.342-0.56263 0.69072-2.8547-0.73828-2.4219-0.866 0.25967-1.6878 0.60525-2.5098 0.9082-0.434-0.21639-1.0399-0.13067-1.1699 0.38867v0.042969c-0.95199 0.38951-1.9064 0.7801-2.8164 1.2129-0.216 0.04328-0.43244 0.085626-0.64844 0.12891 0.563-1.082 1.1264-2.1625 1.7324-3.2012 0.42225-0.74655-0.17929-1.7615-0.9082-1.8203zm-0.65039 8.7441c1.083 0.08656 1.5156 0.60515 1.6016 1.4707-13.944 56.868-16.456 112.83-46.121 165.32-0.13 0.217-0.13089 0.43439-0.08789 0.65039-1.169 0.909-2.2948 1.7737-3.5078 2.6387 11.563-27.481 22.736-55.612 26.287-84.695 3.508-28.348 6.4109-57.646 18.797-83.57 0.952-0.60585 1.9922-1.2124 3.0312-1.8184zm-12.039 4.2852c-16.414 14.369-24.512 38.129-29.016 58.902-5.803 26.833-9.5702 55.786-10.74 84.047-4.547-22.678-11.866-45.139-6.8418-68.207 5.543-25.361 21.783-61.282 46.598-74.742zm1.6445 3.0293c-8.488 18.826-10.221 43.798-12.516 61.672-4.028 31.68-13.901 60.33-24.727 89.197 5.543-49.944-1.9068-117.72 37.242-150.87zm4.8066 52.324c-0.389 6.4485-0.82269 12.897-1.4297 19.346-2.988 32.589-9.5256 63.921-33.518 85.041 21.177-30.338 29.101-67.254 34.947-104.39zm71.283 5.2305c0.55225-0.081137 1.1485-0.059703 1.6465 0.091797 1.386 0.3895 2.5969 0.99646 3.4199 2.0352 0.606 0.779 0.95309 1.4277 0.99609 2.25-0.606 0.8222-1.2123 1.6447-1.9043 2.4238-1.04 1.1685-2.7289 3.2463-4.4609 3.7656 0.087-0.3029 0.2157-0.56256 0.3457-0.82226 0.347-0.8656-0.9518-1.3418-1.3418-0.51953-0.087 0.1298-0.12979 0.25844-0.21679 0.43164-0.086-0.2164-0.17383-0.38844-0.17383-0.43164-0.433-1.4282-0.6933-3.0731-0.7793-4.5879-0.13-1.6013 0.21603-3.4188 1.082-4.1113 0.325-0.25965 0.83447-0.44425 1.3867-0.52539zm4.3164 18.582c-0.55627 0.005647-1.103 0.071782-1.6309 0.20703-4.85 1.2551-5.2397 6.2309-3.6367 10.299 1.212 3.03 3.9835 5.4101 7.1875 3.2891 0.044 0 0.08591-0.04294 0.12891-0.08594 0.26 0.389 0.73686 0.69339 1.2559 0.65039 5.067-0.216 7.2328-6.4922 4.5918-10.344-1.6445-2.3005-4.8926-4.0461-7.8965-4.0156zm-0.10938 4.5566c0.09467 0.003038 0.194 0.010672 0.29688 0.021484 1.213 0.1299 2.5988 0.73629 3.4648 1.5586-0.736 1.7748-1.9916 3.938-3.7246 4.543-1.039 0.39-1.6454-2.9424-1.7324-3.8945-0.043-0.3896 0.04297-1.2992 0.04297-1.2559 0.13-0.5194 0.13069-0.47567 0.30469-0.60547 0.22662-0.22724 0.685-0.38845 1.3476-0.36719zm-62.838 21.721c-1.0892 0.02806-2.0899 1.084-2.1289 2.1035-0.087 2.64 0.21817 5.8857 3.0762 7.0117 0.606 0.259 1.1255 0.25983 1.6445 0.17383 0.13 0.346 0.21762 0.69117 0.39062 0.95117 0.39 0.692 1.6021 1.1258 2.0781 0.21679 0.563-1.038 0.86612-2.3368 0.95312-3.5918 0.389-0.519 0.77904-1.0396 1.082-1.5156 0.823-1.298-0.64943-2.5972-1.7324-2.0352-0.996-1.947-2.9014-2.8991-5.0234-3.2891-0.11363-0.02025-0.22717-0.02829-0.33985-0.02539zm46.727 28.92c1.1104 0.14127 1.9976 0.88285 2.2031 2.5274 0.607 2.294-0.04227 3.8508-1.9473 4.7168-0.13-0.996-1.3009-1.9478-2.2969-1.3418-0.519 0.303-1.0386 0.51926-1.5586 0.82226-5.067-2.1742 0.26848-7.1484 3.5996-6.7246zm-218.33 3.7715c0.28691-0.03238 0.51411 0.05356 0.70898 0.22656-1.7755 2.25-3.29 4.6306-4.6758 7.1406 0.38974-1.948 0.86441-3.8938 1.4707-5.7988 0.47638-0.346 0.91-0.73503 1.4297-1.082 0.43306-0.3025 0.7795-0.45396 1.0664-0.48633zm-6.4785 4.7715c-0.04331 0.13-0.04456 0.25868-0.08789 0.38868-15.504 27.135-16.153 61.931-1.082 89.586 0.47635 0.823 1.6449 0.30449 1.3418-0.60351-9.7873-28.002-13.554-56.522-1.125-83.398-0.17322 1.558-0.26139 3.1158-0.30469 4.6738-7.7519 20.384-6.3642 45.832-0.99414 65.438 7.2322 26.313 29.057 45.182 45.99 66.086-10.307-9.176-24.209-16.1-33.736-24.02-30.921-25.794-42.915-88.634-10.002-118.15zm5.543 2.8984c-4.4173 22.418 4.0697 45.183 15.416 64.572 13.815 23.543 35.468 44.101 32.609 73.314-0.2165 0.303-0.38897 0.65009-0.60547 0.99609-5.933-16.056-14.42-31.681-20.656-46.266-10.524-24.625-31.572-55.828-30.662-84.695 1.0827-2.727 2.426-5.3689 3.8984-7.9219zm2.3809 0.34766c0.04333 0.476 0.13019 0.90879 0.2168 1.3418 1.3425 5.323 2.944 10.516 5.1094 15.537 5.5432 12.853 12.3 25.057 19.1 37.305 11.476 20.687 33.693 53.493 23.775 78.422 0.1299-15.754-6.4096-30.08-15.244-43.496-18.102-27.569-38.414-54.659-32.957-89.109zm-8.834 14.973c2.122 21.986 14.508 44.752 23.299 62.842 10.956 22.548 27.327 50.159 33.26 77.252-0.6496-1.861-1.5586-3.5483-2.5547-5.2363 0.2599-0.303 0.43201-0.73497 0.12891-1.168-14.378-22.548-37.676-40.466-48.459-65.178-8.4881-19.476-11.953-46.223-5.6738-68.512zm188.78 0.62696c-1.5358-0.00537-3.0566 0.04697-4.5508 0.15234-1.256 0.087-1.3428 2.0348-0.2168 2.4238 6.366 2.164 13.339 1.3418 19.705 3.5488 1.083 0.346 2.166 0.77989 3.248 1.2129-0.303 0.995-0.52046 1.9914-0.56446 2.9434-1.256 3.765-2.6394 7.444-4.0254 11.166-0.433 1.168 0.9523 2.0328 1.9043 1.3398 2.642-1.904 4.6344-4.3267 6.1934-7.0527 1.429 0.303 2.9013 0.12858 4.1133-0.60742 1.949-1.169 3.855-2.9861 3.248-5.4961-0.433-1.905-1.9057-2.8141-3.6387-3.2461 0.044-0.174 0.08786-0.34653 0.13086-0.51953 0.996-3.852-4.0697-5.799-5.8457-2.207-6.1222-2.5318-13.046-3.635-19.701-3.6582zm-111.73 8.3809c0.44592 0.02223 0.9402 0.12387 1.4707 0.29687-8.618 52.93 45.816 97.205 38.021 151.65-9.614-19.173-14.032-39.6-20.008-60.158v-0.08594c-0.9527-3.289-1.9486-6.5791-3.0312-9.8691-7.7519-23.889-23.254-53.794-18.967-79.588 0.25981-1.6552 1.1759-2.3128 2.5137-2.2461zm3.8945 1.3359c0.6063 0.346 1.2137 0.692 1.8633 1.125-0.6496 0.346-1.0396 1.1702-0.47656 1.9062 27.066 36.613 58.55 88.763 40.621 134.86 2.858-39.86-7.1888-81.105-34.602-110.1-0.8228-0.822-1.993 0.173-1.3867 1.125 16.587 25.232 30.533 50.205 33.174 81.02 1.083 12.204 0.69264 23.975-0.69336 35.617-0.216 0.433-0.47544 0.82386-0.64844 1.2559 3.291-21.12-3.2492-41.721-11.824-61.197-12.689-28.78-24.815-54.141-26.027-85.605zm4.8945 3.332c8.8779 6.838 20.007 19.045 21.826 21.512 8.228 11.036 15.764 22.981 20.441 36.051 10.437 29.127 10.35 59.119-5.9766 85.129 0.08699-0.649 0.12979-1.2983 0.21679-1.9473 25.941-43.279-8.0552-106.16-36.508-140.74zm209.47 29.734c-56.689 9.391-82.976 61.239-118.1 100.93-2.511 2.034-4.9802 4.1106-7.4922 6.0586 15.417-19.562 20.267-46.526 38.889-64.27 23.429-22.375 53.874-39.772 86.701-42.715zm0.47461 1.2109c-1.299 1.255-2.5545 2.5106-3.8535 3.7656-24.728 11.339-44.995 31.941-64.18 50.594-10.437 10.127-21.004 20.038-31.83 29.602 28.496-34.752 50.32-74.007 99.863-83.961zm-7.8809 7.748c-15.201 15.277-30.185 30.77-46.035 45.355-20.311 18.696-42.441 34.276-64.008 51.328-0.65 0.52 3e-4 1.6459 0.7793 1.2559 40.795-21.899 75.658-58.471 107.71-93.008-4.417 7.098-8.446 14.717-9.918 17.227-9.571 16.446-18.622 35.099-33.086 47.953-20.831 18.48-47.941 21.335-72.236 32.197 3.075-2.683 6.0639-5.4526 8.9219-8.3516 35.642-31.421 66.822-71.106 107.88-93.957zm-124.88 7.1973c-2.2513-0.00524-4.4859 0.86211-6.0801 2.584-1.299 1.428-1.8626 3.5491-1.4726 5.4531 0.433 2.207 1.9062 5.5823 4.2012 6.3613 2.296 0.779 4.1569-0.30416 5.6289-2.0352v0.08789c0.087 0.779 1.1254 1.3412 1.8184 0.95117 4.071-2.293 4.5046-9.6502 0.34765-12.16-1.3548-0.82631-2.903-1.2386-4.4434-1.2422zm22.049 2.7324c2.7425-0.24164 4.2866 1.5918 4.6113 5.5195-1.3 2.294-3.2059 3.7221-5.6309 4.3281-0.087 0-0.08591 0.08789-0.12891 0.08789-0.433-0.433-0.99734-0.73636-1.7773-0.69336-0.26 0-0.38847-0.08594-0.60547-0.08594-0.173-0.044-0.34553-0.04492-0.51953-0.04492-4.807-0.649-3.5068-6.5337 0.91016-8.1777 1.18-0.541 2.2264-0.85305 3.1406-0.9336zm-22.082 1.6191c0.85 0.00538 1.6831 0.26566 2.2676 0.78516 0.173 0.13 0.34756 0.4333 0.47656 0.7793-1.385 2.38-3.465 5.5388-4.375 4.7598-0.822-0.693-1.7735-2.4668-1.7305-3.5918 0.043-0.996 0.30309-1.4712 0.9961-1.9902 0.64949-0.498 1.5152-0.74756 2.3652-0.74219zm13.682 22.436c-0.53208-0.01109-1.0583 0.2132-1.4102 0.76758-0.78 1.212-2.0365 1.8181-2.6855 3.2461-0.39 0.823 0.13006 2.033 1.0391 2.293 1.256 0.346 3.4211 0.82253 4.2441-0.60547 0.303-0.519 0.47656-1.0385 0.47656-1.6445 0-0.26-0.08597-0.822-0.04297-1.125 0.043-0.173 0.1728-0.30264 0.2168-0.43164 0.53556-1.3097-0.66731-2.4756-1.8379-2.5zm-87.98 3.4512c1.3858 4.587 2.7714 9.1747 4.0273 13.762-5.4134 8.829-10.566 17.746-15.416 26.748-0.4764-13.547 5.9321-28.046 11.389-40.51zm-107.83 37.654c0.63808 0.08661 1.2495 0.2683 1.8125 0.56055 0.563 0.303 1.2122 0.8642 1.2988 2.0332 0.043299 0.779-0.043829 1.5589-0.17383 2.3379-0.3464 0.692-0.8221 1.4281-1.3418 2.1211-1.126-0.65-2.8592 0.38844-2.123 1.7734 0.0433 0.087 0.087559 0.17277 0.13086 0.25977-2.3819 1.947-5.3276 2.4681-7.1465-1.2109-1.3425-2.683-0.82235-5.1072 1.6895-6.5352 1.7864-1.0065 3.9393-1.5997 5.8535-1.3398zm25.598 17.588c-3.4128-0.15793-6.7857 2.3791-8.3691 5.2188-2.0787 3.636-1.4294 8.4822 2.0352 10.992-0.25984 1.039-0.47521 2.1641-0.64844 3.2891-0.21653 1.385 0.60517 2.2517 1.6445 2.5547v0.38867c0.12992 1.039 1.6033 1.7302 2.3828 0.9082 0.43307-0.433 0.77889-0.86487 1.082-1.2969 0.30315 9.651-1.6456 19.604-2.5117 29.082-0.086612 0.995 1.4736 1.1258 1.6035 0.17383 1.559-11.988 4.1558-23.457 3.4629-35.402 1.3425-1.342 2.34-3.2894 2.8164-5.1934 0.12992-0.044 0.21612-0.08679 0.30274-0.21679 2.4685-3.462 1.7745-9.6937-3.1191-10.43-0.22736-0.03519-0.45412-0.05783-0.68164-0.06836zm86.436 1.8711c-2.4726 0.0403-5.0432 1.2855-6.9785 2.6543-2.7283 1.947-5.6294 6.0598-2.8145 9.2188 1.6457 1.818 4.4596 3.0291 6.8848 2.1211 1.0826-0.433 1.8624-1.1702 2.4688-2.0352 0.3898 0.476 1.0405 0.64956 1.6035 0.47656 2.3385-0.866 3.9827-4.5458 4.1992-6.9258 0.1732-1.818-0.47539-3.8088-2.1211-4.7168-1.015-0.58156-2.1183-0.81128-3.2422-0.79297zm-86.773 2.8945c0.07917 0.00148 0.15903 0.00879 0.24023 0.01954 0.08661 0 0.17316 0.04296 0.25977 0.04296 0.080658 0.04005 0.26305 0.15076 0.32422 0.20118 0.003177 0.03121 0.33163 0.47123 0.36914 0.62109 0.34646 0.909 0.52013 1.8614 0.69336 2.9004-0.21653 0.476-0.52074 1.0815-0.86719 1.7305-0.25984-0.26-0.51878-0.47544-0.86523-0.64844-0.60629-1.126-2.2084-1.2988-3.0312-0.25976-0.56299 0.692-0.99696 1.3851-1.3867 2.1211-0.69291-1.385-0.60576-2.9002 0.43359-4.2852 0.56299-0.736 1.2556-1.4723 2.0352-1.8613 0.71997-0.37888 1.2407-0.59239 1.7949-0.58204zm86.941 2.0527h0.25977 0.04297c0.0433 0.26 0.0433-0.04327 0 0.30273 0 0.26-0.04264 0.56422-0.08594 0.82422-0.0433 0.259-0.12987 0.56224-0.25977 0.86524-0.433-0.216-0.95362-0.17327-1.3867 0.30273-0.7795 0.909-2.079 3.1588-3.4648 2.4668-0.5197-0.26-0.82243-0.3463-1.2988-0.7793 0.0433-0.087 0.08756-0.2597 0.13086-0.3457l0.04297-0.08789c0.0433-0.043 0.08527-0.08485 0.17187-0.21485 0.13-0.173 0.26073-0.34653 0.39063-0.51953-0.2165 0.259 0.65036-0.64926 0.91016-0.82226 0.4764-0.346 0.9518-0.6923 1.125-0.7793 1.0394-0.562 1.949-0.995 2.7285-1.125 0.2166-0.043 0.47686-0.08789 0.69336-0.08789zm-126.01 4.9121c0.59548 0 1.2017 0.15204 1.6348 0.49804 0.3031 0.26 0.7782 0.82236 0.9082 1.8184 0.1732 1.341 0.17346 2.6834 0.47656 4.0254-0.5197 0.259-0.99477 0.64897-1.168 1.168l-0.13086 0.43164c-1.4291-0.303-2.7707-1.3407-3.377-2.6387-0.563-1.212-0.9958-2.4247-0.7793-3.6797 0.0866-0.389 0.38883-0.86493 0.86523-1.2109 0.38975-0.26 0.97484-0.41211 1.5703-0.41211zm56.646 0.18945c1.5002-0.22706 3.1166 0.2775 4.3184 1.2188 1.8622 1.472 0.9963 2.509 0.2168 4.457-0.3465 0.865 0.4757 1.8175 1.3418 1.6445 0.9094-0.173 1.603-0.56306 2.166-1.0391-0.6929 2.38-2.0358 4.6301-4.4609 5.5391-1.9921 0.736-3.985 0.3473-5.1543-1.4707-1.2992-1.948-2.7706-8.3522 0.13086-9.8672 0.45472-0.24875 0.94135-0.40673 1.4414-0.48242zm182.49 18.953c5.1233 0.18961 10.279 1.1016 15.449 2.8652-49.24-6.103-80.809 33.108-116.84 62.408-0.866 0.432-1.7336 0.82286-2.6426 1.2559 2.858-2.813 5.6733-5.6284 8.4883-8.4414 25.464-25.334 59.682-59.415 95.545-58.088zm3.8887 4.6797c5.818-0.24553 11.81 0.04661 18.057 0.91211 0.606 0.26 1.2572 0.56224 1.9062 0.86524-7.925-0.563-15.591 0.77909-22.953 3.2461-11.606 1.341-22.779 4.4142-33.736 10.906-20.744 12.334-37.937 28.565-59.373 39.947 16.066-12.594 28.28-29.776 46.295-40.119 16.468-9.4455 32.351-15.021 49.805-15.758zm-126.93 3.5527c-1.2559 0-2.4677 0.95212-2.8574 2.0781-4.5905-0.693-9.4852-0.087-13.123 2.25-1.0393 0.649-0.08561 1.9464 0.86719 1.9024 4.8936-0.303 10.999-1.5568 15.59 0.86718 0.25979 0.26 0.56203 0.47633 0.86523 0.73633-0.0866 0.173-0.08528 0.30158-0.17188 0.51758-0.563 1.472-0.43359 2.4255-0.43359 3.8965 0 0.866 0.60589 1.5147 1.5586 1.4277 3.6811-0.476 6.2375-3.8511 5.5879-7.7031-0.6929-4.068-3.9419-6.0156-7.8828-5.9726zm153 1.9473c0.346 0.216 0.73603 0.43241 1.082 0.69141-0.086 0.044-0.17277 0.1298-0.25977 0.2168-0.086-0.044-0.12781-0.08703-0.25781 0.04296-20.008 4.414-37.333 16.318-54.395 27.094-22.347 14.109-42.311 23.716-68.338 26.096 13.728-6.405 27.673-12.506 40.578-20.469 15.98-9.911 32.48-23.762 50.625-30.557 9.225-1.515 19.056-2.0778 30.1-2.4668 0.476-0.043 0.69124-0.30244 0.86524-0.64844zm-2.4688 3.8086c-27.24 23.89-58.94 55.136-96.27 54.574-11.174-0.173-22.131-0.99627-33.088 0.30273 1.819-0.909 3.6819-1.7737 5.5449-2.6387l0.04296 0.04297c21.393 3.592 43.09-6.9251 60.846-17.744 20.744-12.638 40.318-25.751 62.924-34.537zm-41.357 2.1641c-12.385 6.665-24.079 15.493-35.252 22.807-5.543 3.636-11.346 6.7952-17.322 9.8242 7.406-5.323 14.422-11.208 21.395-16.488 10.74-8.093 20.787-13.027 31.18-16.143zm-208.67 44.754c-0.71405-0.0136-1.4433 0.32562-2.0117 1.1641-1.6023 2.207-2.7726 4.112-3.3789 6.752-0.4763 2.164 2.2949 2.7257 3.5508 1.4707 0.2598 0.043 0.47676 0.086 0.69336 0 1.2125-0.476 1.9061-1.1234 2.4258-1.8594 3.4646 0.606 8.5742 5.8426 9.8301 7.1406 1.689 1.774 6.7134 5.7978 7.1465 8.1348 0.30315 1.558 2.5971 1.1264 2.4238-0.43164-0.47637-4.458-7.0154-10.258-10.047-12.984-2.3386-2.077-5.2406-4.1976-8.1855-4.9336 0.0433-0.26 0.087128-0.4763 0.17383-0.7793 0.4466-1.9044-1.0502-3.6439-2.6211-3.6738z"/>
</svg>
