<svg xmlns="http://www.w3.org/2000/svg" version="1.0" viewBox="131.6 129.4 725.5 742.9">
  <path fill="#cedfef" d="M855.3,762.31c-8.36-57.52-60.46-112.98-94.93-149.67c-67.84-72.21-105.08-139.33-117.2-211.24 c-2.62-15.53-3.72-32.93-4.88-51.35c-2.9-45.83-6.19-97.78-35.66-131.29c-6.43-7.31-23.14-23.76-39.3-18.54 c-11.92,3.84-17.36,19.31-21.34,30.61c-0.81,2.3-1.58,4.47-2.32,6.34c-6.29,15.82-13.68,31.14-21.78,46.07 c-4.92-40.05-15.66-82.05-45.16-115.6c-21.67-24.65-48.02-38.22-74.18-38.22c-7.95,0-15.8,1.23-23.31,3.65 c-37.86,12.21-50.34,47.66-56.36,64.75c-0.59,1.66-1.19,3.38-1.52,4.22c-17.48,43.94-44.91,84.16-73.94,126.74 c-20.81,30.52-42.33,62.07-60.92,96.31c-23.06,42.46-50.89,105.69-32.23,171.51c-7,24.57-9.11,50.64-0.4,76.12 c18.96,55.43,76.65,83.19,129.24,104.86c100.27,41.32,193.23,71.1,276.28,88.52c10.75,2.26,23.68,4.49,35.74,4.49 c12.13,0,23.38-2.27,30.61-9.06c5.64-5.3,8.28-12.87,7.9-22.54c5.33,0.5,10.86,0.82,16.44,0.82h0c39.75,0,62.15-16.23,73.93-29.85 c5.39-6.22,11.02-14.7,14.87-25.66c15.89,4.02,31.46,7.64,46.69,10.83c10.75,2.26,23.68,4.49,35.73,4.49 c12.13,0,23.38-2.27,30.61-9.06C854.62,784.24,857.1,774.75,855.3,762.31z M186,426.99c18.49-34.06,39.96-65.53,60.71-95.96 c29.17-42.77,56.71-83.16,74.35-127.51c0.36-0.91,0.98-2.67,1.6-4.43c5.78-16.43,17.82-50.61,53.79-62.21 c7.12-2.29,14.55-3.46,22.08-3.46c24.99,0,50.27,13.09,71.17,36.86c30.14,34.28,40.29,77.9,44.84,119 c-16.55,29.63-35.73,57.76-54.5,85.29c-15.66,22.96-31.73,46.54-46.25,70.92c-0.65-7.89-1.18-16.06-1.71-24.45 c-2.9-45.83-6.19-97.78-35.66-131.29c-6.43-7.31-23.13-23.76-39.31-18.54c-11.92,3.84-17.36,19.31-21.34,30.61 c-0.81,2.3-1.58,4.47-2.32,6.34c-19.72,49.58-50.17,94.23-79.61,137.4c-20.04,29.39-40.76,59.78-58.03,91.57 c-8.54,15.72-17.23,33.45-23.35,52.2C137.61,527.1,164.02,467.48,186,426.99z M517.98,332.04c1.08,17.05,2.1,33.16,4.28,46.08 c10.51,62.37,42.61,119.36,104.08,184.8c38.85,41.36,97.56,103.85,108.23,177.26c2.26,15.55,0.88,28.58-2.32,39.3 c-49.38-12.66-101.81-29.28-156.82-49.7c-14.12-17.3-28.82-32.95-41.23-46.16c-67.84-72.21-105.08-139.33-117.2-211.24 c-1.08-6.39-1.89-13.1-2.56-20.06c15.18-25.98,32.29-51.09,48.94-75.5c17.79-26.09,35.94-52.71,51.91-80.67 C516.48,308.52,517.25,320.59,517.98,332.04z M506.81,702.89c-51.78-21.33-108.56-48.61-126.98-102.45 c-15.82-46.24,5.44-95.04,25.72-132.39c1.79-3.29,3.62-6.56,5.47-9.82c0.57,5.08,1.22,10.04,2.02,14.82 c6.68,39.65,20.64,77.24,42.67,114.92c18.7,31.99,43.42,64.17,75.56,98.38c11.07,11.78,23.97,25.51,36.63,40.61 C547.86,719.44,527.5,711.42,506.81,702.89z M573,733.15c24.48,30.13,46.99,65.15,52.16,100.72c0.03,0.21,0.05,0.41,0.08,0.62 c-9.73-1.15-18.56-2.84-25.34-4.26c-86.11-18.06-182.08-48.77-285.24-91.28c-28.53-11.75-58.66-25.25-85.78-44.23 c-35.82-25.07-60.14-55.78-72.28-91.28c-0.78-2.27-1.49-4.54-2.15-6.81c6.04-20.72,15.58-40.38,24.94-57.6 c17.17-31.61,37.83-61.91,57.82-91.22c29.56-43.35,60.13-88.18,80.02-138.17c0.77-1.94,1.55-4.15,2.38-6.49 c3.9-11.09,8.76-24.89,18.79-28.13c1.7-0.55,3.43-0.79,5.16-0.79c12.83,0,25.85,13.55,29.91,18.17 c28.56,32.49,31.81,83.71,34.67,128.91c0.66,10.42,1.31,20.49,2.21,30.13c-2.83,4.87-5.61,9.78-8.29,14.72 c-20.67,38.07-42.31,87.88-25.99,135.6c18.96,55.43,76.65,83.19,129.24,104.86C528.25,716.05,550.83,724.9,573,733.15z M619,858.6 c-14.57,13.68-50.86,6.07-62.79,3.57c-82.82-17.37-175.53-47.08-275.58-88.3c-51.78-21.33-108.56-48.61-126.98-102.45 c-7.68-22.46-6.6-45.53-1.15-67.6c0.1,0.3,0.2,0.61,0.3,0.91c12.42,36.32,37.25,67.7,73.77,93.26 c27.44,19.2,57.81,32.81,86.55,44.65c103.4,42.6,199.6,73.39,285.95,91.5c7.07,1.48,16.33,3.26,26.55,4.42 C626.07,847.3,623.86,854.04,619,858.6z M716.99,807.32c-11.24,12.99-32.66,28.47-70.9,28.47h0c-5.69,0-11.33-0.34-16.76-0.87 c-0.06-0.54-0.12-1.08-0.21-1.63c-5-34.41-25.66-68.09-48.83-97.45c52.77,19.38,103.14,35.24,150.7,47.44 C727.33,793.54,722.04,801.48,716.99,807.32z M845.18,787.62c-14.57,13.69-50.86,6.08-62.79,3.57c-15.1-3.17-30.53-6.75-46.27-10.73 c3.32-11.18,4.74-24.73,2.4-40.87c-10.85-74.65-70.08-137.7-109.27-179.42c-60.89-64.82-92.67-121.17-103.05-182.72 c-2.14-12.71-3.16-28.72-4.23-45.68c-0.84-13.23-1.73-27.29-3.28-41.67c9.23-16.61,17.64-33.71,24.7-51.46 c0.77-1.94,1.55-4.15,2.37-6.49c3.9-11.09,8.76-24.89,18.79-28.13c1.7-0.55,3.43-0.79,5.16-0.79c12.83,0,25.85,13.55,29.92,18.17 c28.56,32.49,31.81,83.71,34.67,128.91c1.17,18.52,2.28,36.02,4.93,51.76c6.68,39.65,20.64,77.24,42.67,114.92 c18.7,31.99,43.42,64.18,75.56,98.38c34.13,36.33,85.71,91.24,93.89,147.51C852.95,773.95,850.87,782.27,845.18,787.62z"  />
</svg>