<svg fill="#e3ecf6"  version="1.0" viewBox="0 0 891.4 1336" xmlns="http://www.w3.org/2000/svg">
  <path d="m499.61 0.36522c-0.57766-0.05484-1.1445 0.01609-1.6445 0.24609a9.37 9.37 0 0 0-3.4902 2.1797 32.18 32.18 0 0 0-4.6406 7 218 218 0 0 0-8.3906 20.871c-6 18.75-11.689 37.599-17.289 56.469a162.11 162.11 0 0 0-5.2207 23.32 104.8 104.8 0 0 1-2.5801 12.391 264.93 264.93 0 0 0-7.1992 35.811c-1.28 10.23-2.6211 20.459-3.6211 30.719a72.32 72.32 0 0 1-3.2285 15.09c-1 3.12-2.1699 6.1903-3.1699 9.3203a108.9 108.9 0 0 1-18.811 35.92c-2.95 3.64-5.8902 7.3307-8.4902 11.221-12.88 19.33-28.92 35.6-46.68 50.33a97.55 97.55 0 0 0-7.4297 6.4492c-6.59 6.7-13.93 12.54-21.08 18.6-4.65 3.91-9.6098 7.5602-13.84 11.91-4.61 4.73-9.8413 8.6797-14.611 13.18-2.73 2.53-5.6098 4.9712-8.3398 7.5312-5.45 5.13-10.68 10.51-16.33 15.42-8.13 7.07-16.83 13.479-24.42 21.189a37.84 37.84 0 0 1-5.5996 4.25c-7.71 5.32-15.5 10.52-23.16 15.92-9.94 7-20.54 13.06-29.84 21-4.63 3.95-9.1703 8.0212-13.82 11.951a166.35 166.35 0 0 0-23.75 23.889 32.11 32.11 0 0 1-4.6094 5.291c-5.17 4.19-8.9999 9.5898-13.17 14.59a70.43 70.43 0 0 1-5.541 6.3691c-9.59 9.11-16.889 20.111-24.889 30.461-12.44 15.4-20.64 33.509-31.24 50.119a112 112 0 0 0-8.7402 17.621c-5.55 13.41-10.681 26.97-14.311 41.1-2.68 10.43-6.0694 20.699-9.6094 30.879-6 17.25-12.36 34.391-18.6 51.561-0.96 2.64-2.2903 5.1694-3.0703 7.8594-3 10.35-6.2404 20.66-8.6504 31.16-2.31 10.08-5.3906 19.89-8.6406 29.67a365.75 365.75 0 0 0-10.639 40.781 31.62 31.62 0 0 0-0.33008 11.189 9.88 9.88 0 0 0 6.75 8.25 20.92 20.92 0 0 0 13.799 0.84961c4.47-1.37 8.8105-2.8096 12.811-5.5996 6.51-4.58 13.529-8.4202 20.109-12.91a162.57 162.57 0 0 0 14.381-11.23c7.86-6.76 13.609-15.53 21.699-22 6.52-8.68 15.1-15.33 22.65-23 7.88-8 16.231-15.539 23.301-24.369a210.41 210.41 0 0 1 17.07-18.641c7.03-6.82 14.589-13.18 21.859-19.82 4.49-4.1 9.209-8.0296 13.209-12.6 7.39-8.5 16.39-15.469 23.07-24.609a12.89 12.89 0 0 1 2-1.9394c8.16-7.14 14.941-15.61 21.611-24 11.1-13.94 21.269-28.61 31.689-43.08a61 61 0 0 0 4.6992-8.6016c4.4-8.79 8.1514-17.9 13.691-26.1 5.77-8.53 12.058-16.769 15.898-26.469a26.87 26.87 0 0 1 2.2109-3.5898 319.22 319.22 0 0 0 15-28.631c2.38-5.08 4.6498-10.239 6.5098-15.529 4.65-13.3 9.2002-26.61 13.49-40 3.01-9.39 6.5606-18.561 10.391-27.631 6.8933-16.413 13.34-33.014 19.34-49.801 3.14-8.82 5.7401-17.888 9.3301-26.488 7.38-17.72 13.379-36.032 22.379-53.102 3.48-6.64 6.3599-13.59 9.9199-20.18 5.56-10.31 11.511-20.42 19.451-29.16 0.29-0.31 1.1085-0.63953 1.2285-0.51953 0.58 0.59 1.4004 1.35 1.4004 2-0.28 5.14-0.59945 10.3-1.1894 15.42-0.54 4.65-1.4604 9.2604-2.1504 13.9-3.25 21.82-5.7498 43.72-5.3398 65.82 0.22 13.133-3e-3 26.262-0.66993 39.389-0.33 6.07 0.51016 12.291-0.58984 18.201s-4 11.48-6 17.23c-5.29 15-10.63 29.998-17.17 44.568-7.75 17.07-15.89 33.941-23.75 50.941-4.72 10.2-8.9909 20.609-13.881 30.729a189.74 189.74 0 0 0-11.68 31.58c-2.69 9.44-5.4 18.951-8 28.441-1.2067 4.4933-2.3167 9.0325-3.3301 13.619-1.46 6.41-3 12.801-4 19.281-2.03 13.42-3.7 26.94-5.5 40.42a16.49 16.49 0 0 0-0.0488 2.8086c0.82 18.32 2.9484 36.47 7.5684 54.25 2.36 9.08 5.2109 18.051 7.1309 27.221 2.31 11.07 5.9395 21.669 9.9395 32.199 4.32 11.39 9.1504 22.631 12.65 34.271 7.01 23.34 14.1 46.65 21.6 69.84 2.46 7.58 4.5201 15.3 7.3301 22.74 6.8 18 12.33 36.4 18 54.76 6.22 20.16 12.16 40.369 19 60.369 9.4 27.52 18.751 55 26.801 83 4.93 17.18 10.68 33.98 18.26 50.18 9.79 20.84 19.79 41.42 34.65 59.35 4.16 5.05 7.8897 10.531 12.43 15.201s9.339 9.16 13.709 14c6.69 7.41 14.511 13.23 22.781 18.6a32.11 32.11 0 0 0 5 2.4395c2.93 1.25 6.8304-0.35 8.4004-3.25a17.46 17.46 0 0 0 1.7285-13.609c-2.94-9.89-5.7389-19.85-9.3789-29.48a149 149 0 0 1-7.3711-28.549c-1.85-11.1-3.7598-22.191-5.7598-33.281-2.29-12.94-4.2197-25.91-4.6797-39.08-0.28-7.96-0.78-15.929-1.5-23.859a218.49 218.49 0 0 1-0.75-30.91 82.94 82.94 0 0 0 0.34961-11.24c-0.52-6.11-0.0295-12.18 0.31054-18.25 0.65-11.71 1.2504-23.41 0.90039-35.15-0.15999-5.62 0.0405-11.249 0.23047-16.859a3.4 3.4 0 0 1 1.5293-2.0704 1.67 1.67 0 0 1 2.4805 0.6114c5.4 9.3 10.88 18.549 16.09 27.949a347.23 347.23 0 0 0 26.449 41.459c4.5267 6 9.0143 12 13.461 18a193.44 193.44 0 0 0 27.229 30.182c8.78 7.78 16.921 16.16 25.441 24.16 6.49 6.09 13.419 11.69 19.289 18.42 11.77 9.42 22.2 20.149 32.92 30.709a215 215 0 0 1 20.09 23.439 40.91 40.91 0 0 1 6.7207 12.24 108.57 108.57 0 0 0 5.5195 12.92c7.06 14.81 16.01 28.61 23.91 43 1.8 3.27 4.1211 6.2397 6.1211 9.4297 4.27 6.92 11.129 11.35 16.459 17.23a3.45 3.45 0 0 0 1.1699 0.7696c5.95 2.68 11.551 6.1702 18.471 6.2402 6.06 0.06 12 1.54 18 2.75 14.25 2.87 28.6 5.2705 42.9 7.7305a51.21 51.21 0 0 0 7 0.541 27.09 27.09 0 0 0 4.1992-0.3203 24 24 0 0 0 2.7402-0.6211c3.63-0.93 5.6594-5.49 4.4394-9-1.94-5.56-6.3606-9.2386-9.8906-13.559a31.66 31.66 0 0 0-13.479-9.791c-4-1.5-7.5115-3.829-11.271-5.709-10.5-5.3-20.748-11-30.148-18a20.42 20.42 0 0 0-3.6211-2.2012 89.5 89.5 0 0 1-27.109-19.77 41.93 41.93 0 0 0-6.4394-5.4492c-5.44-3.78-9.79-8.6807-14-13.721s-8.54-10.041-12-15.561c-2.99-4.75-5.8814-9.5595-8.9414-14.27-2.8-4.3-5.63-8.7394-6.75-13.859-2.98-13.72-6.1795-27.41-9.7695-41a23.65 23.65 0 0 1-0.43946-2.7812c-0.84999-6.05-1.7196-12.06-3.8496-17.85a45.42 45.42 0 0 1-1.7109-8.25c-2.55-15.28-4.8908-30.58-7.5508-45.83-2.76-15.67-5.2798-31.44-8.7598-47-2.57-11.46-4.9897-22.889-6.9297-34.459a181.92 181.92 0 0 0-4.2305-20.621 199.74 199.74 0 0 1-4.8086-20.529c-2.12-12.02-5.6898-23.681-8.5098-35.541-0.75-3.19-1.5416-6.3902-2.6016-9.4902-5.33-15.5-10.669-31.04-16.189-46.5a179.38 179.38 0 0 0-8.1191-19.469 167.8 167.8 0 0 1-9.5098-21.92c-3.83-11.67-9.3616-22.471-15.102-33.221-3.14-5.79-6.46-11.529-9-17.529a116.67 116.67 0 0 0-10.24-18.41c-7.47-11.35-15.389-22.41-23.139-33.57-1.07-1.54-2.2402-3.0107-3.4102-4.4707-10.27-12.77-21.311-24.91-31.371-37.85a250.6 250.6 0 0 0-20.609-22.85 237.91 237.91 0 0 1-22.891-26.57c-6.42-8.66-12.96-17.239-19.83-25.529a197.36 197.36 0 0 1-22.92-35.311c-6.5-12.5-11.449-25.71-16.449-38.84a131.56 131.56 0 0 1-6.4395-23 342 342 0 0 0-8.5098-34.109c-4.67-15.84-6.8802-32.011-7.7402-48.471-0.44-8.42-1.3811-16.799 0.12891-25.199a12.56 12.56 0 0 0 0-2.8106 439.94 439.94 0 0 1 1.4199-53.359 28.6 28.6 0 0 0 0.37109-4.2012c-0.61-8.04 0.76-15.899 2-23.779 0.65-4.17 1.6302-8.3412 1.7402-12.531 0.5-17.9 4.35-35.35 6.5-53 2.04-16.73 5.6502-33.248 8.4102-49.898 2.06-12.48 3.8184-24.99 5.8184-37.48 0.96-6 2.1115-12 3.2715-18 0.71-3.69 1.8494-7.3 2.3594-11 1.39-10.22 4.2606-20.221 6.6406-30.221 3.1-13.24 7.2896-26.24 11.1-39.24 4.99-17.09 9.5905-34.289 17.23-50.479a12 12 0 0 0 0.36914-8.2715c-0.4125-1.5525-2.2416-2.8511-3.9746-3.0156zm-129.3 333.73c1.54-0.32 1.9691 0.28024 1.5391 1.4902-4.24 11.92-7.9791 24.009-13.539 35.439-1.84 3.77-2.8303 7.8906-4.3203 11.891-4.78 12.72-9.4712 25.49-17.201 36.84-6.17 13.27-14.97 24.9-22.76 37.08a186.82 186.82 0 0 0-10.219 18.289c-0.17 0.36 0.15 0.90133 0.25 1.3613 0.46-0.1 1.0696-0.0501 1.3496-0.33008a44.23 44.23 0 0 0 4.6406-5.1504c6.94-10.03 13.929-20.03 20.559-30.27 3.55-5.49 6.3211-11.481 9.6211-17.141 3.11-5.26 6.65-10.2 9-15.92 1.2916-3.2524 3.6425-5.9985 5.627-8.9238 0.24835 0.77351 0.66878 1.6103 0.44336 2.2031-3.68 9.6-6.6806 19.43-10.811 28.91-5.81 13.28-10.35 27.131-15.26 40.801-4.28 11.9-8.19 23.94-12.5 35.82-5.13 14.13-11.871 27.468-19.301 40.568-6.02 10.6-12.809 20.741-19.199 31.131a232.75 232.75 0 0 0-12.15 23.75 60.35 60.35 0 0 1-5.4394 9.8008c-6 8.4-12 16.785-18 25.158-1.91 2.66-4.0102 5.2109-5.9102 7.8809a188.12 188.12 0 0 1-20.611 24.85c-6.24 6.26-13 12.17-18 19.65-8.39 8.14-16.528 16.579-25.238 24.369-12.59 11.27-24.432 23.19-35.852 35.65-10.41 11.36-21.049 22.59-32.309 33.32-7.13 6.68-14.081 13.67-20.691 21-11.6 12.87-24.039 24.971-38.729 34.461-5.51 3.55-10.872 7.3394-16.352 10.939a20.44 20.44 0 0 1-14.789 3.1406c-2.34-0.36-4.5212-2.19-4.7012-4.5a30.28 30.28 0 0 1-0.17969-7 188.22 188.22 0 0 1 6.6406-30.17c5.51-16.91 11.371-33.741 14.641-51.311 0.77-4.08 2.5291-8 3.8691-12 0.74-2.22 1.7393-4.3709 2.2793-6.6309 3.73-15.56 9.7813-30.329 15.611-45.129 3.31-8.35 5.8405-16.82 8.3105-25.35 1.55-5.38 3.0291-10.74 5.1191-16 2.77-6.95 4.6491-14.25 6.8691-21.41a219.6 219.6 0 0 1 17.932-41.211c5.67-10.25 11.23-20.55 17-30.74a175.31 175.31 0 0 1 16.799-24.289c4.42-5.42 9.3696-10.411 13.85-15.791 4.19-5.04 7.8414-10.559 12.191-15.469 5.89-6.65 12.209-12.93 18.369-19.34a35.13 35.13 0 0 0 3.0703-2.8809c7.62-10.3 17.869-17.88 27.369-26.18a199.6 199.6 0 0 1 30.721-22 250.77 250.77 0 0 0 23.27-15.791c5.99-4.49 11.54-9.5402 17.15-14.49 14-12.453 28-24.915 42-37.389 5.59-5 11.251-9.89 16.721-15a53.7 53.7 0 0 1 10.209-7.2109c0.77-0.44 1.0401-0.27977 0.83007 0.49023-0.12 0.45-0.0398 0.98938-0.25976 1.3594-4.67 7.8-11.859 13.191-18.449 19.131-2.76 2.5-6.1306 4.3303-8.8906 6.8203a21.49 21.49 0 0 0-4 5.6504c-0.32 0.51 0.15985 1.7798 0.58985 2.5098a2.86 2.86 0 0 0 3.7305 0.82031 84.58 84.58 0 0 0 14.73-12.84c1.29-1.36 2.5101-2.7816 3.8301-4.1016 0.28-0.28 0.87985-0.24937 1.3398-0.35937-0.01 0.8 0.29015 1.8091-0.0899 2.3691-3.65 5.46-7.2012 11.011-11.201 16.201-7.46 9.62-14.26 19.78-23.07 28.33a66.57 66.57 0 0 0-6.209 7.6387 109.38 109.38 0 0 1-12.111 13.641c-4.39 4.2-8.03 9.18-11.75 14a97.57 97.57 0 0 1-10 11.76c-2.7 2.55-4.8591 5.7008-7.2891 8.5508-4.87 5.67-9.2394 11.77-14.689 17-3.05 2.89-5.47 6.4406-8 9.8106-9.5333 12.793-19.054 25.589-28.561 38.389-0.84 1.13-1.5392 2.3697-2.4492 3.4297-2.71 3.2-5.7214 6.1508-8.1914 9.5508s-4.2591 7.2798-6.6191 10.76c-7.36 10.88-14.871 21.66-22.291 32.5a75 75 0 0 0-7.7695 13.33c-1.61 3.86-4.299 7.2394-6.459 10.859-2.64 4.44-4.9403 9.0215-5.5703 14.271-0.23001 1.83-0.35047-0.5 0.76953 1 0.59 0.8 1.5802 0.75961 2.4902 0.0996a2.78 2.78 0 0 0 0.91016-1c3.4-8.32 8.5898-15.529 13.59-22.939 3.63-5.43 7.7-10.64 10-16.91a24 24 0 0 1 3-4.7402c17.01-25.33 35.23-49.781 53.48-74.211 8.39-8.25 14.49-18.389 22.49-26.939a363.44 363.44 0 0 0 25.1-30.33 81 81 0 0 1 5.6191-6.2598c2.23-2.41 4.6107-4.6797 6.7207-7.1797 5.13-6.09 10.03-12.31 15.77-17.92 4.99-4.88 8.8794-10.891 13.189-16.451 4.6-5.92 8.7909-12.13 14.381-17.27 2.7-2.51 4.72-5.7793 7-8.7793 5.1133-6.7267 10.203-13.464 15.27-20.211 6.21-8.26 13.721-15.309 20.131-22.609zm-12.43 58.369c-0.05 0.45 0.0481 0.98008-0.17187 1.3301-0.83306 1.3382-1.7199 2.6378-2.6055 3.9531-0.83415-1.5752-0.48556-3.064 0.65625-4.3418 0.47-0.53 1.4011-0.64141 2.1211-0.94141zm61.25 58.191 0.71875 0.18945c-0.14 0.32-0.20992 0.86969-0.41992 0.92969-0.83 0.24-0.93883-0.19914-0.29883-1.1191zm-3.9902 11.148c0.64 2.74 0.0295 5.3416-0.73047 7.9316-3.72 12.59-7.24 25.219-12 37.469-4.25 10.96-7.0102 22.37-9.9102 33.73a403.55 403.55 0 0 0-10.529 56.65c-1.21 11.18-2.0005 22.409-2.7305 33.629-0.3 4.64-0.24024 9.37 1.7598 13.75a1.81 1.81 0 0 0 1.0898 0.85156 1.49 1.49 0 0 0 2.0703-1.2402 5.06 5.06 0 0 0 0.29883-1.3398c-0.97-14.63 1.8904-28.972 3.1504-43.432 0.08-0.92999 0.40039-1.8493 0.40039-2.7793 0.58-16.07 5.0897-31.4 8.9297-46.85 2.26-9.15 4.6701-18.15 7.3301-27.15 2-6.78 4.5508-13.34 6.8008-20 2.39-7.11 4.6594-14.259 7.1094-21.359a38.69 38.69 0 0 1 2.9199-6.3008c0.35-0.61 1.4502-0.81984 2.2402-1.0898a2.05 2.05 0 0 1 0.66992 1.1602c0.16 11.71 0.37109 23.411-0.62891 35.131-1.32 14.94-2.5107 29.939-1.7207 44.939 0.59 11.23 0.70977 22.449 0.50977 33.699a136.51 136.51 0 0 0 2 23.77c2.29 14.39 2.8693 28.911 3.7793 43.391 0.41 6.56 0.75977 13.091 1.7598 19.561 1.28 7.88 1.9317 15.81 2.7617 23.73 1.48 14 2.8899 27.999 7.1699 41.549 2.19 7.09 2.8994 14.7 4.1894 22.09 4 23.11 7.94 46.23 12 69.33 0.48 2.75 1.6197 5.3811 2.1797 8.1211 1.49 7.35 2.9109 14.719 4.2109 22.109 2.77 15.71 5.4202 31.43 8.1602 47.15 1.94 11.09 3.6095 22.25 5.9395 33.25 2.92 13.78 4.2694 27.77 6.1094 41.69 0.79 6.03 1.3206 12.101 3.3906 17.871 0.14 0.36 0.78 0.8886 1 0.8086 0.83-0.26 1.9888-0.5997 2.2988-1.2597a8.28 8.28 0 0 0 0.82032-4 807.32 807.32 0 0 0-11.92-86.35c-5.38-28.1-10.44-56.261-15.65-84.391-0.59999-3.23-1.1394-6.4702-1.9394-9.6602-5.22-20.96-8.5101-42.28-11.83-63.6-1.44-9.25-2.7695-18.51-5.7695-27.51a52.6 52.6 0 0 1-2.4805-13.82c-0.8-15.02-3.5399-29.79-5.4199-44.67a70.16 70.16 0 0 1-0.91992-8.3789 348.72 348.72 0 0 0-2-35.102c-0.57-5.6-1.0794-11.2-1.8594-16.76-2.04-14.45-1.9296-29-2.0996-43.52-0.11-8.91-0.24086-17.84 0.11914-26.73 0.47-11.71 1.3807-23.41 2.2207-35.1 0.04-0.66 1.1188-1.2491 1.7188-1.8691 0.56 0.62 1.4306 1.1694 1.5606 1.8594 1.68 9.23 3.1791 18.479 4.8691 27.709 1.95 10.67 2.9217 21.362 1.2617 32.182a5 5 0 0 0 1.7207 4.7324c1.0975-1.3164 2.1295-2.6988 3.3594-3.8828 0.85-0.82 1.7788-0.5 2.2988 0.5a6.25 6.25 0 0 1 0.6211 1.2402c4.58 19.15 10.419 37.958 14.779 57.148 2.6 11.46 6.1002 22.601 9.6602 33.771 2.98 9.37 5.1402 19 7.6602 28.52 0.36 1.36 0.60961 2.7603 1.0996 4.0703 6.89 18.49 11.15 37.719 16.32 56.719 4.05 14.92 8.4893 29.741 12.779 44.611 0.65 2.25 1.5906 4.429 2.0606 6.709 3.05 14.69 6.1399 29.381 8.9199 44.121 0.95 5.05 0.96938 10.259 1.6094 15.369 0.91 6.98 1.8602 13.95 2.9102 20.9 2.66 17.62 5.2606 35.25 8.1406 52.83 2.13 12.98 3.4199 26.029 4.6699 39.109 1.15 12.14 1.4805 24.3 1.7305 36.49 0.67 31.9-1.3116 63.751-1.1816 95.631a298 298 0 0 0 1.4102 32.289c1.37 12.1 2 24.27 3 36.42a58.27 58.27 0 0 0 0.95118 8.3711c2.32 10.06 3.8994 20.239 5.6894 30.389 0.8 4.61 2 9.1113 2 13.861a29.19 29.19 0 0 0 1.75 8.209c3.11 9.83 6.3501 19.62 9.5801 29.42 1.45 4.45 3.1292 8.8496 4.4492 13.35a41.81 41.81 0 0 1 1 6.9199c0.18 1.68-2.4197 3.5602-3.9297 2.9102a57.91 57.91 0 0 1-19.199-13.92c-8.98-9.55-17.73-19.319-26.52-29.059a64.2 64.2 0 0 1-5.2207-6.6309c-11.42-16.66-21.85-33.9-30.07-52.4-0.38-0.86-0.62031-1.7796-1.0703-2.5996-8.16-14.93-12.299-31.301-17.389-47.391-4.67-14.73-8.771-29.649-13.541-44.379-2.87-8.92-6.2598-17.67-9.2598-26.56-2.09-6.2101-3.8691-12.529-5.8691-18.779-1.14-3.57-2.2302-7.1807-3.6602-10.641-5.36-13.04-9.1208-26.559-12.551-40.199-1.14-4.53-2.8705-8.9204-4.2305-13.4-5.59-18.39-11.339-36.711-17.869-54.791-1.72-4.84-3.1407-9.8185-4.7207-14.729-5.47-16.95-11.279-33.781-16.279-50.881-3.01-10.37-6.4398-20.58-9.7598-30.84-2.01-6.24-4.2408-12.429-6.6308-18.529a221.65 221.65 0 0 1-7.6094-22.611c-3.32-12.21-6.4008-24.499-9.8008-36.699a128.26 128.26 0 0 1-4.2402-24.9c-0.36-4.71-1.0188-9.36-1.7188-14a79.72 79.72 0 0 1-0.87109-19.629c1-10.73 1.74-21.491 4-32.061 1.08-5.05 1.8512-10.16 2.7012-15.25a219.07 219.07 0 0 1 7.0801-28.65c3.2-10.32 6.0391-20.73 9.2891-31a152.57 152.57 0 0 1 6-15.75c5.91-13.27 12-26.45 18-39.65 5.4467-11.913 10.92-23.813 16.42-35.699 4.5267-9.76 9.0802-19.51 13.66-29.25 0.16-0.34 0.78094-0.46117 1.2109-0.70118zm26.381 105.58c-0.0977 0.11715-0.2 0.2297-0.29883 0.3457l-0.0137 2e-3c0.0368 0.0937 0.0793 0.1864 0.12305 0.28125a21.82 21.82 0 0 1 0.2871-0.36133 5 5 0 0 1-0.0976-0.26758zm-0.18945 0.62891a21.82 21.82 0 0 0-1.3027 1.8184 2 2 0 0 0-0.17969 1.2891c0.03 0.25 0.42063 0.44968 0.64063 0.67968 0.55-0.56 1.4488-0.95921 1.5488-1.6992 0.0881-0.65224-0.38176-1.383-0.70703-2.0879zm33.969 18.627a1.32 1.32 0 0 1 1.0996 0.13086 1.6 1.6 0 0 1 0.7793 0.94922 17.44 17.44 0 0 1 0.0234 2.0879c-0.56819-0.42624-1.1551-0.80069-1.6641-1.2774-0.81-0.77-0.88828-1.5306-0.23828-1.8906zm2.3184 3.9004a38.79 38.79 0 0 1 2.8203 2.0508 4.71 4.71 0 0 1 1.7344 4.3555c-0.96343-0.70076-1.9484-1.3964-2.8438-2.125-1.3046-1.1301-2.0173-2.5197-1.7109-4.2812zm5.0078 7.2285c0.50824 0.4145 1.0293 0.81734 1.5137 1.2715 0.3 0.29 0.72891 0.92984 0.62891 1.0898-0.59 0.86-1.4499 0.76993-1.9199-0.33008a8.8 8.8 0 0 1-0.22265-2.0312zm6.1328 9.0117a6 6 0 0 1 4.8008 2.5801c6.98 8.81 14.019 17.631 20.689 26.631a286.28 286.28 0 0 0 27.779 31.648 77.63 77.63 0 0 1 5.8711 6c11.147 13.88 22.57 27.531 34.27 40.951 10.22 11.71 18.13 25.049 27 37.709 9.73 13.89 17.441 28.9 24.801 44.09 3.88 8 8.6992 15.54 11.699 24 4.22 11.93 9.7699 23.33 14.67 35 3.09 7.34 5.8505 14.822 8.4805 22.342 4.83 13.71 9.74 27.399 14 41.279 3.71 12.1 6.4202 24.489 9.1602 36.859 4.05 18.32 7.9688 36.66 11.049 55.18 7.24 26.29 10.121 53.42 15.441 80.09 3.4 16.99 5.0184 34.342 7.3984 51.522a34.14 34.14 0 0 1 0.45118 5.6093c-0.23 8.5 1.3691 16.81 2.3691 25.19 1.22 9.75 2.1 19.55 3 29.33 0.05 0.53-0.98867 1.2414-1.6387 1.6914-0.3 0.18-0.89079-0.07-1.3008-0.25a3.22 3.22 0 0 1-1.1504-0.8008c-8.22-10.26-18.36-18.7-27.15-28.44a13.88 13.88 0 0 0-2.1289-1.83c-12.08-8.99-22.23-20.061-32.93-30.551-7.01-6.88-14.391-13.391-21.531-20.141-3.06-2.9-6.0189-5.9-8.8789-9-10.51-11.36-21.54-22.228-30-35.308-2.28-3.53-5.0605-6.7507-7.5605-10.141a68.75 68.75 0 0 1-5.6602-8.0508c-4.64-8.72-10.771-16.518-15.561-25.068-5.48-9.81-11.168-19.531-15.648-29.811-4.68-10.73-8.0801-22.021-13.08-32.631a7.71 7.71 0 0 1-0.48047-1.3203 77.75 77.75 0 0 1-2.8809-23.549c0.02-0.33 0.47984-0.73992 0.83984-0.91992s1.1105-0.19 1.2305 0c1.64 2.83 3.39 5.5703 4.75 8.5703 4.49 9.8 8.7308 19.72 13.301 29.49 1.36 2.92 2.4091 6.1999 5.5391 7.9199a1.52 1.52 0 0 0 1.3301 0 7.11 7.11 0 0 0 1.5195-2 1.91 1.91 0 0 0-0.16992-1.3711c-4.67-10.23-9.44-20.419-14-30.699-3.84-8.57-7.57-17.18-11-25.9-3.79-9.64-5.3184-19.88-7.3184-30-0.23-1.17 0.41993-1.8203 1.4199-1.8203a2 2 0 0 1 1.2383 0.41016 7.52 7.52 0 0 1 1.791 2.0898c4.17 8.91 8.2092 17.88 12.449 26.75a20.16 20.16 0 0 0 3.4707 4.3008c0.86 0.91 3.1292 0.91016 3.6992-0.0898 0.42-0.76 0.93063-1.911 0.64063-2.541-2.74-5.9467-5.5857-11.846-8.5391-17.699-4.85-9.64-9.0099-19.591-12.92-29.641a24.9 24.9 0 0 1-1.75-5.3398c-0.91-6.59-3.6612-12.591-5.7812-18.801-1.82-5.31-3.8003-10.569-3.5703-16.309a1.27 1.27 0 0 1 0.7207-0.91015c0.36-0.14 1.1094-0.23001 1.3594 0a10.92 10.92 0 0 1 2.8301 3c2.97 6.36 5.7511 12.82 8.6211 19.24 1 2.14 1.88 4.3091 3 6.3691 6.7 12.37 11.699 25.579 17.699 38.279 9.07 19.07 15.78 39.101 23.5 58.721 7.56 19.17 13.721 38.899 20.561 58.359 5.26 15.01 9.8105 30.321 16.811 44.691 2.88 5.88 5.0183 12.1 7.7383 18.1a83 83 0 0 0 5.9512 11.119c4.92 7.45 9.87 14.86 14 22.75 2.68 5.11 6.84 8.8613 11 12.611 0.5 0.46 1.7498 0.3189 2.5898 0.1289 1.06-0.25 1.4006-1.14 1.0606-2.25a5.5 5.5 0 0 0-0.38086-1.3398c-10.25-15.71-19.31-32.119-28-48.709a226.65 226.65 0 0 1-16-37.432c-2.24-7.19-4.9491-14.139-7.6191-21.139-4.84-12.69-9.2017-25.571-13.762-38.371-4.39-12.37-8.5083-24.84-13.238-37.08-4.22-10.92-9.4002-21.469-13.66-32.389-6.83-17.45-14.81-34.451-22.73-51.451-2.77-5.94-5.5195-11.91-8.5195-17.74a190.7 190.7 0 0 1-12.551-29.77c-1.42-4.45-3.5503-8.67-5.3203-13-3.34-8.25-6.74-16.48-10-24.77-0.86-2.16-1.55-4.4496-1-6.8496a1.31 1.31 0 0 1 0.74023-0.84961c0.39-0.13 1.0808-0.16187 1.3008 0.0781a17.34 17.34 0 0 1 2.5586 3.2617 349.35 349.35 0 0 1 15.17 33.26c0.9 2.16 1.9004 4.2689 2.9004 6.3789 0.51 1.08 1.4396 1.4114 2.3496 0.69141a4.68 4.68 0 0 0 1.5215-2.1602 4.91 4.91 0 0 0-0.0605-2.7402 85.65 85.65 0 0 0-3.3691-9.2402c-9.48-20.38-19.18-40.67-28.58-61.09-5.67-12.35-11.861-24.53-14.861-37.92-3.5-7.72-5.5888-15.9-8.2988-23.9a154.14 154.14 0 0 1-5.3106-18.91c-1.02-5-3.0898-9.8106-5.0898-14.561a110.74 110.74 0 0 1-7.4297-29.889c-0.15-1.25 0.57899-1.8015 1.709-1.5215 0.42 0.1 0.99968 0.25055 1.1797 0.56055 2.25 4.08 4.5209 8.1603 6.6309 12.32a13.62 13.62 0 0 0 4.084 4.8828c0.68401-2.1584 0.11325-4.1885-0.80469-6.1621-2.54-5.51-5.6992-10.79-6.6992-16.9a1.41 1.41 0 0 1 0.41016-1.2109 1.46 1.46 0 0 1 1.3496 0c1.5 1.07 3.2793 1.9814 4.2793 3.4414a121.47 121.47 0 0 1 7.0703 12.18c4.3 8.41 10.11 15.79 15.65 23.35 8.58 11.72 17.34 23.31 26.07 34.92 4.25 5.61 7.5489 11.81 10.879 18 2.47 4.51 4.8807 9.0698 7.4707 13.51 0.3 0.51 1.5704 0.48984 2.4004 0.58984a2.15 2.15 0 0 0 0.37891-1.2793 16.78 16.78 0 0 0-0.93946-4.0606 79.39 79.39 0 0 0-4.3203-8.8398c-7.92-13.26-15.1-26.919-24.18-39.539-6.83-9.49-13.26-19.281-20.32-28.641-4.78-6.34-8.5899-13.43-12.67-20.27-0.89-1.48-2.0096-3.1211-1.3496-5.1211zm-4.6758 26.033c-0.0595 0.18762 0.019 0.36093-0.0625 0.55078l-0.0312 6e-3c0.12803 0.0921 0.25335 0.18558 0.37695 0.27929 0.025-0.12512 0.0519-0.25182 0.082-0.3789l-0.23633 0.0508 0.23633-0.0703a13.62 13.62 0 0 1-0.36523-0.4375zm0.2832 0.83593c-0.72234 3.6216 0.72147 6.4269 3.3027 8.8203 1.3195-3.831-0.33576-6.5707-3.3027-8.8203zm3.3027 8.8203c-0.0467 0.13546-0.0962 0.27193-0.15039 0.41015 0.14264 0.0828 0.28272 0.16806 0.41992 0.25391 0.016-0.11894 0.0355-0.23922 0.0605-0.36328-0.11241-0.0991-0.22161-0.20021-0.33007-0.30078zm0.26953 0.66406c-0.32399 2.4009 1.1523 3.7797 2.8965 4.998 0.27132-2.3832-1.0451-3.8396-2.8965-4.998zm2.8965 4.998c-0.0145 0.12694-0.033 0.25638-0.0566 0.38867 0.10415 0.10722 0.20401 0.21639 0.30664 0.32422a5.81 5.81 0 0 1 0.17383-0.44336l-0.0254 6e-3c-0.13396-0.0905-0.26686-0.18348-0.39844-0.27539zm0.25 0.71289a5.81 5.81 0 0 0 0.17383 4.5566c1.5094 3.4461 3.056 6.8551 5.707 9.5703 0.6187-5.7685-2.1018-10.157-5.8809-14.127zm5.8809 14.127c-0.0195 0.18176-0.0402 0.3643-0.0664 0.54883l0.5-0.11914c-0.14794-0.14085-0.2921-0.28478-0.43359-0.42969zm-365.18-17.584a4.57 4.57 0 0 0-1.6895 0.32226 1.82 1.82 0 0 0-1 1c-5.3067 10.787-10.577 21.59-15.811 32.41-0.41 0.86 0.15093 1.7196 1.2109 2.0996a1.41 1.41 0 0 0 1.1895-0.2793c1.02-0.9 1.9598-1.8997 3.2598-3.1797 4.96-8.97 10.14-18.27 15.26-27.67a3.85 3.85 0 0 0 0.0508-2.7012 3.26 3.26 0 0 0-1.6094-1.9199 4.57 4.57 0 0 0-0.86133-0.082zm365.61 18.023-0.5 0.11914c0.16312 0.10929 0.3222 0.22205 0.47852 0.33594 1e-3 -0.14858 9e-3 -0.30013 0.0215-0.45508zm-0.0215 0.45508c-0.0161 2.194 1.1712 3.7057 2.9023 4.8867-6e-3 -2.1897-1.2431-3.6778-2.9023-4.8867zm2.9023 4.8867c3.7e-4 0.13347-3e-3 0.26943-0.0117 0.4082a10.42 10.42 0 0 1 0.25195 0.24024c0.0491-0.11196 0.10268-0.22495 0.16211-0.33789l0.0566-0.0137c-0.15671-0.097-0.30994-0.19518-0.45899-0.29687zm0.24024 0.64844c-0.90079 2.0538-0.10849 3.9471 0.83789 5.8398a1.45 1.45 0 0 0 2.1699 0.74024c0.22-0.1 0.08-0.83172 0-1.2617a10.42 10.42 0 0 0-3.0078-5.3184zm-119.4-0.88086a3.33 3.33 0 0 0-2.3789 3.0703 21.26 21.26 0 0 0-0.10938 5.5703c1.13 6.02 1.1195 12.09 1.2695 18.17a84.14 84.14 0 0 0 0.5 8.4004c3.76 30.16 9.0197 60.11 14.68 90a29.71 29.71 0 0 0 1 4.0801c3.36 9.72 6.8808 19.399 8.5508 29.609a10.92 10.92 0 0 0 0.41993 1.3398c4.2 13.41 9.8288 26.27 15.299 39.18a19.27 19.27 0 0 0 2.2695 3.3203 17.44 17.44 0 0 0 2.7617-0.13086 1.23 1.23 0 0 0 0.58985-1.0488c-1.9467-5.7533-3.9199-11.5-5.9199-17.24-4.97-14.13-8.6701-28.63-12.83-43-1.29-4.46-3.0404-8.8909-3.9004-13.461-1.65-8.72-4.4312-17.18-5.2812-26.09s-3.6399-17.38-5.4199-26.08a23.57 23.57 0 0 1-0.30859-2.7891c-0.83-9.28-3.4498-18.371-3.0898-27.791a19.24 19.24 0 0 0-0.55078-4.1699 129.91 129.91 0 0 1-1.9004-20.939 128.82 128.82 0 0 0-1.3692-14 29.09 29.09 0 0 0-1.0605-4 2.85 2.85 0 0 0-3.2207-2zm-287.93 47.373c-0.3975 0.0275-0.83031 0.27734-1.1953 0.77734-3.88 5.25-7.8104 10.459-10.4 16.529a44.35 44.35 0 0 1-3.2695 6.1699c-5.22 8.27-11 16.211-14.49 25.471a9.47 9.47 0 0 1-1.4609 2.3789c-7.74 10.03-12.719 21.68-19.119 32.5a11.13 11.13 0 0 0-0.74023 2.6504c-0.25 0.9 1.4102 2.9696 2.4902 2.8496 0.85-0.11 2.0909-0.41 2.3809-1 1.83-3.74 3.4391-7.5884 5.1191-11.398 3.65-7.61 8.4696-14.49 13.1-21.49 3.33-5.03 7.1409-9.7813 8.8809-15.781a17.74 17.74 0 0 1 1.9492-3.6992c5.8267-10.073 11.633-20.16 17.42-30.26a6.49 6.49 0 0 0 0.93946-2.5996 4.76 4.76 0 0 0-0.61914-2.541c-0.225-0.39-0.58688-0.58415-0.98438-0.55664zm398.38 309.93a3.94 3.94 0 0 0-1.1797 0.5488 7.85 7.85 0 0 0-0.9707 2.5606c-0.18 8.9 2.9191 17.31 4.2891 26 0.24 1.35 2.3102 2.4392 3.2402 1.6992 0.65-0.53 1.5312-1.3588 1.5312-2.0488a92.46 92.46 0 0 0-4.9102-27.311 2.38 2.38 0 0 0-0.87109-1.0508 1.86 1.86 0 0 0-1.1289-0.3984zm8.6797 61.109c-0.4 0.03-1.0509 0.269-1.1309 0.539a12.42 12.42 0 0 0-0.75977 4c0.91 10.73 2.4803 21.381 3.8203 32.051a169.65 169.65 0 0 0 5.6309 27.4c2.01 6.74 3.7098 13.51 5.0898 20.4a109.78 109.78 0 0 0 2.6602 10.91c3.31 10.73 6.7597 21.419 10.18 32.119a33.91 33.91 0 0 0 1.5195 3.8809c0.18 0.37 0.72938 0.56 1.1094 0.83 0.77-0.34 1.8207-0.4612 2.2207-1.0312 1.2-1.68 0.72008-3.6096 0.0801-5.3496-8.51-23.39-12.85-47.9-19-71.9a62.28 62.28 0 0 1-1.3496-6.9004c-1.87-13.42-5.6014-26.548-6.4414-40.148a22.64 22.64 0 0 0-1.5391-5.3809 2.29 2.29 0 0 0-0.91015-1 2 2 0 0 0-1.1797-0.4199zm254.84 142.03c0.84 0.27 2.069 0.2601 2.459 0.8301 3.15 4.61 7.6602 8.1996 9.6602 13.68a16.14 16.14 0 0 0 3.1816 4.5801c6.95 8.17 13.889 16.272 21.889 23.602 7.25 6.62 14.67 12.999 22.35 19.059a99.06 99.06 0 0 0 9.291 6.3398c2.64 1.64 5.26 1.6 7.5-1a10.39 10.39 0 0 1 2.4199-1.4883c3.98 1.19 7.1905 4.089 10.98 5.879 3.37 1.63 6.67 3.38 10 5.08 2.09 1.08 4.0791 2.4501 6.2891 3.0801 7.75 2.27 12.68 7.5695 16.48 14.27a1.36 1.36 0 0 1 0 1.2403c-0.63 0.63-1.4206 1.541-2.1406 1.541a46.44 46.44 0 0 1-8.3086-0.5313c-9.64-1.87-19.411-2.8802-28.951-5.4902a129 129 0 0 0-23.5-4.0586c-12.7-1-21.86-7.72-29.5-17a160.34 160.34 0 0 1-13.16-18.182c-4.39-7.17-7.9501-14.829-11.83-22.299a1.66 1.66 0 0 1 0.16015-1.291 3.73 3.73 0 0 1 2.3008-0.08c3.31 1.86 5.62 4.8107 8 7.7208 2.06 2.5199 4.2492 5.0109 7.4492 6.2109 0.41 0.14 1.2598 0.17 1.3398 0a4.88 4.88 0 0 0 0.63086-2.4414 4.11 4.11 0 0 0-1.2207-2.4297c-7.28-6.07-11.87-14.379-18.1-21.379-3.45-3.86-4.9004-8.9506-5.9004-14.061a4.29 4.29 0 0 1 0.23047-1.3808z"/>
</svg>
