<svg version="1.1" viewBox="0 0 250 250" xmlns="http://www.w3.org/2000/svg">
  <path d="m242.08 37.637c-1.5726-1.9086-2.0877-2.4283-4.0129-4.0443-0.95158-0.79723-2.41-2.1486-3.2422-3.0039-2.0845-2.1399-5.4108-4.9964-7.5608-6.493-5.1652-3.5945-7.9199-5.8894-10.108-8.4156-1.4116-1.63-5.9573-6.3026-6.7184-6.9051-2.1161-1.6762-5.978-2.9695-8.6851-2.9092-1.7758 0.040884-2.5505 0.25391-4.8508 1.3352-1.171 0.55086-2.7503 1.3502-3.5098 1.7763l-1.3798 0.77572-1.1374-2.4433c-1.2421-2.6693-1.7846-3.5192-2.9306-4.6005-0.84371-0.79508-2.0377-1.2448-3.0043-1.1286-1.634 0.19474-4.383 2.2895-6.6365 5.0578-3.032 3.7258-4.9117 8.3812-5.9605 14.762-0.14846 0.90697-0.27875 1.6827-0.28836 1.7214-0.0951 0.38624-3.9879-0.9371-6.0182-2.0453-1.697-0.92742-3.989-1.914-6.4624-2.7833-2.6294-0.92419-3.5981-1.1501-4.8604-1.134-2.812 0.03766-7.6479 1.5417-8.6102 2.6779-1.1588 1.3675-0.62692 3.6526 1.4995 6.4564 1.6287 2.1453 2.4532 3.9528 3.6397 7.9713 0.52439 1.7752 1.0733 4.6091 1.3991 7.2224 0.12282 0.97476 0.35671 2.5423 0.52225 3.4848 0.16447 0.94356 0.4005 2.5014 0.52545 3.4633 0.12389 0.96292 0.42827 2.6747 0.67498 3.8054 0.45283 2.0646 1.351 8.8363 1.6041 12.079 0.079 1.0156 0.25205 2.112 0.41545 2.637 0.79245 2.552 2.843 6.7415 3.8629 7.897 0.25846 0.29264 1.2196 0.97691 2.3165 1.6504 1.0306 0.63155 2.184 1.347 2.5621 1.5891 0.37913 0.24208 1.2474 0.60465 1.9331 0.80584 0.68459 0.20119 1.7558 0.53579 2.3795 0.74236 1.1566 0.38517 2.7917 0.723 3.0107 0.62294 0.37486-0.16999 0.50516-0.0011 0.41972 0.53902-0.0812 0.51212 0.0684 1.5127 0.30331 2.0162 0.0577 0.12373 0.16447 0.81768 0.2403 1.5428 0.0737 0.72515 0.23496 1.5321 0.35671 1.7935 0.24884 0.53472 0.44001 1.6224 0.41331 2.3605-8e-3 0.2679-0.14525 1.1178-0.30117 1.8871-0.38021 1.8656-0.49769 5.2224-0.20613 5.8722l0.2136 0.47662-1.1994 1.8613c-1.4995 2.3239-1.1534 1.9011-3.7668 4.5994-4.178 4.3165-7.005 6.593-12.205 9.8315-8.4436 5.2579-13.083 8.0165-16.419 9.7626-6.5575 3.4332-14.528 7.8766-17.891 9.9735-3.6333 2.2658-9.6632 6.5748-12.452 8.8965-2.4521 2.042-8.8996 7.8443-12.247 11.018-1.7312 1.644-3.1805 3.0039-3.2211 3.0232-0.0395 0.0194 0.33962-0.65091 0.84265-1.489 0.9409-1.5686 2.4649-4.9114 3.4614-7.6001 0.31186-0.84135 0.82129-2.5768 1.1331-3.8581 0.34283-1.4083 1.0573-3.6774 1.8081-5.7334 0.68031-1.872 1.5582-4.4822 1.948-5.8001 0.39088-1.319 1.0199-3.304 1.4012-4.4133l0.691-2.0162 0.36311 0.17429c0.19865 0.0958 1.0189 0.16999 1.822 0.16569 0.80206-3e-3 1.9566 0.0463 2.5653 0.11189 0.60876 0.0656 1.5849 0.10221 2.1702 0.0829 0.58419-0.0204 1.8167-0.0237 2.7394-9e-3 2.3282 0.0387 2.5461 4e-3 5.1007-0.81553 3.1356-1.006 5.9712-2.1787 9.99-4.1357 4.0445-1.9667 4.0584-1.9764 4.4535-3.4999 0.30011-1.1566 0.2905-1.6558-0.0449-2.3777-0.31399-0.67243-0.69954-1.092-1.4119-1.5278-0.36739-0.22486-0.50409-0.36688-0.42506-0.43896 0.0673-0.0592 0.63545-0.45188 1.2645-0.87578 0.63012-0.4239 1.5144-1.1254 1.9672-1.5579 1.1641-1.1135 2.8612-3.1491 3.4784-4.1723 1.0007-1.659 1.7141-4.523 1.5582-6.2584-0.0417-0.4551-0.31185-1.6805-0.60128-2.7209-1.0829-3.8807-1.1652-4.9964-0.62798-8.6243 0.33322-2.2465 0.52118-3.0297 1.2143-5.0567 0.90352-2.6435 1.0274-3.53 0.61623-4.4122-0.72516-1.5579-2.1317-1.5364-5.56 0.08284-1.6447 0.77787-1.9651 0.96938-2.9231 1.7591-0.59167 0.48738-1.0979 0.87793-1.1267 0.86717-0.0278-0.0097-0.11321-0.3572-0.18904-0.77249-0.19651-1.0834-0.76895-2.07-1.539-2.6488-0.8843-0.6649-3.0053-1.3782-4.5689-1.5385-2.8996-0.29802-4.1406-0.5175-6.0993-1.0813-6.3599-1.8279-10.042-1.9043-13.908-0.28834-1.1972 0.50136-1.4781 0.66275-2.0463 1.1781-1.3863 1.2599-2.5482 3.6645-3.0513 6.3133l-0.079 0.41637-1.0498 0.23885c-0.57671 0.13126-2.0431 0.34859-3.2584 0.482-1.9384 0.2141-2.3122 0.29264-3.0726 0.65199-0.8074 0.37979-0.92061 0.4777-1.68 1.4395-0.93557 1.1856-1.4407 2.3637-1.4194 3.3127 0.0171 0.7854 0.70701 3.7904 1.7195 7.4796 0.70594 2.5778 0.79032 3.0211 0.89605 4.7189 0.0652 1.0307 0.26059 2.6338 0.43574 3.5623 0.25418 1.3524 0.30224 2.0291 0.23709 3.4052-0.0854 1.7978 3e-3 3.7021 0.22855 4.92 0.0737 0.39593 0.424 1.7548 0.7775 3.0232 0.84265 3.0093 1.0648 3.417 2.796 5.1245 0.7209 0.71117 1.4717 1.417 1.6703 1.5697 0.86187 0.66382 4.1962 1.6504 4.728 1.3997 0.0822-0.0387 0.16447-0.0398 0.18262 0 0.0182 0.0398-0.23282 0.85318-0.55642 1.8107-0.32467 0.95647-1.0626 3.3342-1.6383 5.2826-0.57672 1.9495-1.335 4.2551-1.6853 5.1245-0.70274 1.7462-1.257 3.629-1.7579 5.9701-0.47099 2.2034-0.84265 3.318-2.1328 6.3832-1.7334 4.1239-2.2043 4.9566-5.073 8.9568-1.2357 1.7236-2.1093 2.5563-5.4372 5.1869-4.7056 3.7183-6.4678 4.9459-13.585 9.4485-2.6112 1.6526-5.5781 3.5494-6.5927 4.2153-6.6589 4.3692-16.822 9.2838-28.828 13.941-1.0968 0.42498-2.0121 0.73914-2.0313 0.6961-0.0203-0.042 0.16233-0.21302 0.40477-0.37656 0.85439-0.58098 4.1075-3.2696 4.9502-4.0894 0.46778-0.45618 1.5977-1.7333 2.5066-2.8371 1.5721-1.9032 1.6768-2.0065 2.0634-2.0216 0.28836-0.0108 1.0808-0.3346 2.701-1.1028 1.9608-0.92957 2.5536-1.2652 4.0808-2.3132 2.4916-1.7096 6.7636-5.3547 8.4286-7.1912 1.1684-1.2868 3.8309-4.764 4.7163-6.1552 0.85012-1.3362 3.1335-5.4741 4.5005-8.1542 1.6041-3.1502 3.2958-8.0369 5.026-14.528 1.744-6.5468 2.1232-8.3586 3.0833-14.787 0.60555-4.054 0.89391-5.2998 1.9245-8.3306 0.42933-1.2631 1.0883-3.275 1.4632-4.4736 1.5582-4.9738 2.3432-7.2095 3.785-10.791 1.9299-4.7866 2.4799-6.4252 2.6102-7.7658 0.0918-0.94033 0.0673-1.1523-0.20292-1.7322-0.27021-0.58098-0.35778-0.67458-0.74119-0.78217-0.67818-0.18936-1.3596-0.01183-2.7074 0.70794-1.508 0.80584-2.4767 1.5364-4.0958 3.0835-2.4671 2.3584-3.6696 4.0809-6.267 8.9794-0.92061 1.7354-2.1798 4.111-2.8003 5.2794-0.62051 1.1684-1.3638 2.6596-1.6522 3.3137-0.28835 0.65414-1.9 5.3967-3.5831 10.538-1.6832 5.1417-3.4411 10.491-3.9057 11.886-1.7761 5.3343-3.4795 10.607-4.602 14.256-3.7006 12.027-4.5593 14.24-8.0698 20.82-2.5674 4.8135-3.3172 5.955-6.5906 10.046-2.607 3.2589-3.315 3.9636-7.6041 7.5743-0.9975 0.84135-1.995 1.6881-2.2161 1.885-0.33428 0.2948-1.146 0.63155-4.8636 2.0205-2.4532 0.91774-5.2396 1.9732-6.1912 2.3476-0.95265 0.37441-2.3005 0.8478-2.9936 1.0512-2.2524 0.66167-12.593 5.7151-14.915 7.2881-0.84158 0.57022-1.5336 1.1802-1.5155 1.3373 9e-3 0.0689 0.96226-0.35074 2.2908-1.0038 4.6191-2.2777 14.761-6.4091 16.601-6.762 3.0139-0.5799 6.5949-0.53471 10.236 0.12803l1.2624 0.23132 1.2976 1.0598c2.7116 2.2185 3.692 3.5149 5.3773 7.1062 2.2246 4.7382 3.4197 6.7178 5.9744 9.8917 2.4062 2.9899 4.2528 4.8759 9.0171 9.2107 6.7113 6.1078 9.1345 7.9304 12.797 9.626 0.84906 0.3927 2.3506 1.1071 3.3375 1.5848 0.98789 0.47877 2.7159 1.2394 3.8426 1.6902 1.1246 0.45187 2.7266 1.1168 3.5596 1.4804 2.1776 0.94894 10.979 3.9916 12.598 4.3563 0.75507 0.16999 2.5867 0.60572 4.0701 0.9683 4.7665 1.1641 10.182 1.9183 16.409 2.283 4.6244 0.27112 8.4051 0.0527 10.771-0.62617 1.3564-0.3884 1.916-1.2502 1.3798-2.127-0.67711-1.1125-3.3909-2.1281-10.457-3.9152-5.45-1.3793-9.5543-2.6607-15.821-4.9405-5.765-2.0969-7.1256-2.6682-11.201-4.7016-3.3674-1.6805-5.6486-2.566-8.6753-3.3718-2.0324-0.54009-8.1328-1.8365-10.377-2.2045-1.3307-0.21733-5.3731-0.6068-6.7198-0.64661-0.74546-0.0215-2.7298 0.19258-3.0117 0.32599-0.24885 0.11727-0.33429 0.0506-2.8825-2.2787-3.0513-2.7876-4.1257-3.8474-5.6828-5.5914-3.8587-4.3294-5.4062-6.6479-7.6564-11.477-1.4632-3.1394-2.4105-4.5209-4.2207-6.1476-0.37273-0.33568-0.66857-0.63801-0.65575-0.67243 0.0128-0.0344 1.8017 0.55193 3.9761 1.3029 2.1744 0.75204 4.429 1.503 5.01 1.6708 0.7177 0.20765 1.4984 0.57991 2.4414 1.1641 1.4258 0.8833 1.7077 1.1039 3.9462 3.0824 0.7241 0.64123 1.5902 1.3459 1.9245 1.5654 0.33535 0.21948 1.2581 0.89299 2.0527 1.4933 3.1132 2.354 5.4521 3.4149 11.999 5.4451 3.9655 1.2297 4.571 1.3578 8.1819 1.7333 7.9181 0.8209 15.266 0.18613 22.975-1.9861 0.99644-0.28081 3.518-1.0684 5.6038-1.7494 8.2428-2.6951 12.442-3.5827 21.329-4.509 4.5091-0.46909 5.4468-0.60465 7.5689-1.0963 2.0836-0.48093 3.3898-1.078 3.9676-1.8172 0.5639-0.7187 0.65041-1.2254 0.32894-1.9172-0.54574-1.1727-2.0698-2.2282-4.5112-3.1276-2.4884-0.91558-5.1808-1.3793-9.9868-1.716-5.466-0.38624-13.682 0.18398-28.675 1.9872-8.3154 0.9995-10.636 1.1942-19.059 1.602-14.687 0.71224-18.651 0.54009-26.582-1.1566-3.0192-0.64661-3.9922-0.92527-7.7675-2.226-6.0897-2.0991-8.8376-2.7285-12.837-2.9404l-1.6105-0.085 0.81274-0.30663c12.629-4.7856 16.195-6.224 22.42-9.0439 6.6472-3.0114 13.672-6.6694 17.532-9.1289 0.66749-0.42497 3.1452-1.9667 5.5076-3.4267 8.6764-5.359 11.203-7.0976 16.334-11.231 1.099-0.88439 1.6885-1.2964 1.8124-1.2642 0.12175 0.0334 0.20719-0.014 0.25098-0.13772 0.10253-0.28511 4.1823-2.296 5.8644-2.8909 1.7013-0.6025 4.3307-1.3492 6.2916-1.7881 4.5699-1.0221 6.3834-0.88653 15.355 1.1458 1.3222 0.30017 3.2648 0.70901 4.3158 0.90913 1.0509 0.20119 1.9672 0.40561 2.0367 0.45402 0.0705 0.0495 0.45497 0.30556 0.85547 0.57022 4.2592 2.8199 4.6148 3.1879 6.4816 6.6985 1.6319 3.0695 2.0292 4.3315 2.4521 7.8163 0.55322 4.5564 1.5454 8.7244 2.623 11.021 0.43895 0.93817 1.9021 3.0071 2.7074 3.8312 1.3628 1.3944 2.9979 1.7548 5.6518 1.2459 2.7063-0.51858 5.184-1.8968 6.7337-3.7441 0.45817-0.54871 0.94304-1.092 1.0744-1.2104 0.53186-0.47232 1.493-1.7139 1.8177-2.3476l0.34496-0.67028 1.0723 0.33998c3.2008 1.0167 6.0982 0.9952 8.7362-0.0635 1.8551-0.74236 3.0918-1.9495 3.8213-3.7269 0.5372-1.305 0.49021-2.4735-0.25525-6.5005-1.0669-5.7668-1.6234-7.7647-2.7939-10.046-1.5486-3.0146-3.6354-4.7135-6.1452-5.004l-0.83411-0.0947 0.31399-0.98982c0.42613-1.3449 0.57779-2.5907 0.61837-5.089 0.031-1.8699-0.0203-2.3982-0.43574-4.5704-0.84478-4.4187-1.226-5.4827-2.3635-6.5877-0.59914-0.58314-1.5753-1.0748-2.1819-1.0985-0.89925-0.0355-2.6497 0.48631-5.0826 1.5138-1.3179 0.55731-3.1175 1.3115-3.9986 1.6773-1.2816 0.53364-2.0036 0.91558-3.6152 1.9172-3.4956 2.1722-4.273 2.7747-7.0541 5.4601-1.9982 1.9302-2.6433 2.6639-3.9729 4.5306-1.1983 1.6848-1.7793 2.1679-3.4325 2.8554-0.71342 0.29694-1.4984 0.56591-1.7462 0.60034-0.5073 0.0699-2.9466-0.36903-6.5714-1.1802-8.9989-2.0119-10.666-2.2325-13.931-1.8419-2.4393 0.29156-6.5244 1.3976-9.0908 2.4638-0.83731 0.34643-1.4984 0.57667-1.4696 0.51104 0.0288-0.0667 0.49128-0.49706 1.0274-0.95861 0.53613-0.46049 1.9363-1.7451 3.1111-2.8522 4.1887-3.9528 9.8512-9.0601 12.648-11.407 3.4176-2.8662 9.8854-7.386 14.221-9.9369 4.5945-2.7037 5.1541-2.9867 7.0263-3.5537 0.95051-0.28619 3.0598-0.96293 4.6874-1.5009s3.2969-1.0511 3.7113-1.1426c3.4379-0.75098 8.2663-0.5982 12.603 0.39915 0.7572 0.17322 3.4133 0.92419 5.9017 1.6676 8.6326 2.5778 10.178 2.9167 13.509 2.9652 2.6454 0.0387 4.1096-0.0936 6.4998-0.58528 1.2506-0.25607 2.2161-0.39378 2.2503-0.32062 0.0331 0.071 0.68459 0.63047 1.4461 1.2437 0.76254 0.61326 1.5635 1.3416 1.7793 1.6181 0.90459 1.1544 1.8188 2.6951 2.6112 4.4015 0.97187 2.0894 1.4824 3.5117 1.8914 5.2719 0.46672 2.0012 1.0733 3.1782 2.6038 5.0448 2.3325 2.8457 4.0429 4.0669 7.2474 5.1772 1.8459 0.63908 2.5634 0.72193 5.6065 0.64339 3.5452-0.0904 3.8311-0.11082 5.1498-0.33783 1.7932-0.31094 3.202-0.99305 4.144-2.0076 0.37817-0.40884 1.0468-1.3492 1.4854-2.0905 0.95617-1.6138 1.3014-2.0743 1.5335-2.0506 0.0965 0.0108 1.2312 0.23885 2.5202 0.50782 3.0934 0.64661 3.9965 0.78217 5.2584 0.79078 1.0328 6e-3 1.0791-5e-3 2.4023-0.63047 1.3345-0.63048 1.3559-0.64661 1.9874-1.4514 0.43094-0.55085 0.85739-1.3416 1.315-2.4412 1.3534-3.2567 1.6776-3.9388 2.5711-5.4171 0.49993-0.82736 1.7484-2.5843 2.7734-3.9023 2.5262-3.2492 2.9247-4.0658 2.9822-6.1186 0.0626-2.2303-0.34005-4.1519-1.3216-6.295-0.86209-1.885-1.3291-2.5326-2.5463-3.5397-1.5661-1.2932-4.2366-2.0657-7.1424-2.0657-1.7632 0-3.6276 0.1786-5.3998 0.51427l-1.5398 0.29157 0.25525-0.66598c0.5638-1.474 1.0489-3.4213 1.0504-4.2218 3e-3 -1.163-0.27961-2.2174-0.73073-2.7252-0.56347-0.63585-1.3152-0.80692-3.8106-0.87255-4.0977-0.10651-6.0833-0.55839-9.9514-2.2583-5.4259-2.3852-10.009-2.4896-12.357-0.28188-0.71395 0.67243-2.7157 3.2546-3.7046 4.7834-1.037 1.5998-1.9651 3.5634-2.9445 6.2208-0.98255 2.6671-1.1876 3.1072-2.0185 4.3509-0.34603 0.5175-0.80526 1.3158-1.0189 1.7752-0.58206 1.247-1.5059 2.6123-2.1595 3.1889-0.3973 0.34967-0.6376 0.68427-0.76042 1.0587-0.0993 0.30125-0.28195 0.59604-0.40583 0.65521-0.49021 0.23132-5.4842 1.1663-6.6098 1.2373-0.65682 0.042-1.9972 0.0678-2.9776 0.057-3.3289-0.0344-4.7376-0.34213-13.872-3.0276-4.1342-1.2168-6.1057-1.6934-8.3485-2.0194-4.65-0.67781-8.5578-0.42713-12.109 0.77787-1.6778 0.56807-2.1467 0.67889-1.4172 0.3346 2.8505-1.3459 8.388-4.4294 12.239-6.8125 9.676-5.9895 11.969-7.5194 15.16-10.119 2.5504-2.0754 6.9601-6.3736 8.2449-8.0369 0.48914-0.63048 1.7697-2.665 2.2353-3.5461 0.34603-0.65952 0.41011-0.72192 0.79993-0.77356 0.23282-0.03228 0.84692-0.19151 1.366-0.3572 1.6031-0.50782 2.5792-1.2771 6.0256-4.7501 1.2688-1.2792 1.8092-1.6558 4.3158-3.0146 1.0723-0.58098 2.215-1.2136 2.5376-1.4083l0.5874-0.35182 0.71876 0.72945c0.89498 0.9059 1.6725 1.3761 2.5803 1.5611 0.38662 0.07854 1.4241 0.30663 2.3061 0.50567 3.6805 0.83274 5.3515 0.93172 9.811 0.57452 1.8371-0.14524 4.2839-0.30232 5.4365-0.34644 1.1526-0.04411 2.7792-0.16138 3.6146-0.25821 2.8268-0.33245 3.4912-0.53579 9.4706-2.9114 3.4298-1.3632 4.5162-1.7462 7.3933-2.6004 4.6647-1.3853 7.4044-2.6237 9.5974-4.3343 1.521-1.1856 2.8953-2.538 3.7745-3.7118 1.6371-2.1862 3.4927-6.4241 3.5613-8.1337 0.0628-1.56-0.0613-2.1442-0.78273-3.6849-0.59231-1.2663-0.7712-1.5418-1.7912-2.7543-1.4062-1.6709-2.7314-2.9329-4.4888-4.2767-1.2641-0.96722-1.3482-1.0533-1.2011-1.2513 0.0865-0.1162 0.68341-0.77894 1.327-1.4707s1.269-1.3868 1.3914-1.5461c0.49534-0.64661 1.5305-2.6531 1.7581-3.4084 1.1952-3.9776 1.1356-5.0093-0.5059-8.7201l-1.0567-2.3885zm1.9068 6.9072c0.25215 1.1372 0.17077 2.2561-0.29125 3.9894-0.62071 2.325-1.3852 3.728-2.9291 5.3784-0.65201 0.69718-1.2978 1.4363-1.4359 1.644-0.13799 0.20872-0.27426 0.39055-0.30449 0.40561-0.0302 0.01399-0.38095-0.17645-0.77963-0.42282-0.39911-0.24638-1.5833-0.93925-2.6322-1.5407-2.0797-1.191-2.6497-1.5945-3.054-2.1604-0.23176-0.32492-0.2482-0.4863-0.12325-1.2685 0.35543-2.2465 0.28569-5.9787-0.14685-7.7905-0.68405-2.8629-2.4418-5.8292-4.6595-7.8594-0.94219-0.86179-3.3051-2.3358-5.1141-3.1879-2.9415-1.3879-7.5612-2.8038-14.712-4.5123-5.517-1.3158-8.449-2.7715-10.528-5.2213-0.56657-0.6692-0.79758-1.0705-1.6064-2.8081-0.64357-1.3825-1.0516-2.4154-1.2806-3.2438-0.18434-0.6692-0.70392-2.1636-1.1535-3.3202l-0.81702-2.1023 2.2109-1.1383c4.3635-2.2475 6.2572-2.6854 9.2709-2.1464 2.291 0.40991 4.4455 1.3535 5.9677 2.6112 0.96749 0.79939 4.0325 3.9453 6.2061 6.3671 0.9284 1.035 2.2745 2.41 2.99 3.0544 1.5475 1.3944 4.9853 4.0798 7.5492 5.897 2.24 1.588 5.1761 4.1465 7.383 6.4317 0.90213 0.93387 2.3831 2.3379 3.2903 3.119 1.8067 1.5547 2.34 2.0937 3.7554 3.7925 0.92317 1.1092 0.96557 1.1824 1.8691 3.2417 0.50772 1.1577 0.99249 2.4132 1.0753 2.7909zm2.9836 22.548c0.23133 1.673-0.18423 3.1018-1.7997 6.1821-2.0595 3.9281-5.2175 6.6178-9.8041 8.3468-0.89455 0.33783-2.166 0.77464-2.8263 0.96938-4.9104 1.4568-6.8959 2.1582-12.043 4.253-3.326 1.3545-5.2208 1.744-9.2432 1.8979-1.2267 0.04626-3.8077 0.2141-5.7363 0.37226-3.8811 0.31631-5.4443 0.26467-7.8049-0.25606-4.8988-1.0823-4.6104-0.99089-5.3078-1.6902-0.32253-0.32492-0.63439-0.63585-0.68992-0.69072-0.0555-0.05487 0.0684-0.26144 0.27661-0.4594 0.32573-0.30986 0.4838-0.37764 1.1417-0.48738 1.1267-0.19043 3.6655-1.2233 5.3364-2.1722 0.77729-0.44219 1.4781-0.86179 1.5584-0.9328 0.25407-0.22809 4.3508-2.6618 6.2584-3.7183 1.0152-0.56162 2.1504-1.2276 2.5218-1.4772 1.9524-1.3147 5.8413-4.3003 10.464-8.0315 1.7429-1.4073 5.5632-5.0448 6.7179-6.3983 2.2012-2.58 4.3312-5.9744 5.4715-8.7244l0.50249-1.2115 0.44589 0.45295c0.24478 0.25068 1.6919 1.2201 3.2162 2.1572 1.5232 0.93602 2.8007 1.7677 2.838 1.8484 0.0367 0.07854 0.165 0.16676 0.28366 0.19581 0.57298 0.13341 3.6395 2.6521 4.9525 4.0669 0.56796 0.61326 1.6862 1.971 2.0368 2.4745 0.51595 0.74452 1.1215 2.2335 1.2329 3.0329zm-16.302-24.001c0.31025 1.3083 0.41011 2.5208 0.37711 4.6091-0.0371 2.3379-0.2011 3.3998-0.79726 5.1696-1.2682 3.7592-4.038 7.7346-8.0658 11.577-2.3927 2.283-3.0948 2.8812-6.4043 5.4591-5.9916 4.6672-7.6796 5.8518-10.446 7.3386-2.2135 1.1889-4.9325 2.8317-6.8217 4.1217-0.77333 0.52719-1.5411 0.92849-3.0209 1.5783-2.4816 1.091-2.9216 1.1695-3.6617 0.65844-0.29583-0.20334-1.4888-0.8123-2.6518-1.3545-1.1908-0.55516-2.4542-1.2448-2.8921-1.5794-2.4607-1.8882-4.5358-2.6531-7.3937-2.7252-1.6105-0.03981-3.6312 0.35397-4.335 0.84457l-0.41545 0.28941 0.0769-0.61541c0.12068-0.9726 0.0587-1.7247-0.23923-2.8759-0.33642-1.2986-0.35458-1.7677-0.14418-3.7742 0.0897-0.85748 0.15913-1.8979 0.15165-2.311-0.0417-2.9695-0.1933-8.0358-0.26913-9.0827-0.0502-0.69395-0.17088-2.3691-0.267-3.7226-0.59487-8.4178-0.75614-10.083-1.116-11.586-0.33322-1.39-0.36098-1.7677-0.31186-4.1658 0.11641-5.713 1.5005-17.836 2.5482-22.311 0.74439-3.1825 2.0933-6.5844 3.5457-8.9492 1.6255-2.6445 4.6693-5.6215 6.4881-6.3424 0.64507-0.25499 0.80206-0.2679 1.2944-0.09683 1.131 0.39162 2.1392 1.5611 3.3225 3.8614 1.1374 2.2088 3.0993 6.9578 3.8277 9.2656 1.3179 4.1755 2.8185 6.593 5.3112 8.5565 1.9982 1.573 4.9774 2.8447 9.1555 3.9044 10.862 2.7575 15.487 4.5338 18.639 7.1579 0.83848 0.69825 2.248 2.3003 2.8202 3.204 0.54606 0.86286 1.4901 3.0308 1.6949 3.8969zm6.1309 82.992c0.41918 2.2529 0.33139 4.1476-0.24874 5.3687-0.16821 0.35504-1.0458 1.5912-1.9478 2.7489-2.7345 3.502-3.7763 5.2686-5.0593 8.5845-1.3031 3.3654-1.7083 3.97-3.131 4.6812-1.2244 0.6111-2.3718 0.53794-6.6155-0.42283-1.4275-0.32384-3.3656-0.75204-4.3073-0.95323-6.3893-1.3632-11.97-4.083-17.586-8.5738-1.3373-1.0684-2.8846-2.4089-3.437-2.9802-1.9086-1.9667-3.501-3.0458-6.1891-4.1927l-1.5134-0.64553 0.58099-0.18291c0.3204-0.10113 2.2065-0.58743 4.1919-1.0813 3.3096-0.82306 7.484-2.0862 12.891-3.898 8.7824-2.9436 15.393-4.7694 19.4-5.359 5.241-0.76926 8.8512-0.13448 10.703 1.886 0.96984 1.0598 1.924 3.1706 2.2687 5.0201zm-16.027-12.805c0.0102 1.3632-0.99815 4.9728-1.447 5.1858-0.13767 0.0645-0.76768 0.24315-1.3998 0.39593-2.8653 0.69502-9.2293 2.637-14.033 4.2853-6.7612 2.3186-12.39 3.9485-18.945 5.487l-1.2848 0.30125 0.49341-0.38732c0.76575-0.6025 1.7643-2.0022 2.5151-3.5214 0.25205-0.50889 0.73265-1.3233 1.0691-1.8096 0.87149-1.2588 1.0947-1.7225 1.9822-4.1067 1.4354-3.8549 2.403-5.7162 4.3227-8.3166 1.9804-2.6811 2.6212-3.2438 4.0743-3.5784 1.1749-0.2722 2.1221-0.28511 3.6492-0.0527 1.6854 0.25607 2.9747 0.66383 5.4154 1.7117 3.7323 1.602 5.8467 2.0571 9.8284 2.1141 1.3236 0.0183 2.6123 0.10221 2.8646 0.18397 0.41972 0.13557 0.47664 0.19904 0.67465 0.76819 0.11801 0.34213 0.21669 0.94355 0.22054 1.3395zm-48.992-88.055c-0.55749 3.5795-1.1545 10.469-1.1769 13.574-0.01 1.1749-0.0246 2.7607-0.0363 3.5225-0.0256 1.7042-0.0107 1.8925 0.25312 3.3191 0.22962 1.2459 0.5073 4.2734 0.79993 8.761 0.10359 1.5773 0.25845 3.6688 0.34282 4.6489 0.17088 1.9656 0.19438 2.4208 0.30118 5.9744 0.0395 1.3427 0.0961 3.0383 0.12388 3.7699 0.0278 0.7316-0.0149 2.1044-0.0929 3.0512-0.16554 1.9893-0.12068 2.5391 0.33001 4.0593 0.20185 0.68319 0.33749 1.4933 0.35244 2.113l0.0246 1.0049-0.86401-0.23562c-0.47525-0.12803-1.3756-0.40023-2.0004-0.60142-0.62477-0.20119-1.6266-0.49168-2.2236-0.64661-0.59808-0.15493-1.2207-0.35074-1.3852-0.43574-1.1289-0.58959-4.98-3.0749-5.2342-3.3761-0.60128-0.7187-2.2321-3.9001-2.9861-5.8313-0.64186-1.644-0.73371-1.9882-0.85226-3.1599-0.48273-4.8501-1.2762-11.002-1.6458-12.763-0.23709-1.1351-0.53933-2.8855-0.66963-3.8893-0.13029-1.0038-0.37166-2.5918-0.53506-3.5268-0.16341-0.93602-0.42186-2.6327-0.57458-3.7699-0.53934-4.0109-1.2058-6.7641-2.5076-10.363-0.66323-1.8322-1.32-3.0394-2.6187-4.8103-1.5251-2.0797-2.1338-3.6053-1.8028-4.5263 0.12602-0.34966 0.2435-0.44327 1.0221-0.81122 1.7227-0.81445 4.9042-1.5321 6.6429-1.4998 1.8081 0.03335 6.158 1.4998 10.078 3.3955 1.0092 0.48738 2.2738 1.0146 2.8099 1.1716 2.3635 0.68857 2.8494 0.79401 3.5318 0.76281 0.3973-0.01937 0.73158-0.01399 0.74119 0.0065 0.01 0.02367-0.0555 0.52288-0.14738 1.1114zm19.152 59.885c-0.12069 0.42282-0.73585 0.89729-2.4019 1.8581-0.76041 0.43789-1.9619 1.1297-2.671 1.5407-1.7558 1.0156-3.0491 2.0065-4.4557 3.4192-2.6476 2.6553-3.7305 3.5257-4.8882 3.9324-0.42293 0.14847-0.96867 0.28081-1.2164 0.29264-0.39622 0.01937-0.45603-0.01721-0.51798-0.32277-0.0384-0.18936-0.0342-0.70256 0.0107-1.1394 0.0448-0.43789 0.0993-1.1781 0.11962-1.644 0.0214-0.46801 0.18263-1.4675 0.35991-2.2228 0.17729-0.75527 0.3471-1.6515 0.37914-1.9947 0.0854-0.93387-0.0876-2.325-0.36205-2.9232-0.14097-0.30663-0.29797-1.0694-0.3738-1.8161-0.0726-0.70686-0.22534-1.5816-0.34282-1.9431-0.267-0.82736-0.25525-1.021 0.0897-1.5525 0.15272-0.23777 0.25311-0.56162 0.22321-0.71977-0.0641-0.32815-0.0224-0.34428 1.3147-0.52503 1.1118-0.1517 2.8206-0.10329 4.0124 0.10974 2.0302 0.36365 3.4411 1.0006 5.1627 2.3282 0.61943 0.4777 1.5785 0.99197 3.204 1.7171 1.2752 0.56807 2.3485 1.091 2.3827 1.1598 0.0331 0.07101 0.0214 0.27112-0.0288 0.44542zm23.374 63.698c-1.2476 2.1636-2.1486 3.1029-3.3958 3.5418-1.1228 0.39593-2.7709 0.61326-4.6701 0.61756-0.94186 1e-3 -2.2906 0.0172-2.9962 0.0355-1.7428 0.0441-2.9763-0.16568-4.5026-0.75957-2.4661-0.96185-4.2517-2.3035-6.169-4.6371-1.3318-1.6192-1.8636-2.6628-2.2706-4.4499-0.41758-1.8376-1.2015-3.9044-2.3934-6.3004-1.5646-3.1513-2.4521-4.281-4.4664-5.6882l-0.7508-0.52504 0.48914-0.14201c0.41972-0.12158 0.73905-0.0506 2.2193 0.48845 4.006 1.46 5.7266 2.5014 7.9341 4.8006 1.034 1.0759 4.8164 4.1519 6.4572 5.2503 1.8272 1.2233 5.8106 3.4202 7.5221 4.1486 1.6366 0.6961 4.5303 1.6289 6.4793 2.0872 0.61196 0.14417 1.1252 0.29265 1.1398 0.3303 0.0162 0.0377-0.26625 0.57776-0.62606 1.2018zm-73.544-68.361c-0.0395 0.24961-0.3802 1.3427-0.75721 2.4283-0.69846 2.0141-0.93129 3.0114-1.3606 5.8464-0.45283 2.992-0.32787 4.7587 0.57885 8.1316 0.27127 1.006 0.54682 2.1722 0.61303 2.5907 0.16661 1.0415-0.0919 2.7242-0.65575 4.2637-0.41972 1.149-0.59807 1.4471-1.7045 2.8274-1.7002 2.1227-2.5856 2.9372-4.8124 4.4219-2.6849 1.7903-4.366 2.5531-12.176 5.5279-4.2976 1.6354-7.1256 2.8307-10.823 4.5747l-3.2317 1.5245 0.38981-1.318c1.0392-3.5139 1.8498-5.3612 3.5767-8.1585 2.0292-3.289 3.9302-5.7496 6.9751-9.0332 1.9843-2.1399 3.0288-3.4149 4.4845-5.4752 0.49875-0.70578 1.5689-2.169 2.3774-3.2535 1.9523-2.6144 2.7971-3.856 4.1374-6.0895 2.1157-3.5235 3.3396-5.0169 5.8259-7.1041 1.2047-1.0113 1.4845-1.1932 2.8943-1.8731 3.126-1.5073 3.9291-1.4697 3.6686 0.16784zm-9.5564 1.2244c-1e-3 0.89944-0.13243 1.177-1.0114 2.1378-0.96654 1.0587-1.3991 1.6784-3.0876 4.4251-1.4728 2.3971-2.2118 3.4504-6.1378 8.747-2.4158 3.2578-3.0918 4.0776-5.3741 6.4973-2.5942 2.7521-4.586 5.3988-6.7689 8.988-1.7836 2.9329-2.4895 4.5844-3.738 8.761l-0.14418 0.47984-0.22962-0.64661c-0.12709-0.35719-0.47846-1.3352-0.78283-2.1733-0.94518-2.609-1.5144-4.8738-1.7472-6.9427-0.11641-1.0425-0.28836-2.4132-0.38234-3.0491-0.34176-2.2884-0.30759-8.549 0.0598-11.257 0.29691-2.1787 0.30972-2.7177 0.1538-6.3122-0.22962-5.2493 0.0224-7.9734 0.98041-10.634 0.48487-1.3459 0.73371-1.8365 1.2859-2.5326l0.68351-0.86286 1.4066-0.65952c3.4144-1.5988 6.9163-1.5536 13.128 0.17214 1.9918 0.55301 3.4154 0.79185 6.0299 1.0135 1.8017 0.15278 3.8063 0.74129 4.5443 1.332 0.644 0.5175 1.1321 1.6042 1.1321 2.5165zm25.318 63.85c0.18049 0.78325 0.46564 2.1636 0.63439 3.0684 0.61623 3.3159 0.32467 7.8271-0.5842 9.0321-0.27127 0.36042-0.28622 0.36472-1.2869 0.35504-1.9662-0.0172-4.6832 0.10759-7.8497 0.36258-2.7469 0.21948-9.0256 0.55515-13.5 0.72084-1.7376 0.0635-5.1488-0.0861-5.1787-0.22916-0.0139-0.0613 0.19864-0.26252 0.47312-0.44435 0.78604-0.52395 1.5443-1.3545 2.5493-2.7941 1.1118-1.5923 2.1146-2.7091 4.1246-4.5908 1.9213-1.7967 3.3279-2.8586 5.8889-4.4424 1.9704-1.2201 2.2417-1.3545 5.764-2.8726 2.9167-1.2577 3.9676-1.6612 4.9779-1.9108 0.70381-0.1743 1.3937-0.30986 1.5315-0.30448 0.27661 0.0151 1.0424 0.5713 1.4226 1.0329 0.32894 0.40023 0.63973 1.3072 1.0338 3.0168zm8.3485 21.898c0.41438 1.4686 1.4888 6.8147 1.8167 9.0385 0.19971 1.3599 0.0886 2.2841-0.37807 3.1481-0.55322 1.0199-1.1705 1.6095-2.2108 2.1109-2.4446 1.1781-5.5098 1.148-9.0074-0.0872-1.6266-0.57452-2.654-1.0748-5.2513-2.5552-4.1267-2.3508-6.6002-4.2379-9.4186-7.1848-1.65-1.7246-3.9622-3.8345-6.8234-6.2251-0.73691-0.61541-1.7942-1.5816-2.3496-2.1453-0.55536-0.56377-1.602-1.475-2.3272-2.0238l-1.3179-0.99735 0.56711 0.057c1.9234 0.19797 4.3927 0.26897 6.4304 0.18721 6.0278-0.24531 10.378-0.47232 13.465-0.70471 7.0028-0.52611 11.036-0.39485 12.422 0.40131 0.93876 0.54117 2.1018 1.7591 2.8782 3.0168 0.39943 0.64661 1.0616 2.3917 1.5048 3.9636zm-30.664-52.144c0.0331 0.43358-0.35671 1.801-0.62051 2.1787-0.32787 0.47124-5.3229 2.8758-8.3239 4.0098-2.1563 0.81337-6.2339 2.0818-7.3969 2.2992-0.27554 0.0506-1.273 0.0882-2.2161 0.0796-0.94197-8e-3 -2.1616 0.0118-2.7116 0.0441-0.54788 0.0312-1.5742 5e-3 -2.2802-0.0592-0.70594-0.0656-1.6661-0.10975-2.1328-0.10114-0.46671 0.01-0.83837-0.01-0.82662-0.042 0.0598-0.16568 9.221-4.0808 12.551-5.3633 5.8612-2.2572 8.7212-3.4504 10.484-4.3724l1.6116-0.84457 0.44322 0.30124c0.84158 0.56807 1.3734 1.2717 1.4183 1.8699zm18.615 68.225c-0.19117 0.32169-0.60769 0.87039-0.92595 1.22-2.9391 3.2223-2.498 2.8565-4.6693 3.8775-2.0858 0.98121-2.7736 1.1663-4.414 1.1878-1.7472 0.0226-2.3442-0.29694-3.6664-1.9667-2.0911-2.6424-3.3738-6.7168-4.1246-13.112-0.29157-2.4745-0.64294-3.9227-1.4108-5.7861l-0.66429-1.6106 0.79885 0.723c0.43895 0.397 1.4621 1.305 2.2738 2.0141 0.81274 0.71009 2.2556 2.1012 3.205 3.091 1.8679 1.9452 4.162 3.8829 6.2136 5.2471 1.5219 1.0135 4.9245 2.9555 6.5254 3.7215 0.63545 0.30555 1.1673 0.6111 1.1801 0.67996 0.0139 0.071-0.13137 0.39055-0.32147 0.71332zm-52.273-97.313c-0.0694 0.90267-0.0737 3.2524-0.01 5.2224 0.0897 2.7123 0.063 3.9926-0.10787 5.2751-0.39623 2.9619-0.45176 3.7882-0.47205 7.1697-0.0192 3.0857 0.21893 6.2628 0.74118 9.882 0.15913 1.1017 1.0456 4.2928 1.414 5.0933 0.16233 0.35074 0.40797 1.0178 0.54681 1.4826 0.33108 1.1103 0.8074 2.1367 1.1417 2.4584l0.26914 0.25929-0.72624-0.0441c-0.75186-0.0441-2.8761-0.71869-3.315-1.0522-0.13884-0.10329-0.84265-0.79078-1.5667-1.5278-1.2827-1.3061-1.3243-1.3642-1.7013-2.325-0.21146-0.54332-0.64827-1.9452-0.96974-3.1158-0.65788-2.3982-0.83837-4.0464-0.73584-6.7318 0.0395-1.0705-0.0171-1.8806-0.18797-2.6596-0.24884-1.1297-0.44856-2.6209-0.67497-5.0427-0.0897-0.96077-0.31186-1.9678-0.82342-3.7344-0.86935-3.0017-1.5347-5.7334-1.665-6.8319-0.13029-1.1082 0.15166-1.9656 1.0253-3.1222 0.95051-1.2577 1.5315-1.5245 4.2506-1.9549 1.0904-0.17214 2.388-0.4594 2.8814-0.63908 0.88536-0.32062 0.90031-0.32062 0.8576-0.01291-0.0246 0.17107-0.10146 1.0501-0.17195 1.9517zm-15.557 12.671c-0.1901 0.58851-1.1096 2.991-2.0441 5.3407s-1.7932 4.5984-1.9074 4.9975c-0.35777 1.2437-2.231 7.0223-3.1666 9.7712-1.1652 3.417-1.492 4.8125-2.1627 9.2128-0.94518 6.2047-1.2357 7.5484-3.0961 14.369-1.241 4.5435-3.251 10.424-4.3713 12.798-0.9078 1.9205-4.1994 7.9433-5.1691 9.4603-0.93129 1.4557-3.0918 4.3165-4.2592 5.6377-1.3008 1.475-5.8398 5.3848-8.089 6.9718-2.0196 1.4234-3.2114 2.197-3.2531 2.1066-0.0118-0.0258 0.20398-0.25821 0.47739-0.51535 0.96119-0.89944 8.2716-10.403 9.2114-11.972 0.96226-1.6106 1.5646-2.9985 2.6326-6.0777 0.77644-2.2378 1.1588-3.6494 1.7633-6.5199 0.96333-4.5725 1.006-4.7167 3.0822-10.462 1.7366-4.8017 2.8964-8.3661 4.1812-12.853 0.44002-1.5385 1.1833-3.629 1.9502-5.4795 0.68031-1.645 1.4632-3.7602 1.7387-4.7006 0.63759-2.1776 1.9672-5.6925 2.7191-7.1816 0.31933-0.63477 1.0541-1.9108 1.6308-2.835 0.57778-0.92419 1.4418-2.3906 1.9181-3.2589 0.47847-0.86609 1.414-2.4444 2.0815-3.5085 0.6675-1.063 1.5465-2.5154 1.9544-3.2277 0.80527-1.4094 1.6661-2.8296 2.324-3.8355l0.41866-0.64123-0.11 0.66813c-0.0619 0.3658-0.26594 1.1469-0.45497 1.7354zm-1.0744-2.4089c-0.1036 0.09791-1.0819 1.6612-2.1744 3.4773-1.0936 1.815-2.3218 3.8312-2.733 4.4778-0.40904 0.64661-1.1107 1.8376-1.5593 2.6456-0.44749 0.80799-1.2976 2.2378-1.8893 3.1782-0.58953 0.93818-1.3115 2.1636-1.6031 2.722-0.78497 1.4976-1.9662 4.5284-2.843 7.2945-0.42506 1.3427-1.2784 3.6322-1.8946 5.0879-0.76788 1.8107-1.4439 3.7344-2.1413 6.0842-1.4664 4.9437-2.0559 6.7189-4.1235 12.396-1.8946 5.1987-2.1776 6.1842-3.1303 10.894-0.46245 2.282-0.76682 3.3288-1.837 6.3079-1.3991 3.9001-2.0901 5.2417-3.832 7.4591-1.0018 1.2749-4.1011 5.387-5.074 6.7318-0.83944 1.1641-0.76789 0.98767 0.82983-2.0313 3.2189-6.082 4.209-8.634 7.7643-19.995 0.94731-3.0308 2.6102-8.1133 4.7814-14.622 0.46564-1.3965 1.9576-5.9099 3.315-10.029 4.146-12.584 4.2047-12.734 6.6728-17.242 0.68886-1.2556 1.7077-3.162 2.2642-4.2358 1.2965-2.5025 2.4959-4.4466 3.5831-5.8087 1.4482-1.8118 3.5714-3.7678 5.3282-4.9082 0.41439-0.2679 0.62158-0.18505 0.29584 0.1162zm50.634 108.85c-0.14952 0.12803-0.30758 0.14632-0.49875 0.057-0.66857-0.31524-5.7939-1.0996-7.2656-1.1125-4.6938-0.0409-6.5265-6e-3 -8.0559 0.15062-0.96654 0.099-2.8216 0.23024-4.1203 0.29265-1.2987 0.0613-3.44 0.21087-4.7611 0.33352-1.32 0.12158-3.4923 0.31524-4.8305 0.4282-1.335 0.11512-3.3684 0.30125-4.5165 0.41745-1.1492 0.11512-4.0274 0.33245-6.3984 0.48415-2.371 0.15062-5.2951 0.33783-6.4987 0.41529-1.2026 0.0775-3.4005 0.17537-4.8839 0.21626-1.4834 0.042-3.5671 0.11942-4.6319 0.17214-2.7896 0.13771-4.398 0.0872-7.0797-0.22594-1.3051-0.1517-3.6365-0.41852-5.1819-0.58958-2.3859-0.2679-6.1346-0.85856-6.189-0.97584-0.01-0.0204 0.58205-0.0366 1.3136-0.0366 3.3781-2e-3 7.7547-0.14309 13.085-0.42175 8.938-0.46801 11.309-0.68426 19.497-1.7806 10.556-1.4148 19.044-2.1819 24.398-2.2045 3.3866-0.0151 7.8498 0.40991 10.611 1.007 3.4272 0.74344 6.8426 2.6596 6.0075 3.3729zm-4.8327 1.4912c-0.67497 0.12803-3.2147 0.45295-5.6433 0.72192-6.786 0.75205-11.439 1.56-15.607 2.7069-0.9644 0.26682-3.5126 1.0651-5.6604 1.7741-8.2791 2.736-12.138 3.6548-17.371 4.1357-3.4539 0.31954-10.212 0.0807-14.053-0.49491-1.5507-0.23347-5.3667-1.3675-9.1217-2.7112-2.7736-0.99412-4.8295-2.1066-6.8352-3.7-0.62584-0.49813-1.5336-1.1824-2.0153-1.5224-0.48167-0.3389-1.4802-1.1663-2.2204-1.8387-1.9993-1.8161-1.9064-1.687-1.0466-1.4524 0.40905 0.10974 1.3777 0.43788 2.1499 0.72837 1.4172 0.52934 5.5076 1.6526 7.7504 2.127 1.7494 0.36903 2.9744 0.5444 7.021 1.0006 6.55 0.73914 7.446 0.78648 11.35 0.61649 1.1043-0.0484 3.3706-0.13126 5.0366-0.18183 1.6661-0.0516 4.1865-0.18182 5.6016-0.28618 1.4162-0.10759 4.0926-0.28834 5.9455-0.40346 1.8551-0.1162 4.6703-0.34214 6.2563-0.50029 5.7287-0.5756 9.8725-0.9328 12.483-1.078 1.4642-0.0818 3.7017-0.24853 4.9694-0.37011 2.9242-0.28081 8.5621-0.24315 10.778 0.0732 0.90993 0.13018 1.6116 0.27866 1.5571 0.3303-0.0534 0.0516-0.65041 0.19689-1.3254 0.32492zm-9.7187 39.129c-0.32253-0.0108-1.5945-0.13341-2.8238-0.27112-7.1823-0.81122-9.0844-1.1286-12.287-2.0464-0.90994-0.26144-2.5333-0.72299-3.6098-1.0253-1.0744-0.30232-2.7448-0.78755-3.7113-1.077-0.9644-0.28942-2.9348-0.77034-4.3788-1.0684-1.4418-0.29802-3.5351-0.83382-4.65-1.1889-1.115-0.35612-2.686-0.81014-3.4923-1.0081-2.4564-0.6025-5.3432-1.5418-12.298-3.998-6.3588-2.2454-10.904-4.054-13.427-5.3418-1.1139-0.567-2.372-1.4901-2.3015-1.6859 0.0737-0.2098 1.9875-0.18828 4.3435 0.0484 2.655 0.26575 5.2695 0.72085 10.117 1.7558 5.7063 1.2179 8.1862 2.042 12.289 4.0862 3.7786 1.8807 4.4375 2.1701 8.5557 3.7656 6.2467 2.4208 13.602 4.7769 20.709 6.635 3.612 0.94355 7.4151 2.1399 7.5187 2.3626 0.0192 0.042-0.22962 0.0678-0.55429 0.057zm-4.5571 1.1286c-2.1552 0.1205-6.3684-0.0785-9.9889-0.47124-2.3229-0.25391-7.4461-1.0533-8.9263-1.3933-6.0929-1.3986-8.4083-2.0636-12.91-3.7032-2.5344-0.92204-5.8729-2.2174-7.4161-2.8758-1.5432-0.65952-3.2755-1.3976-3.849-1.6397-0.57138-0.24207-1.7066-0.76711-2.5194-1.1652-0.81381-0.39807-2.1616-1.0404-2.9946-1.4277-1.429-0.66275-3.2563-1.7021-3.8522-2.1905l-0.26593-0.21733 0.37273 0.16676c2.167 0.97799 4.7333 1.9667 7.1011 2.7381 1.5753 0.5132 3.722 1.276 4.7707 1.6924 2.2268 0.88869 6.7049 2.311 9.5116 3.0222 1.084 0.27435 2.749 0.75097 3.7027 1.0587 0.95265 0.30771 2.5728 0.73053 3.6002 0.93925 2.9712 0.6025 5.1798 1.1803 11.771 3.0738 3.7924 1.0888 6.6023 1.5934 11.568 2.0732 0.84479 0.0818 1.5272 0.17214 1.5176 0.20119-0.0107 0.0301-0.54681 0.0828-1.194 0.11835z" clip-rule="evenodd" fill="#93b7db" fill-rule="evenodd" stroke-width="1.0719"/>
</svg>
