<svg version="1.1" viewBox="0 0 512 512" xml:space="preserve" xmlns="http://www.w3.org/2000/svg">
  <g transform="translate(.003 92.73)">
    <path d="m163.61 0c-90.358 0-163.61 73.1-163.61 163.27 0 90.174 73.248 163.27 163.61 163.27 90.359 0 163.61-73.1 163.61-163.27 0-90.172-73.247-163.27-163.61-163.27zm0 282.76c-66.019 0-119.73-53.601-119.73-119.48 0-65.881 53.709-119.48 119.73-119.48 66.017 0 119.73 53.604 119.73 119.48-1e-3 65.884-53.71 119.48-119.73 119.48z" fill="#ffd92f" />
    <path d="m22.565 163.27c0-86.387 67.231-157.09 152.32-162.88-3.728-0.254-7.489-0.393-11.282-0.393-90.359 0-163.61 73.1-163.61 163.27 0 90.174 73.248 163.27 163.61 163.27 3.793 0 7.554-0.14 11.282-0.394-85.094-5.786-152.32-76.492-152.32-162.88z" opacity=".1" />
    <path d="m348.39 0c-34.29 0-66.112 10.535-92.406 28.528 12.603 8.619 23.938 18.949 33.661 30.664 17.366-9.801 37.41-15.404 58.744-15.404 66.018 0 119.72 53.604 119.72 119.48 0 65.884-53.708 119.48-119.72 119.48-66.019 0-119.73-53.601-119.73-119.48 0-28.796 10.261-55.245 27.325-75.898-9.361-11.329-20.762-20.919-33.649-28.188-23.454 28.257-37.554 64.527-37.554 104.09 0 90.174 73.247 163.27 163.61 163.27 90.358 0 163.61-73.1 163.61-163.27 2e-3 -90.173-73.247-163.27-163.6-163.27z" fill="#fdbf01" />
    <path d="m206.88 163.27c0-35.149 11.139-67.697 30.072-94.34-4.617-3.587-9.493-6.858-14.616-9.747-23.454 28.257-37.554 64.527-37.554 104.09 0 90.174 73.247 163.27 163.61 163.27 3.715 0 7.396-0.136 11.048-0.378-85.204-5.672-152.56-76.427-152.56-162.9z" opacity=".1" />
  </g>
</svg>